<?xml version="1.0" encoding="utf-8"?>
<!-- Generator: Adobe Illustrator 16.0.0, SVG Export Plug-In . SVG Version: 6.00 Build 0)  -->
<!DOCTYPE svg PUBLIC "-//W3C//DTD SVG 1.1//EN" "http://www.w3.org/Graphics/SVG/1.1/DTD/svg11.dtd">
<svg version="1.1" id="Capa_1" xmlns="http://www.w3.org/2000/svg" xmlns:xlink="http://www.w3.org/1999/xlink" x="0px" y="0px"
	 width="841.89px" height="562.861px" viewBox="0 0 841.89 562.861" enable-background="new 0 0 841.89 562.861"
	 xml:space="preserve">
<rect fill="#B1E3FA" width="841.368" height="537.716"/>
<path fill="#38C6F4" d="M842.588,207.335l-4.968,0.969v2.898h3.557v5.433h-7.311v120.349l-0.443,0.183l-0.114-30.204l-0.479-0.319
	l-0.204-2.592c0,0,0.002-0.477-0.212-0.477l-0.304-4.549l-1.691-5.031l-0.267-0.001l-0.054-0.264l-1.119-0.639l-0.791-2.594
	l-0.959-0.479l-0.633-2.17l-0.854-0.426l-0.103-0.261v-5.846l-2.568-2.576v-63.826l-2.173-2.06v-6.174l-0.592-1.546v-3.088h-6.122
	v4.114h-4.939v78.167l-0.316-5.528l-1.223-0.231l-0.204-3.233h-2.039l-0.406-16.395l-1.632-0.23l-0.407-12.008l-6.588-1.521v-15.694
	h-13.267v61.146l-13.262,13.26v-30.446h-13.313v-19.513l-4.791-6.857c0,0-1.6-7.382-7.46-8.965c0,0-7.987-0.003-9.049,8.965
	l-5.325,7.912v17.405h-11.185v39.029h-6.393v37.468h-9.111v-35.384l-2.354-15.669v-50.353h-30.738v38.092l-0.919,4.863
	c-1.625-6.05-2.959-11.012-2.959-11.012s-0.865-5.087-5.259-4.945s-4.441,4.232-4.441,4.232l-3.482,32.148
	c0,0,0.112,1.354,1.298,1.759c0.01,0.003,0.018,0,0.027,0c-0.116,1.382-0.25,3.693-0.379,7.41h-4.91v-46.43
	c0,0-0.265-1.67-2.258-1.948v-29.86c0,0,0.132-1.113-3.992-1.251v-25.004h-1.86v-0.833h-2.663v-1.721h-34.049v1.724h-2.11v-1.724
	h-15.633v2.857l-1.022,4.854v74.258h-8.144v-72.418l-12.712-3.75h-18.267v41.305l-11.511-16.281v-48.524l-6.123-40.203l-1.579-1.086
	v-5.792l-8.098-1.087c0,0-4.148-5.071-9.284-0.365l-7.506,0.365v149.246h-6.71v-36.631h-0.307v-87.235h-8.13v9.265h-5.136v12.778
	h-0.449v52.515h-2.568l-3.553,1.086v2.535h-4.938l-1.307,0.282v-44.8h-4.939v-4.114h-6.121v3.088l-0.593,1.546v6.174l-2.175,2.06
	v63.826l-2.566,2.576v20.279h-1.016v-79.892l-1.112-0.262v-16.939h1.979v-2.074h-2.268v-0.111h-2.849v-27.982h-2.329v-2.419h-1.509
	v-5.412h-0.813v-1.382h-0.583v-7.14h-0.698v-0.922h-0.693v-6.679c0,0-0.585-1.267-2.33-1.267v-7.136h-1.393v-2.074h-0.697v-5.988
	h-0.638v-0.115h-0.178v-2.074h-0.697v-7.943h-0.638v-0.115h-0.061v-9.558h-0.811V94.647h-0.581v-8.058h-0.698v8.058h-0.409v-8.058
	h-0.698v8.058h-0.582v19.463h-0.811v9.558h-0.06v0.115h-0.639v7.943h-0.697v2.074h-0.177v0.115h-0.639v5.988h-0.696v2.074h-1.393
	v7.136c-1.745,0-2.331,1.267-2.331,1.267v6.679h-0.693v0.922h-0.698v7.14h-0.583v1.382h-0.813v5.412h-1.508v2.419h-2.331v27.982
	h-2.848v0.111h-2.268v2.074h1.979v16.939l-1.112,0.262v79.892h-1.016v-20.279l-2.566-2.576v-63.826l-2.174-2.06v-6.174l-0.592-1.546
	v-3.088h-6.121v4.114h-4.94v44.8l-1.306-0.282h-4.939v-2.535l-3.553-1.086h-2.568v-52.515h-0.45v-12.778h-5.135v-9.265h-8.131
	v87.235h-0.307v36.631h-6.71V147.118l-7.505-0.365c-5.136-4.706-9.284,0.365-9.284,0.365l-8.098,1.087v5.792l-1.58,1.086
	l-6.123,40.203v48.524l-11.51,16.281v-41.305h-18.267l-12.711,3.75v72.418h-8.144v-74.258l-1.023-4.854v-4.859l-6.866-14.136
	l-6.283,10.602h-2.485v7.26h-2.109v-4.583h-0.931v-1.252h-4.789v-1.39l-3.062-8.055v-3.752h-0.797v-1.805h-0.798v-1.11h-1.063
	v-32.782l-1.196-2.084v-25.974h-1.865l-0.665-1.249V97.753h-4.125v32.923l-0.398,1.249h-1.994v26.251l-1.195,1.943v33.059H235.8
	v1.113h-0.669v2.221h-0.666v3.335l-3.056,5.695v1.943h-1.329v1.388h-3.725v1.39h-0.665v4.444h-2.662v0.833h-1.861v25.004
	c-4.124,0.138-3.992,1.251-3.992,1.251v29.86c-1.993,0.277-2.259,1.948-2.259,1.948v75.286h-4.909
	c-0.521-15.002-1.112-36.008-0.351-36.267c1.184-0.405,1.297-1.759,1.297-1.759l-3.483-32.148c0,0-0.047-4.09-4.441-4.232
	c-4.394-0.142-5.258,4.945-5.258,4.945s-1.335,4.961-2.959,11.012l-0.919-4.863v-54.604l-4.41,8.074l-4.166,1.615v-39.951h-0.483
	v-8.375h-0.543v8.434l-2.114,41.506l-11.11,5.202l-7.912-1.615v51.973l-2.355,15.669v35.384h-9.112v-37.468h-6.393v-39.029h-11.184
	v-17.405l-5.325-7.912c-1.062-8.968-9.049-8.965-9.049-8.965c-5.859,1.583-7.46,8.965-7.46,8.965l-4.791,6.857v19.513H94.173v75.444
	H80.911V172.498H72.78v9.265h-5.134v63.417l-6.588,1.521l-0.408,12.008l-1.631,0.23l-0.407,16.395h-2.039l-0.204,3.233l-1.223,0.231
	l-0.315,5.528v-78.167h-4.94v-4.114h-6.122v3.088l-0.592,1.546v6.174l-2.174,2.06v63.826l-2.567,2.576v5.846l-0.103,0.261
	l-0.853,0.426l-0.633,2.17l-0.959,0.479l-0.792,2.594l-1.12,0.639l-0.053,0.264l-0.267,0.001l-1.691,5.031l-0.304,4.549
	c-0.215,0-0.212,0.477-0.212,0.477l-0.204,2.592l-0.48,0.319l-0.114,30.204l-0.444-0.183V216.636h-7.31v-5.433h3.556v-2.898
	l-9.284-1.812l-15.999,5.433v3.259h2.766v5.071l-3.167,0.748v158.388H0v140h841.89V386.717h0.698V207.335z"/>
<path fill="#001C29" d="M400.324,350.466c0,0,2.443,2.446,3.771,2.892c0,0-8.436,9.551-9.104,12.437l-3.332-25.096l-27.981,7.551
	l3.551,30.869l19.325,6.885c0,0,0,1.551,2.219,2.668l3.333,1.108c0,0-6.884,21.547-6.44,25.989l3.998,0.663
	c0,0-1.557,18.886,5.551,40.865c0,0,0.445,8.224,0.67,10.886c0.219,2.663,0.666,17.325,0.438,20.435
	c-0.22,3.107,0.446,11.101-0.663,12.216c-1.111,1.108-3.334,2.886-4.886,3.331c-1.556,0.44-5.552,2.442-4.443,3.773
	c0,0,0.669,1.776,11.773,0.223c0,0-0.226,1.999,11.325,0.894c0,0,6.002-0.225,7.555-0.225c1.551,0,7.551-1.111,4.885-4.886
	c0,0,2.666-37.094-3.553-45.089c0,0-1.777-5.335-1.777-7.553c0-2.219,0.222-9.553,0.886-12.885
	c0.667-3.328,5.331-16.877,4.889-18.431h1.997c0,0,1.113-12.216-1.555-16.433c-2.664-4.218-1.333-6.661-1.333-9.777
	c0-3.104,1.333-10.885,1.333-10.885s11.105-19.989,7.107-26.646c0,0-0.887-2.888-5.553-4.003c0,0-2.441-3.554-2.663-4.663
	c-0.227-1.109-1.331-0.44-1.331-0.44l-0.672-1.779c0,0,2.443,0.666,2.443-3.556c0-4.217-0.44-2.439-1.328-3.773
	c-0.889-1.33,1.328-0.668,2.221-1.774c0.889-1.109-0.893-0.228-1.779-1.558c-0.885-1.333-7.109-14.882-15.321-13.329
	c-8.224,1.563-12.442,9.329-12.886,11.996c-0.443,2.663,2.221,7.777,2.444,8.663c0.222,0.893,4.44,6.221,3.112,8.887
	 M405.43,497.055c0.67-2.887,1.999-9.324,2.224-11.547c0.222-2.222-0.002-16.66-0.665-18.211c0,0,3.332,6.885,3.553,9.77
	c0.219,2.886,2.443,12.883,1.327,15.323c-1.108,2.449-2.218,6.667-3.104,7.997c-0.889,1.339-3.113,2.887-3.113,2.887
	S404.764,499.946,405.43,497.055z"/>
<g>
	<path fill="#001E29" d="M214.559,424.488c0,0,0.547,0.678,0.688,1.245c0,0-0.846,1.772,1.559,3.975c0,0,2.05,1.486,2.828,1.913
		c0.778,0.426-7.922,0.354-7.922,0.354l0.213,3.618l6.648,1.065l42.925-0.283v72.724h4.53l-0.002-72.724h8.698v78.656h4.738v-82.91
		h-23.621c0,0-0.705-0.5,0.074-0.857l8.696-22.552c0,0,0.145-0.57-0.985-0.219l-2.975,0.501c0,0-0.706,0.217-0.991,0.778
		l-7.778,20.214l-23.693,0.143c0,0-0.28,1.135,0.709,1.42l-2.261,0.142c0,0,3.959-5.109,1.836-7.232c0,0-2.332-2.341-4.238-2.341
		c0,0-1.278-0.783-1.7-1.136c-0.424-0.353-5.234-5.463-5.377-6.242c-0.141-0.779-1.979-4.323-3.252-5.393
		c-1.271-1.065,0.069-2.198-1.345-3.405c-1.413-1.206-1.626-3.968-2.544-4.039c-0.92-0.072,0.355-0.072,0.355-0.072
		s2.897-5.106,5.019-3.972c0,0,3.889,2.198,4.598,0.639c0,0,0.14-1.773,1.486-1.704l-0.141-1.061c0,0,0.565,0.143,0.846-0.357
		c0,0-0.068-1.487,0.711-1.345c0,0,2.119,0.352,1.837-1.135c0,0-0.781-3.41,0-4.329c0.779-0.92,3.182-4.966,1.625-7.803
		c0,0,2.052-6.028-9.618-8.439c0,0-4.951,0-6.363,1.062c0,0-0.639,0.284-1.558-0.637c0,0-3.322-2.833-5.797,0.494
		c0,0-1.344,0.926-2.476,11.283c0,0-1.415,4.611-1.91,5.386c-0.495,0.783-0.426,0.711-0.705,2.057
		c-0.288,1.35,0.21,1.635-0.919,3.48c-1.134,1.843-1.413,3.688-2.83,5.746c-1.416,2.053-2.405,3.331-2.193,5.105
		c0.211,1.771,0.563,2.623,0.563,2.623l0.181-0.23c-0.196,0.862-0.394,1.892-0.463,3.206c-0.14,2.631-0.14,6.103-0.28,6.954
		c-0.145,0.854-0.78,1.845-1.485,3.406c-0.708,1.559-1.415,6.238-1.485,7.869c-0.071,1.632,0.777,1.135-1.347,2.91
		c-2.121,1.775-3.532,3.475-5.161,5.249c-1.625,1.771-3.675,4.467-4.101,4.964c-0.424,0.496,0,0.496-0.284,1.278
		c-0.281,0.779-0.568,1.419-0.141,1.563c0.424,0.14,0.354,0.352,0.071,1.135c-0.286,0.78-1.627,7.872,2.265,11.562
		c0,0-10.471,0.779-9.338-2.768c0,0,8.771-27.308,2.759-33.549l-4.738-1.351c0,0-0.705-0.141-0.212,0.711
		c0,0,5.374,9.078,1.274,20.711l1.27,0.991l-6.08,16.812c0,0-2.193-0.282-0.776,1.982l-6.561,48.5l6.114-0.008l1.132-17.972
		l2.686-26.908c0.86-1.139,2.13-2.307,3.792-2.418l34.561,2.153v9.424l-10.892,6.664l0.141,0.782
		c-0.917,0.849-8.486,3.12-8.486,3.12c-0.635-1.274-4.738-0.711-4.738-0.711c-3.112-0.494-2.97,1.919-2.97,1.919
		c0.57,3.064,0.315,8.938,0.138,11.863h0.04c-0.336,1.929-1.409,8.725-0.258,10.553c0,0,2.134,1.685,4.151,1.798
		c0,0,6.723,0.516,2.434-4.842c0,0,0.444-5.918,2.256-7.509c0.689-0.964,1.513-2.244,1.214-2.502c0,0,4.878-5.886,9.968-7.448
		l2.265,2.697l4.313-2.982l0.318,22.304l4.704-0.03l0.281-2.271c0,0,4.102-0.427,5.658-0.068c1.557,0.353,6.084,0.423,6.927,0.423
		c0.853,0,8.914-0.354,6.086-3.333c0,0-5.732-1.845-6.365-2.271c-0.639-0.426-7.073-4.541-7.423-4.184c0,0-1.841-2.127,0.631-5.959
		l3.68,1.135c0,0,3.605-8.512,3.964-9.15c0.349-0.636,0.135-1.342,0.916-2.124c0.776-0.782,2.897-5.89,3.464-6.385
		c0,0,7.853-4.113,4.95-9.574c0,0,4.601-5.89,2.265-9.434c0,0-2.547-3.689-9.193-4.468c-6.649-0.783-23.055-4.186-23.055-4.186
		s-1.064-0.426-0.499-1.348c0,0,0.074-1.066,0.353-1.559c0.286-0.498,1.066-0.854,1.066-1.564c0-0.709,0.14-0.635,0.565-0.991
		c0.423-0.356,0.423-0.427,0.776-1.136c0.355-0.71,2.477-6.173,3.043-7.095c0,0,1.085-5.325,1.936-5.703
		C211.671,429.153,214.671,428.642,214.559,424.488z M212.064,465.454c0.707,1.135,6.086,3.974,6.086,3.974
		c-1.063-0.077-6.226,2.621-6.226,2.621L212.064,465.454z M199.834,399.561l5.019-6.452c0,0,0.032-0.04,0.084-0.115
		c0.024,0.276,0.062,0.512,0.13,0.682C205.265,394.211,202.656,396.818,199.834,399.561z M205.927,378.968
		c-0.586-5.269,1.912-4.331,1.912-4.331c0.544-0.03,0.817,1.18,0.817,1.18C207.997,375.93,205.934,379.012,205.927,378.968z"/>
	<path fill="#001E29" d="M696.409,381.349c-0.459-1.279,0.115-1.279-0.689-2.439c-0.816-1.164-1.043-0.58-0.931-2.558
		c0.114-1.977-0.922-1.854-1.735-3.02c-0.812-1.164-1.854-2.789-3.359-5.346c-1.506-2.552-0.811-3.365-1.042-5.107
		c-0.232-1.744-1.389-3.72-2.202-3.835c-0.81-0.117-2.198-0.58-2.198-0.58c-0.465-5.463-1.506-5.809-1.506-5.809
		c-1.041-1.277-7.761-4.298-7.761-4.298l-0.28-1.896c0.178-0.526,0.28-0.893,0.28-0.893c0.462-1.16,0.23-2.094,0.23-2.094
		c3.939-10.221-4.287-14.288-4.287-14.288c-12.854-4.295-13.431,10.688-13.431,10.688c-2.087-2.204-1.393,4.534-1.393,4.534
		c-0.118,3.713,1.507,1.16,1.507,1.16c0.113,1.392-0.114,6.737-0.114,6.737c-1.511-0.004-2.784,1.278-3.478,2.208
		c-0.694,0.931-2.314,2.209-2.897,2.321c-0.577,0.118-2.893,0.464-4.75,1.161c-1.847,0.698-4.633,1.978-6.255,2.206
		c-1.614,0.237-1.967,2.446-2.199,4.07c-0.23,1.624-1.041,3.482-1.502,4.761c-0.468,1.277,0.114,2.906,0,3.831
		c-0.118,0.934-0.581,2.443-0.929,3.837c-0.35,1.395-0.813,4.528-1.392,7.086c-0.577,2.557-0.112,4.417-0.463,5.577
		c-0.346,1.16,0.351,3.364-0.114,4.995c-0.466,1.624-0.696,3.833-1.273,5.569c-0.577,1.75-0.464,5.118-0.577,7.322
		c-0.118,2.209-0.351,4.996-0.351,4.996s0.232,4.65,0.117,7.089c-0.117,2.438-0.464,5.922-0.464,5.922
		c-0.464,1.627,1.157,0.933,1.157,0.933l-0.233,1.624c-0.345,1.744,3.012,6.042,3.012,6.042c1.159,1.507,1.624,0.931,1.624,0.931
		c0.347,0.462,3.125,1.277,3.125,1.277c1.157-0.233-0.231-1.509-0.231-1.509c0.465,0,1.042-0.584,1.042-0.584
		c0.018-0.287-0.025-0.521-0.096-0.727c0.059,0.021,0.096,0.027,0.096,0.027c1.161,0-0.114-7.082-0.114-7.082
		c0.461-0.466,0.811-8.02,0.692-9.992c-0.113-1.975-0.345-4.994-0.231-6.158c0.118-1.161,0.814-2.437,0.927-4.762
		c0.119-2.325,0.346-4.299,0.584-5.577c0.231-1.274,0.231-2.439,0.113-4.063c-0.113-1.627,0.578-2.791,0.578-2.791
		c1.511-3.02,0.696,2.906,0.696,4.18c0,1.283,0.118,4.879-0.351,6.397c-0.458,1.506-0.692,5.573-0.692,5.573l0.579-0.118
		c0,0,0,6.388,0.113,9.177c0.12,2.79,0,3.254-0.577,4.648c-0.579,1.396-0.115,8.13-0.115,8.13l1.857,0.235
		c-0.35,1.043,0.459,11.729,0.573,14.871c0.119,3.134,1.273,10.338,1.162,11.613c-0.12,1.279-0.353,4.649-0.233,7.785
		c0.113,3.137,0.577,5.459,0.695,8.247c0.114,2.788,1.387,9.409,1.273,13.476c-0.116,4.066,0,3.832,1.043,6.39
		c1.042,2.552,4.4,12.663,4.4,12.663l0.464,0.23c-1.156,1.51-1.508,6.158-1.508,6.158c0.813,3.948,9.037,2.089,9.037,2.089
		c2.898-2.325,1.274-5.576,1.274-5.576c0.231-0.463,0.461-2.086,0.345-2.557c-0.113-0.463,0.465-0.931,0.465-0.931
		c2.549,3.374,9.614,2.21,9.614,2.21c1.389-1.161-0.232-2.672-0.232-2.672c-0.349-1.974-3.007-6.969-3.357-7.899
		c-0.349-0.928,0.459-2.67,0.691-4.764c0.236-2.09,1.512-5.809,1.974-7.783c0.461-1.975,1.389-4.763,2.198-7.434
		c0.811-2.671,1.394-6.039,1.972-7.553c0.578-1.506,2.085-7.669,2.085-9.873c0-2.207,0.808-1.977,1.51-3.836
		c0.691-1.855,1.386-4.525,1.386-6.039c0-1.51-0.694-5.229-0.694-5.229s0.346-1.975,0.458-5.227
		c0.115-3.251,0.115-8.945,0.115-8.945l1.159-0.346c0,0,0-2.439-0.232-4.533c-0.226-2.089,0.115-13.822,0-15.566
		c-0.111-1.741-0.111-4.413-0.111-4.413l-1.157-4.764c0,0,0.692-8.135,0.463-10.107c-0.236-1.976,0.465-7.432,0.465-7.432
		c0.341,0.463,1.852,2.557,2.312,3.715c0.463,1.165,0,1.165,0.463,1.627c0.466,0.463,0.817,0.231,1.509,0.929
		c0.694,0.698,3.238,1.278,3.238,1.278c3.71,1.158,7.065-3.136,7.303-4.411C696.88,385.184,696.88,382.628,696.409,381.349z
		 M637.806,432.113c0-0.345-0.345-2.322-0.345-2.322l1.043-0.812c-0.054,1.638,0.302,2.66,0.72,3.295
		C638.53,432.054,637.806,432.113,637.806,432.113z M661.549,363.81c0,0-0.347,2.44-1.042,3.715
		c-0.692,1.277-1.271,3.252-1.157,6.854c0.114,3.602-0.814,4.417-0.814,4.417s-0.923-2.558-2.548-5.577
		c-1.618-3.02-1.851-6.969-2.083-10.224c-0.233-3.255,0.961-8.148,0.961-8.148c0.114-1.975,2.502-2.314,2.502-2.314l-0.219,1.982
		c-3.708,2.321,4.744,5.46,4.744,5.46c-0.922-0.118-3.817,0.113-3.817,0.113C658.075,361.249,661.549,363.81,661.549,363.81z
		 M665.72,367.061c-1.159-1.513-0.23-3.604-0.23-3.604c1.153-0.578,1.97-3.369,1.97-3.369c-0.583,0.467-3.131,0-3.131,0
		c1.62-0.113,6.601-6.304,6.601-6.304C670.353,357.619,665.72,367.061,665.72,367.061z M673.942,349.52
		c-0.459-0.118-1.157,0.696-1.157,0.696c-1.509,1.162,1.039,1.507,1.039,1.507v2.676l-2.311-2.209
		c-0.466-0.93,0.809-2.439,0.809-2.439c0.156,0.104,0.32,0.114,0.48,0.055c0.401-0.15,0.797-0.741,1.14-1.436V349.52z
		 M675.099,353.813l-0.113-1.738c1.156,0.35,3.012,1.51,3.012,1.51C676.955,353.122,675.099,353.813,675.099,353.813z"/>
	<path fill="#001E29" d="M15.298,441.999v5.011h-4.851v58.661h1.323v5.539h5.237v-5.539h37.783v5.539h5.236v-5.539h1.387V447.01
		h-5.095v-5.011h1.57c0,0,5.767-3.75,16.646-2.759v-1.984c0,0-10.549-1.161-16.318,1.651c0,0-1.485-4.796,2.306-5.952
		c0,0,3.957-0.162,3.627-5.617v-20.009c0,0-0.289-1.21-1.135-2.521c2.057-1.355,13.267-8.686,12.994-7.457
		c0,0-4.625,12.132-3.432,14.68c0,0,2.987,0.298,3.886,0.597c0,0-0.156,22.92,0.89,24.868l0.894,0.301c0,0-0.292,14.229,1.05,16.925
		c0,0,0.897,4.045,2.242,5.243c0,0-1.499,9.879-0.15,14.229c0,0,0.447,13.333-0.446,18.121c-0.902,4.8-2.392,7.794-2.538,8.994
		c-0.156,1.195-2.54,5.239-4.782,6.29c-2.239,1.048-5.228,2.396-2.537,3.442c0,0,9.706,1.349,12.091-2.546
		c0,0,3.139-5.243,4.333-4.641c0.3,0.152,0.487,0.226,0.6,0.254v2.748c-0.856,0.467-1.397,1.129-1.044,2.091
		c0,0,0.396,0.092,1.044,0.23v0.968h1.048l0.104-0.749c3.147,0.538,8.719,1.126,10.201-1.195c0,0,2.839-5.697,4.777-5.249
		l0.601,6.444h1.046c0,0,0-5.39,1.34-6.739c0,0,3.288-5.845-0.599-9.143c0,0-1.34-6.291-2.088-11.232
		c-0.749-4.94,0-11.083-0.301-14.529c-0.295-3.446-0.295-9.286-4.033-13.031c-3.733-3.743-2.086-6.895-2.243-8.838
		c-0.142-1.947-0.592-6.44-0.592-6.44l1.494,0.15c0,0-0.902-15.879,0.3-17.378c0,0,4.33-7.038,3.282-8.089l2.393,0.149
		c0,0-1.194-12.281-5.824-15.43c0,0-1.194-1.796-0.896-3.593c0.302-1.8,1.045-2.099,1.346-3.149c0.297-1.046-0.3-0.598-0.3-1.793
		c0-1.199-0.15-1.648,0.893-2.699c1.048-1.048,2.096-0.447,2.539-1.646c0.45-1.197,4.327-10.787,3.289-12.285
		c0,0,1.642,1.201,0.592,3.897c-1.045,2.696,2.845-1.051,0.6-9.29c-2.242-8.237-0.896-8.538-1.79-10.185
		c-0.895-1.648-1.497-4.493-1.344-6.144c0.146-1.647-0.302-11.383-1.793-12.887c-1.494-1.495-2.096-2.242-2.392-2.991
		c-0.253-0.639,0.571-0.948,0.916-0.746c-0.393-0.587-1.612-2.354-3.454-2.699c-2.391-0.453-5.675-1.496-7.02-0.603
		c-1.347,0.904-8.812,3.299-8.662,6.742c0,0-0.304,4.496,1.487,5.546c0,0-1.036,6.438,1.497,5.541c0,0-0.148,3.445,1.646,4.794
		c0,0,1.791,2.546,0.147,4.494c0,0,1.943,0.146,1.943-1.345c0,0,0.147,4.19-1.5,5.84l-4.878,7.278c0,0-7.437,6.94-8.546,9.169
		l-14.453-0.737c0,0-4.186-3.152-6.273-3.602l-6.582-1.311l-0.666-0.512l-29.123,27.613h-3.187c0,0-3.791,0.659-3.791,6.448v21.157
		c0,0,0.331,4.3,4.286,4.3C13.546,433.452,15.298,434.347,15.298,441.999z M89.158,484.979c0,0,4.484-16.78,3.432-20.072
		c0,0,5.232,16.476,4.782,21.869c0,0,0.888,12.582-4.635,19.022c0,0-1.547,0.074-3.044,0.461l0.213-1.507
		c0,0,4.476-6.439-0.599-10.335C89.308,494.417,87.96,488.125,89.158,484.979z M73.371,390.355l-14.798,6.364l0.999,2.04
		c-0.703,0.186-2.252,0.568-3.464,0.616c-1.624,0.06-2.767-0.723-4.33,0.481c0,0-5.502,0.113-5.554,1.689H20.777l24.982-23.229
		c0,0.413,0.195,1.058,1.083,1.946c0,0,4.426,1.338,5.919,1.187c0,0,1.792,0.749,1.642,1.646c0,0,0.18,4.057,1.077,5.702
		L73.371,390.355z M18.725,441.999h34.167v5.011H18.725V441.999z"/>
	<path fill="#001E29" d="M810.227,285.828v231.085h3.044v-3.488h26.085v3.488h3.041V285.828h-3.041v3.923h-26.085v-3.923H810.227z
		 M839.355,335.97v4.408h-13.196v2.513h-7.512v2.23h-3.062v11.861h-1.529v22.587h-0.786V335.97H839.355z M839.355,382.187v2.142
		h-13.058v4.603H816.7v12.559h-2.363v23.864h-1.066v-43.167H839.355z M813.271,434.696v-6.728h26.085v6.728H813.271z
		 M839.355,292.372v2.792l-13.613-0.128v3.068h-10.017v10.602h-1.112v24.648h-1.343v-40.981H839.355z M813.271,510.81v-42.293
		h26.085v5.246h-12.223v2.37h-9.878v12.976h-2.085v21.701H813.271z"/>
	<g>
		<path fill="#001E29" d="M761.766,497.279c0,0,1.089,0.883,2.419,2.552s4.493,4.594,6.657,5.926
			c2.166,1.338,2.583,2.507,1.085,3.926c-1.499,1.416-13.85,5.57-17.263,0.893c0,0-1.249-0.584-2.58-1.004
			c-1.332-0.415-2.664-2.085-2.25-4.173c0.418-2.086-0.511-5.437,0.488-5.603c0,0,0.832-3.424,0.083-3.424l-2.665-0.418
			c0,0,2.159-20.644,3.303-27.528c1.143-6.886-0.752,2.074,0.507-1.941c1.259-4.014,0.573-3.67,1.259-5.965
			c0.688-2.293-0.229-5.618,0.688-7.914c0.913-2.293,0.228-5.047,0.113-8.376c-0.113-3.329-0.572-8.604,0.114-11.586
			c0.686-2.98-1.601-9.521-0.228-12.275l-2.518-1.146c0,0,5.833-14.8,6.521-19.847c0.686-5.048-0.803-10.901-3.433-15.259
			c-2.631-4.359-4.803-11.928-4.916-17.206c-0.117-5.279,1.256-9.179,4.916-11.702c0,0,1.603-0.687,2.631-0.344l1.602-2.866
			c0,0,0.343-1.265,0.914-0.92c0,0,0.804-1.26-1.6-4.242c0,0-5.836-5.048-2.631-7.458c0,0-4.003-13.306,6.75-13.766
			c0,0,9.835-1.264,10.293,7.572c0,0,0.113,2.983-0.459,4.015c0,0,1.26,2.523,0.459,5.391c0,0-0.8,2.754-0.459,4.474
			c0,0,0.572,4.243-2.401,4.816c0,0,0.914,0.919,1.488,1.031c0.572,0.119,1.145,3.33,1.145,3.33s3.773,1.723,6.062,5.39
			c0,0,5.487-5.275,6.061-4.932c0,0,1.488-1.146,1.373-4.129c0,0-0.803-4.13-0.803-5.161c0-1.037,0.347-4.016,1.032-4.934
			c0.687-0.919,3.088-2.524,4.916-2.41c1.834,0.113,4.12,0.689,3.547,3.556c-0.571,2.868-1.713,3.788-1.944,5.507
			c-0.229,1.72,0.916,5.736-1.716,7.458c0,0-1.371,3.783-1.601,4.588c0,0,2.631,2.638,1.488,5.736l-5.949,5.851
			c0,0,0.114,4.931-1.146,11.703c-1.258,6.766,1.833,12.042,2.52,15.257c0.657,3.09,3.434,14.033,2.832,19.254
			c-0.024,0.207-0.053,0.401-0.089,0.587l-3.544,0.465c0,0,1.828,3.784,0.571,12.5c-1.259,8.723-2.976,11.818-4.005,17.437
			c-1.029,5.625-1.944,12.164-3.661,15.49c-1.713,3.324-2.4,15.599-2.974,19.271c-0.57,3.672-0.043,10.283-0.043,10.283l-0.8,0.347
			c0,0,0.5,1.873,1.416,2.449c0,0,2.516,0.229,4.117,2.292c0,0,2.745,3.902,7.893,4.36c0,0,6.475,1.121,3.159,3.528
			c0,0-8.722,3.359-16.084-0.662c0,0-2.516,0-3.087,0.69l-6.292,0.113c0,0-3.63-3.823-2.142-8.411c0,0,0.343-0.92,0.685-0.688
			c0,0-0.161-2.472-0.045-3.16c0,0-1.612,0.162-1.843-0.983c0,0,1.401-16.469,2.2-19.794c0,0,1.104-3.317,1.104,2.873
			c0,6.197-2.545,17.917-2.545,17.917l-1.257,0.347L761.766,497.279z"/>
		<polygon fill="#001E29" points="817.5,344.982 807.821,307.562 785.295,315.859 791.807,351.334 		"/>
	</g>
	<rect x="0.576" y="508.447" fill="#001E29" width="841.525" height="55.28"/>
	<path fill="#001E29" d="M357.172,363.078c0,0-6.924-14.11-9.954-13.46c0,0-1.729-3.905-1.514-4.985
		c0.217-1.091,2.594-6.073-1.08-6.947l-4.541-1.326c0,0,0.09-0.515,0.175-1.363c1.58-0.147,0.837-2.153,0.177-3.458
		c0-2.131-0.191-4.725-0.886-7.267c0,0-6.026-12.495-17.811-1.212c0,0-3.62,6.58,1.034,14.625c0,0,1.731,4.772,0.651,5.643
		c-1.081,0.867-2.595,2.821-4.545,3.689c-1.946,0.87-7.356,2.171-9.3,1.954c-1.947-0.218-3.899,0.217-3.899,0.217
		s-3.674,9.981-4.757,15.4c-1.08,5.43-1.085,8.035-1.295,11.068c-0.218,3.038-0.65,10.636-0.435,12.803
		c0.216,2.171,3.027,18.446,4.763,20.401l1.729-0.653l0.648,1.084l1.515-0.65c0,0,1.731,4.336,3.245,5.427l0.652,11.062
		c0,0,0.431,4.122-1.085,8.685c-1.512,4.549,0,10.407-0.217,14.313c-0.212,3.905-3.677,15.188-4.544,17.574
		c-0.866,2.386-2.595,15.626-2.38,19.53c0.218,3.902-0.643,7.812-0.432,9.979c0.217,2.175,1.95,4.997,2.17,6.733
		c0.211,1.729-3.903,9.324-0.224,9.324c3.681,0,9.949-0.214,9.949-0.214s1.086-4.992,0.219-6.076c0,0,6.059-6.946,2.164-9.985
		c-3.892-3.031-1.731-2.381-0.863-5.203c0.863-2.82,3.03-8.248,3.03-10.852c0-2.6,0.214-10.628,0.648-13.884
		c0.433-3.254,2.595-11.938,4.759-18.229c2.165-6.288,4.542-13.449,4.542-15.403s0.868-3.689,0.868-3.689s1.085,5.21,1.085,6.291
		c0,1.083,1.509,10.201,0.861,13.021c-0.654,2.82,1.512,14.756,1.085,16.488c-0.438,1.735-1.3,2.173-1.739,4.558
		c-0.429,2.391-0.429,10.848-0.645,13.669c-0.219,2.826-1.946,3.256-1.946,5.64c0,2.391-0.65,2.821-1.515,4.993
		c-0.868,2.171,0.648,10.631,0,11.719c-0.649,1.083-1.083,6.723,1.729,6.51c2.815-0.217,8.867-0.653,10.169,0
		c1.298,0.647,14.277,0,12.112-2.821c-2.162-2.821-2.808-1.95-4.757-1.95c-1.945,0-3.677-0.435-4.542-1.954
		c-0.866-1.521-0.217-2.385-0.217-4.343c0-1.954,4.326-24.732,3.03-33.409c-1.299-8.685-1.299-3.692-0.432-8.899
		c0.865-5.209,1.297-14.103,1.728-19.749c0.434-5.643,2.814-17.139,1.946-18.657h3.245c0,0-0.861-16.061-3.025-21.264
		c-2.166-5.206-2.166-9.115-2.814-11.502c-0.648-2.388-0.215-13.888-0.215-13.888s11.032,4.993,13.847-0.646
		C359.335,371.54,362.363,369.148,357.172,363.078z M310.44,393.881c0,0-0.863-1.518-1.08-3.035
		c-0.215-1.518-0.649-5.431-0.649-5.431s-0.218-1.079,0.218-1.943c0.432-0.87,2.381-8.464,2.381-8.464
		S314.767,385.415,310.44,393.881z M331.069,409.044l-3.226-2.771c2.871-35.312,0-55.265,0-55.265l1.997-2.468l2.456,2.003
		l-1.107,2.035l3.256,53.23L331.069,409.044z M342.244,350.918c-1.082,0.654-6.274-1.517-6.274-1.517l-1.085-3.688
		c0,0,2.165-1.521,2.6-2.609c0,0,1.946,4.126,3.459,4.343C342.458,347.663,343.327,350.269,342.244,350.918z"/>
	<g>
		<path fill="#001E29" d="M499.22,487.326c-1.117-0.639-2.397-1.921-4.153-2.88c-1.755-0.964-3.994-6.089-7.188-11.051
			c-3.191-4.967-6.387-19.059-6.387-19.059c3.514-4.002-1.755-7.365-1.755-7.365c-0.321-1.281-5.592-14.575-5.592-14.575
			c-1.432-4.646-4.148-3.042-6.225-3.524c-2.078-0.477-4.028,0.247-8.036,0.247c-0.157,0-1.732,0.14-1.575-0.029
			c3.215-3.44,3.762-10.565,3.762-10.565c0.182-3.835-11.236-19.761-11.236-19.761c-2.074-4.804-8.305-3.521-8.305-3.521
			c-1.278-0.643-3.031-0.963-3.031-0.963c-0.801-0.958-1.598-6.246-1.598-6.246c1.115-1.28,1.759-5.285,1.759-5.285
			c0.797-1.121,0.797-5.441,0.797-5.441c0.157-4.324-4.633-8.171-4.633-8.171c-8.146-4.644-12.296,2.241-12.617,3.203
			c-0.316,0.959,0.321,1.922-0.154,2.723c-0.483,0.801,0.316,5.287,0.316,5.287c-0.8,0.32,1.438,3.681,1.438,3.681
			c0,1.764,3.829,5.609,3.829,5.609c0.961,3.2-2.234,6.563-2.234,6.563s0,0-0.635-0.32c-0.642-0.319-0.642-0.161-0.642-0.161
			c-0.8,1.124-3.99,2.884-3.99,2.884c-2.236,0.48-2.398,2.401-2.398,2.401c-8.022-3.452-7.18,2.737-7.18,2.737
			c3.801,20.729,2.657,44.646,2.657,44.646c-0.191,1.187-0.654,7.84-0.59,8.367c0.068,0.526,1.969,0.593,2.759,0.328
			s1.774-0.592,1.774-0.592c0.326,0.395,2.888,0.526,2.888,0.526c1.311,1.517,10.9,0.59,10.9,0.59
			c-0.198,0.199,0.919,0.53,0.919,0.53c6.305-0.397,7.226,3.356,7.226,3.356l2.755,0.067l0.657,1.184l0.721,0.265l0.326,9.944
			l-1.373,0.326l0.061,0.596l0.199,0.261l0.267,13.501c-0.857,0.133-1.976,1.186-1.976,1.186c-0.083,0-0.171,0.004-0.259,0.009
			c-10.875,0.313-25.807,12.043-25.807,12.043c-0.788,0.39,0.986,1.119,0.986,1.119l-0.199,0.465
			c-4.206,0.984-2.824,3.685-2.824,3.685c1.185,3.688,4.072,1.911,4.072,1.911c2.361-0.066,2.361-2.113,2.361-2.113
			c0.331-0.588,0.197-3.482,0.197-3.482c-0.064-0.265-0.658-0.198-0.658-0.198l0.2-0.464c0.858-0.331,0.659-2.373,0.659-2.373
			c2.622-2.105,9.781-4.148,9.781-4.148l0.196,0.856l1.117,0.595c-0.524-0.065-1.708,0.456-1.708,0.456
			c-2.233,3.427,0.723,5.471,0.723,5.471c1.245,0,1.182-1.848,1.182-1.848l0.526,0.069c-0.395,0.591,0.855,1.452,0.855,1.452
			c1.834-0.333,1.376-3.429,1.376-3.429l-0.264-1.58c-0.063-0.592-1.377-0.592-1.377-0.592l0.197-0.268l1.116-0.193l0.261-2.238
			c1.576-1.385,6.961-1.253,6.961-1.253c-0.132,0.33,1.837,1.187,1.837,1.187c-1.181,2.437-1.377,10.073-1.377,10.073
			c-0.196,0.856,0.853,0.856,0.853,0.856l0.464,0.524c-0.53,0.067-0.988,0.79-0.988,0.79v1.19c-1.052,3.557,1.576,4.084,1.576,4.084
			c0.523,0.063,0.854-1.255,0.854-1.255c0.522,0,0.983-0.394,0.983-0.394c-0.063,1.648,1.381,1.579,1.381,1.579
			c2.295-0.458,0.788-5.135,0.788-5.135c-0.136-0.989-2.103-0.86-2.103-0.86v-0.524c0.459-0.062,0.724-0.726,0.724-0.726
			c-0.79-0.985,1.114-9.94,1.114-9.94c1.969,0.067,3.68-1.582,3.68-1.582c0.167-0.017,0.679,0.025,1.33,0.089
			c-0.056,0.068-0.087,0.105-0.087,0.105c-0.394,0.268-0.192,2.571-0.192,2.571c0.263,1.978-1.187,5.732-1.187,5.732l1.051,1.12
			l1.644-0.335l1.115-2.237c0.721,0,2.1,6.851,2.1,6.851c0.137,3.486,3.149,4.74,3.149,4.74c3.615,2.635,6.373,1.712,6.373,1.712
			c2.296-0.86,0.064-3.754-0.461-4.805c-0.526-1.056-0.983-1.782-1.117-2.569c-0.131-0.788-0.198-9.816-0.198-9.816
			c1.054,0,5.915,2.438,5.915,2.438c0.982,0.265,0.787,2.044,0.787,2.044c-0.131,0.592,2.034,0.981,2.034,0.981
			c-0.525-0.124-1.643,0.334-1.643,0.334l-0.132,0.988c-1.047,3.227,0.723,4.611,0.723,4.611c0.921,0.457,1.248-1.316,1.248-1.316
			c0.197,0.134,0.986-0.136,0.986-0.136c-0.638,1.279,1.603,1.597,1.603,1.597c2.394-1.917-0.8-6.082-0.8-6.082
			c-0.803-2.885-10.7-8.811-10.7-8.811c0-4.963,6.868-34.43,6.868-34.43c0.319,1.921,8.302,14.731,8.781,16.009
			c0.479,1.287,0.957,1.61,0.159,3.208c-0.798,1.603-1.119,6.565-1.119,6.565c1.756,0.962,4.314,7.046,4.314,7.046l2.395-1.278
			c-2.077-4.166,2.873,1.922,2.873,1.922c2.074,1.278,8.622-0.644,10.699-1.602C501.773,488.929,500.334,487.971,499.22,487.326z
			 M448.489,487.506l-0.393-13.302l0.393-0.525l-0.131-0.397l-1.247-0.261l-0.065-9.878c0.196,0.132,0.66-0.597,0.66-0.597
			c0.064-1.442,0.918-1.314,0.918-1.314l0.326,1.977c-0.461,0-0.392,0.786-0.392,0.786l0.981,5.405
			c-0.065,0.728,1.118,0.728,1.118,0.728l3.874-0.663c1.115-0.264,0.92-0.595,0.92-0.595l-0.593-5.661
			c-0.132-1.054-0.922-0.79-0.922-0.79l-0.392-1.844c1.443-0.065,1.182-0.724,1.182-0.724l3.939-0.062
			c-1.114,0.785-1.315,8.621-0.852,12.505c0.455,3.887-0.72,17.256-0.72,17.256c-0.441,0-0.89,0.132-1.322,0.33
			c-2.147-0.394-4.002-0.458-4.002-0.458C451.578,488.035,448.489,487.506,448.489,487.506z"/>
		<path fill="#001E29" d="M462.844,439.832v4.685h8.897v72.396h2.225v-57.858l16.254-14.538h89.812l16.5,14.762v57.635h2.226
			v-72.396h8.899v-4.685H462.844z M584.065,444.517h12.466v11.543L584.065,444.517z M473.966,455.832v-11.315h12.218
			L473.966,455.832z"/>
		<path fill="#001E29" d="M501.739,418.578c0.173,2.029,0.173,4.06,0.968,5.735c0.792,1.68,0.26,0.529,0.175,2.204
			c-0.088,1.679,0.438,2.742,1.761,4.505c1.321,1.767,2.461,7.586,2.461,7.586s0.265,0.534,0.265-0.173
			c0-0.705,1.41-1.236,1.41-1.236l0.612,0.531l-0.612,0.795c-1.41,1.145,2.287,5.469,2.287,5.469l-0.79,0.704c0,0,0,0-0.97,0.355
			c-0.97,0.352-2.552,3.794-3.962,4.76c-1.402,0.978-0.966,2.123-0.966,3.271c0,1.145,1.144,4.415,1.759,8.207
			c0.617,3.795,7.833,15.704,8.713,17.558c0.879,1.851,3.168,10.767,3.077,12.183c-0.089,1.405,2.286,0.703,2.286,0.703
			c1.587-0.091-0.875,5.292-0.875,5.292c-6.604,3.09-4.224,6.884-4.224,6.884c0.142,0.394,1.188,0.463,2.699,0.335
			c-1.52,3.806,1.348,3.46,1.348,3.46c-1.937,0.618-0.967,4.058-0.967,4.058c2.107,3.617,2.812,0.179,2.812,0.179l1.146,0.09
			c0,1.85,1.672,1.232,1.672,1.232c1.406-3.086-1.06-5.738-1.06-5.738c-0.965-0.528,0.442-1.055,0.442-1.055l19.62-2.119
			l0.265,1.499c0.44,0.53,4.662,0.265,4.662,0.265s0.085,0.176,0.085-0.614c0-0.103,0.136-0.131,0.366-0.109
			c1.618,0.161,8.084,2.932,8.084,2.932v0.529c-1.263,0-0.455,2.516-0.174,3.298c0.025,0.174,0.054,0.367,0.087,0.584
			c0.615,4.146,5.544,1.41,5.544,1.41c3.344-4.322-2.553-5.558-2.553-5.558c-1.848-0.176-0.178-0.531-0.178-0.531
			c0.714-0.501-0.259-3.164-0.643-4.142c1.163,0.146,2.073,0.143,2.404-0.004c0.152-0.07,0.277-0.179,0.374-0.324l12.734,0.149
			c1.67-0.089,1.319,0.793,1.319,0.793c-1.319,0.973,1.233,3.527,1.233,3.527c2.023,4.239,4.485,0.531,4.485,0.531
			c2.11-4.148-3.077-4.588-3.077-4.588c0.526-0.528,0.089-2.47,0.089-2.47c-0.354-1.503-1.412-1.503-1.412-1.503l-12.404-0.616
			c-1.18-0.07-2.27-0.144-3.273-0.224c-0.146-0.419-0.293-0.775-0.42-1.011c-0.618-1.149,0.44-4.412,0.44-4.412
			c1.054,0.705,3.517-0.618,3.517-0.618s0.881,0.883,0.353,0c-0.527-0.884,3.168-11.562,3.168-11.562
			c2.992-2.821,11.792-18.528,11.792-18.528c3.956-9.796-2.027-17.122-2.027-17.122c-0.526-1.675,2.729-8.912,2.729-8.912
			c0.263-1.943-1.584-1.409-1.584-1.409c2.376-1.239,3.432-5.561,3.96-6.53s-0.089-1.586-0.705-2.385
			c-0.613-0.793-0.176-4.234-0.438-6.438c-0.263-2.205-1.673-6.092-2.463-8.917c-0.793-2.822-2.902-7.939-3.081-9.086
			c-0.176-1.15,0.528-3.799,0.179-5.033c-0.354-1.231-1.409-1.411-3.697-2.203c-2.288-0.791-8.269-3.619-10.03-4.678
			c-1.759-1.059-3.521-1.233-4.136-1.322c-0.616-0.089-1.055-0.97-1.055-0.97c0.354-0.621,0.702-2.649,0.702-2.649
			c3.078-3.968,2.024-7.502,2.024-7.502c1.145-10.059-3.165-11.207-3.165-11.207c-7.48-5.737-14.694,0.797-14.694,0.797
			c-3.521,3.001-2.289,10.146-2.289,10.146c-2.199,0.441,0.968,6.794,0.968,6.794c-0.175,0.532,0.705,2.027,0.705,2.027
			c-0.88-0.261-4.052,0.71-4.93,1.065c-0.878,0.35-8.62,0.529-8.62,0.529c-5.632,0.617-5.179,3.583-5.179,3.583
			s-2.406,1.286-3.374,2.082c-0.966,0.795-1.582,1.323-3.077,2.999c-1.5,1.678-0.249,2.1-1.835,2.542
			c-1.581,0.439-5.63,2.824-6.685,4.146c-1.054,1.327-3.255,2.65-4.398,2.91c-1.146,0.268-1.056,3.093-1.672,4.506
			c-0.614,1.409,0.616,3.26-0.088,4.054C501.032,415.666,501.563,416.547,501.739,418.578z M548.195,470.816
			c3.254-0.173,3.079-1.94,3.079-1.94c0.79,0.09,6.601-0.524,6.601-0.524s-0.266,4.146-0.529,5.202
			c-0.267,1.058-0.177,2.296-0.177,3.707c0,1.41-0.09,1.15-1.409,1.852c-1.318,0.709-1.318,2.561-1.318,3.623
			c0,1.057-0.88,2.91-1.055,3.878c-0.176,0.971-0.441,1.327-0.881,2.209c-0.441,0.882,0,2.645-0.616,3.703
			c-0.615,1.063-1.234,2.207-1.234,2.207c0.132,0.865-0.379,2.124-0.643,2.694c-1.055-0.434-1.025-0.752-1.025-0.752v-12.529
			c-0.441-0.18-0.613-1.41-0.613-1.41L548.195,470.816z M526.023,467.021c2.546,2.209,14.428,2.119,14.428,2.119
			c-0.177,1.322,2.462,1.765,2.462,1.765l-0.086,11.741c0,0.528-0.354,1.407-0.354,1.407l-0.352,12.355
			c-0.617,0.528-0.703,1.327-0.703,1.327l-8.299,2.262c0.086-3.178-2.561-10.853-2.875-11.885c-0.353-1.149-0.704-5.911-0.704-6.617
			c0-0.705-0.612-2.12-1.318-2.825c-0.706-0.708,0-0.789,0.088-1.852c0.086-1.057-0.88-0.705-1.057-1.679
			C527.075,474.168,526.023,467.021,526.023,467.021z M513.616,417.077c0,0,0.441,0.092,1.233-0.349
			c0.791-0.445,2.023-1.944,2.814-3.175c0.794-1.242,4.221-3.799,4.221-3.799c0.354,0.973,0.88,13.854,0.09,16.415
			c-0.793,2.56-0.969,7.677-0.969,7.677s0,1.324-0.438,0.265c-0.438-1.062-2.024-1.502-2.814-2.384
			c-0.792-0.881-0.88-1.326-1.498-2.468c-0.614-1.147-1.054-0.883-1.141-1.68c-0.092-0.793-0.178-2.296-0.706-3.442
			s-0.528-0.352-1.229-1.587C512.474,421.315,513.616,417.077,513.616,417.077z"/>
		<path fill="#001E29" d="M426.311,368.916c0,0-7.452,2.18-3.725,15.573c1.552,6.853,4.035,11.212-3.107,14.327
			c1.865,1.558,1.865,1.558,1.865,1.558s14.594-5.606,14.285-6.541C435.316,392.898,426.311,368.916,426.311,368.916z"/>
	</g>
</g>
<g>
	<path d="M1340.436,57.752h-390.5c-6.627,0-12,5.373-12,12v376.417l-40.914,41.809l40.914-18.832v56.023c0,6.627,5.373,12,12,12
		h390.5c6.627,0,12-5.373,12-12V69.752C1352.436,63.125,1347.063,57.752,1340.436,57.752z"/>
	<linearGradient id="SVGID_1_" gradientUnits="userSpaceOnUse" x1="1144.6855" y1="28.061" x2="1144.6855" y2="115.069">
		<stop  offset="0" style="stop-color:#FFFFFF"/>
		<stop  offset="0.1231" style="stop-color:#C4C4C4"/>
		<stop  offset="0.2464" style="stop-color:#909090"/>
		<stop  offset="0.3718" style="stop-color:#646464"/>
		<stop  offset="0.4972" style="stop-color:#404040"/>
		<stop  offset="0.6225" style="stop-color:#242424"/>
		<stop  offset="0.7479" style="stop-color:#101010"/>
		<stop  offset="0.8736" style="stop-color:#040404"/>
		<stop  offset="1" style="stop-color:#000000"/>
	</linearGradient>
	<path fill="url(#SVGID_1_)" d="M1351.436,96.063V68.774c0-6.627-5.373-12-12-12h-389.5c-6.627,0-12,5.373-12,12v27.289H1351.436z"
		/>
	<text transform="matrix(1 0 0 1 1028.3105 84.355)" fill="#E8902A" font-family="'Myriad-Bold'" font-size="19.5814">HOW TO USE THIS VECTOR?</text>
	<rect x="959.436" y="106.309" fill="none" width="383.666" height="425.696"/>
	<text transform="matrix(1 0 0 1 959.4346 114.1177)"><tspan x="0" y="0" fill="#C9C9C9" font-family="'Myriad-Roman'" font-size="11">This vector graphic has been </tspan><tspan x="133.227" y="0" fill="#C9C9C9" font-family="'Myriad-Roman'" font-size="11" text-decoration=" underline">designed and brought to you by </tspan><tspan x="0" y="15.2" fill="#C9C9C9" font-family="'Myriad-Roman'" font-size="11" text-decoration=" underline">VectorOpenStock.com</tspan><tspan x="102.912" y="15.2" fill="#C9C9C9" font-family="'Myriad-Roman'" font-size="11">. This work is given away for free, in exchange we ask some </tspan><tspan x="0" y="30.4" fill="#C9C9C9" font-family="'Myriad-Roman'" font-size="11">simple rules to be respected. First, the design is </tspan><tspan x="217.66" y="30.4" fill="#C9C9C9" font-family="'Myriad-Roman'" font-size="11" text-decoration=" underline">Under Creative Commons 3.0 </tspan><tspan x="0" y="45.601" fill="#C9C9C9" font-family="'Myriad-Roman'" font-size="11" text-decoration=" underline">Attribution License</tspan><tspan x="87.37" y="45.601" fill="#C9C9C9" font-family="'Myriad-Roman'" font-size="11"> which allows you to use this even commercially as long as you </tspan><tspan x="0" y="60.801" fill="#C9C9C9" font-family="'Myriad-Roman'" font-size="11">credit us for the creation. More instructions can be red here: </tspan><tspan x="0" y="76" fill="#E8902A" font-family="'Myriad-Roman'" font-size="11">www.vectoropenstock.com/terms-and-conditions/</tspan><tspan x="232.772" y="76" fill="#C9C9C9" font-family="'Myriad-Roman'" font-size="11"> </tspan><tspan x="0" y="106.4" fill="#C9C9C9" font-family="'Myriad-Roman'" font-size="11">If you are going t</tspan><tspan x="77.514" y="106.4" fill="#C9C9C9" font-family="'Myriad-Roman'" font-size="11" text-decoration=" underline">o repost or publish this graphic resource in your site</tspan><tspan x="314.589" y="106.4" fill="#C9C9C9" font-family="'Myriad-Roman'" font-size="11"> you MUST </tspan><tspan x="0" y="121.601" fill="#C9C9C9" font-family="'Myriad-Roman'" font-size="11">take into account the following: </tspan><tspan x="0" y="152" fill="#C9C9C9" font-family="'Myriad-Roman'" font-size="11">-Keep our brand stripe in the jpg preview (never place your logo over our design, </tspan><tspan x="0" y="167.2" fill="#C9C9C9" font-family="'Myriad-Roman'" font-size="11">that would be considered copyright infringement)</tspan><tspan x="0" y="182.4" fill="#C9C9C9" font-family="'Myriad-Roman'" font-size="11">-You should place a link in your post to the vector in our site (you can easily find it in </tspan><tspan x="0" y="197.601" fill="#E8902A" font-family="'Myriad-Roman'" font-size="11">http://www.vectoropenstock.com/our-vectors)</tspan><tspan x="0" y="212.801" fill="#C9C9C9" font-family="'Myriad-Roman'" font-size="11">-We should be credited as authors with a backlink and you should clearly state that </tspan><tspan x="0" y="228" fill="#C9C9C9" font-family="'Myriad-Roman'" font-size="11">we are the authors</tspan><tspan x="0" y="243.201" fill="#C9C9C9" font-family="'Myriad-Roman'" font-size="11">-Don&apos;t copy our description or keywords, came up with your own text. Copying </tspan><tspan x="0" y="258.4" fill="#C9C9C9" font-family="'Myriad-Roman'" font-size="11">description and tags would be considered copyright infringement.</tspan><tspan x="0" y="273.601" fill="#C9C9C9" font-family="'Myriad-Roman'" font-size="11"> </tspan><tspan x="0" y="288.8" fill="#C9C9C9" font-family="'Myriad-Roman'" font-size="11">If you ever find a site infringing our copyrights or violating any of the above stated </tspan><tspan x="0" y="304" fill="#C9C9C9" font-family="'Myriad-Roman'" font-size="11">conditions we will be thankful with you to be informed </tspan><tspan x="0" y="319.201" fill="#C9C9C9" font-family="'Myriad-Roman'" font-size="11">at </tspan><tspan x="11.274" y="319.201" fill="#E8902A" font-family="'Myriad-Roman'" font-size="11">http://www.vectoropenstock.com/contact</tspan><tspan x="0" y="349.601" fill="#C9C9C9" font-family="'Myriad-Roman'" font-size="11">Enjoy vector and life!</tspan><tspan x="0" y="364.8" fill="#C9C9C9" font-family="'Myriad-Roman'" font-size="11">Peace and LOVE!</tspan><tspan x="0" y="380" fill="#C9C9C9" font-family="'Myriad-Roman'" font-size="11">  </tspan><tspan x="0" y="395.201" fill="#E8902A" font-family="'Myriad-Roman'" font-size="11">Vector Open Stock Team</tspan></text>
</g>
</svg>
