<?xml version="1.0" encoding="utf-8"?>
<!--Designed by Vexels.com - 2018 All Rights Reserved - https://vexels.com/terms-and-conditions/-->
<svg version="1.1" id="Layer_1" xmlns="http://www.w3.org/2000/svg" xmlns:xlink="http://www.w3.org/1999/xlink" x="0px" y="0px"
	 viewBox="-80 -320 1600 1016" style="enable-background:new -80 -320 1600 1016;" xml:space="preserve">
<style type="text/css">
	.st0{fill:#BCBDC2;}
	.st1{fill:#211915;}
	.st2{fill:#FFFFFF;}
	.st3{fill:#FFFFFF;stroke:#211915;stroke-width:0.9488;stroke-miterlimit:10;}
	.st4{fill:#29597D;}
	.st5{fill:#ED3551;}
	.st6{fill:#8FBDC5;}
	.st7{clip-path:url(#SVGID_2_);}
	.st8{fill:#955848;}
</style>
<g>
	<g>
		<polygon class="st0" points="571.7,429.8 571.7,302 427.6,302 427.6,222 339.5,222 339.5,394.1 98.1,394.1 98.1,287.3 55.4,287.3 
			55.4,394.1 30,394.1 30,429.8 		"/>
		<path class="st0" d="M986.4,319.5v101.9h215v-4.6h161.4v4.6h48V243.3h-48v49.4l-41.4-19.3v-2c0-0.6-0.7-0.6-0.7-0.6v-7.9h3.2
			l1.2-5.9c0.3-0.6-0.4-1.2-0.4-1.2l-10.5-4h-7.4l-9.3,3.7c-1.1,0.4-0.9,1.1-0.9,1.1l0.4,4.9c0.4,0.1,0.4,1.4,0.4,1.4h3.5v8
			c-0.4,0.2-0.5,0.6-0.5,0.6v1.9l-49.6,23h34.9v-4.9h8.6v0.4l0.4-0.1c0,0,8.3-6.9,9.6-15.6h-1v-1.9h1.2v-1.5h2.2c0,0,1,1,1.9,0.1
			v-0.7h0.4v-0.5c0,0-1.8-1.4-1.1-2.5c0,0,0.9-1.4,2.4,0.1c0,0-0.6-0.7,0.1-1.1h-0.3V267h1.2v1.2h-0.3c0.7,0.4,0.1,1.1,0.1,1.1
			c1.5-1.4,2.4-0.1,2.4-0.1c0.7,1.1-1.1,2.5-1.1,2.5v0.5h0.4v0.7c0.9,0.9,1.9-0.1,1.9-0.1h2.2v1.5h1.2v1.9h-1
			c1.3,8.7,9.6,15.6,9.6,15.6l0.4,0.1v-0.4h8.6v4.9h27v0.5h-113.1l-15.8,7.3l3,2.6v1.6l5.3,6.2v34.7h-0.6v-2l-2.8-2.9h-2.2v-1.1
			l-6.4-5.5l-0.9-4.7l-0.6,4.8l-6.3,5.1v1.6h-5.3v1.6h-1.3l-1.3-1h-5.5v-23.2c-2-1.8-14-2.1-14-2.1l-0.5-6.5
			c-1.3-1.2-3.9-1.7-3.9-1.7l-0.3-10.6l-0.9,10.9c-2.4,0.2-3.9,1.1-3.9,1.1l-0.6,6.9c-2.6,0.2-4.3,0.7-5.4,1.2v54.4h-65.8v-80
			l-0.9-0.5l-7.1-20.7l-1.2,5.5v-9.9c0,0,0.4-1.6,1.6-0.8c0,0,0.3-1.4-0.7-1.6c0,0-0.6-1.2-1.6-1.4v-9l0.3-1l-3.6-15.7
			c0,0,1.3-0.4,0.4-1.4c0,0,0.3-2.6-1-1.4c0,0-1.1-1.1-1.1,0.4c0,0-0.7,0.3-0.1,1.1c0,0-0.7,0.8,0.3,1.4l-1.3,11l-0.8-10.3h-2
			l-12.4-82.1l-6.5,82.2h-2.7l-0.2-0.9c0,0,1.7-1,0.5-1.6c0,0-0.1-2.6-1-1c0,0-1-1.4-1.1,0.3c0,0-0.8,0.1-0.3,1c0,0-0.4,1.4,0.6,1.4
			l-2.2,15.4l0.3,1.4v5.6l-1.5,14.6v26.5h-6.1l-5.3-8l0,0v-1.1c0,0,0.9-3.7-5.3-8.1c0,0.1,0,0.2,0,0.3l-0.2-0.4
			c0.1,0,0.1,0.1,0.2,0.2c0-0.7-0.1-1.6-0.4-2v-1.7h1.2v-1h-1.3v-1.8h-1.3v1.8h-1.3v1h1.2v1.7c-0.3,0.5-0.4,1.5-0.4,2.2l-0.2,0.3
			c-5.4,4.2-4.6,7.6-4.6,7.6s-0.2,0.4-0.4,1l-5.3,8.1h-6.1v-26.5l-1.5-14.6v-5.6l0.3-1.4l-2.2-15.4c1-0.1,0.6-1.4,0.6-1.4
			c0.5-1-0.3-1-0.3-1c-0.1-1.7-1.1-0.3-1.1-0.3c-0.9-1.6-1,1-1,1c-1.2,0.6,0.6,1.6,0.6,1.6l-0.2,0.9h-2.7L1019,159l-12.4,82.1h-2
			l-0.8,10.3l-1.3-11c1-0.6,0.3-1.4,0.3-1.4c0.6-0.7-0.1-1.1-0.1-1.1c0-1.5-1.1-0.4-1.1-0.4c-1.2-1.2-1,1.4-1,1.4
			c-0.9,1,0.4,1.4,0.4,1.4l-3.5,15.7l0.3,1v9c-1,0.1-1.6,1.4-1.6,1.4c-1,0.1-0.8,1.6-0.8,1.6c1.2-0.8,1.6,0.8,1.6,0.8v9.9l-1.2-5.5
			l-7.1,20.7l-2.5,1.3v1.1l0.7,0.8v15l-0.2,0.4v-2.1l-0.5-0.5L986.4,319.5l0.2-0.2v-5.1l0.3-0.5v9.7l-0.5,0.4L986.4,319.5
			L986.4,319.5z M1306.5,255.9v7h-3.8v-7c0-1.1,0.9-1.9,1.9-1.9C1305.6,254,1306.5,254.9,1306.5,255.9L1306.5,255.9z M1312.6,261.7
			l-1.8-1.2l-2.1,1.2v-5.8c0-1.1,0.9-1.9,1.9-1.9c1.1,0,1.9,0.9,1.9,1.9V261.7z M1318.7,263h-3.8v-7c0-1.1,0.9-1.9,1.9-1.9
			c1.1,0,1.9,0.9,1.9,1.9h0V263z M1226.9,395.7h-15.8v-2.2h15.8V395.7z M1213,392.4v-14.2h12v14.2H1213z M1202.1,361.5h42.5
			c0.1,0,0.2,0.1,0.2,0.2c0,0.1-0.1,0.2-0.2,0.2h-42.5V361.5z M1111.3,348.2L1111.3,348.2l0,4.8h0V348.2z M1087.3,303.8h-8v-24.5
			c0,0,0.9-5.1,3.9-7.2l0-0.1c0,0,0,0,0.1,0c0,0,0,0,0.1,0v0.1c3.1,2.2,3.9,7.2,3.9,7.2V303.8z M1098.1,303.8h-8v-24.5
			c0,0,0.9-5.1,4-7.2V272c0,0,0,0,0.1,0c0,0,0,0,0.1,0l0,0.1c3.1,2.2,3.9,7.2,3.9,7.2V303.8z M1086.6,237.9L1086.6,237.9
			C1086.6,237.8,1086.6,237.8,1086.6,237.9C1086.6,237.8,1086.6,237.8,1086.6,237.9L1086.6,237.9c1,0.7,1.3,2.3,1.3,2.3v7.7h-2.5
			v-7.7h0C1085.3,240.1,1085.6,238.5,1086.6,237.9z M1076.8,278.7l6.5-13.2c0-0.1,0.1-0.1,0.2-0.1c0.1,0,0.2,0.1,0.2,0.2l4.9,12.5
			l4.9-12.5c0-0.1,0.1-0.2,0.2-0.2c0.1,0,0.2,0,0.2,0.1l6.5,13.2c0.1,0.1,0,0.3-0.1,0.3c0,0-0.1,0-0.1,0c-0.1,0-0.2,0-0.2-0.1
			l-6.3-12.7l-5,12.6c0,0,0,0,0,0c0-0.1,0-0.1,0-0.2l-0.2-0.6l-0.2,0.6c0,0.1,0,0.1,0,0.2c0,0,0,0,0,0l-5-12.6l-6.3,12.7
			c0,0.1-0.1,0.1-0.2,0.1c0,0-0.1,0-0.1,0C1076.8,279,1076.7,278.9,1076.8,278.7z M1013,303.8h-8v-24.5c0,0,0.9-5.1,3.9-7.2l0-0.1
			c0,0,0,0,0.1,0c0,0,0,0,0.1,0v0.1c3.1,2.2,3.9,7.2,3.9,7.2V303.8z M1023.8,303.8h-8v-24.5c0,0,0.9-5.1,4-7.2V272c0,0,0,0,0.1,0
			c0,0,0,0,0.1,0l0,0.1c3.1,2.2,3.9,7.2,3.9,7.2V303.8z M1015.4,237.9L1015.4,237.9C1015.4,237.8,1015.4,237.8,1015.4,237.9
			C1015.5,237.8,1015.5,237.8,1015.4,237.9L1015.4,237.9c1,0.7,1.3,2.3,1.3,2.3v7.7h-2.5v-7.7h0
			C1014.2,240.1,1014.5,238.5,1015.4,237.9z M1002.5,278.7l6.5-13.2c0-0.1,0.1-0.1,0.2-0.1c0.1,0,0.2,0.1,0.2,0.2l4.9,12.5l5-12.5
			c0-0.1,0.1-0.2,0.2-0.2c0.1,0,0.2,0,0.2,0.1l6.5,13.2c0.1,0.1,0,0.3-0.1,0.3c0,0-0.1,0-0.1,0c-0.1,0-0.2,0-0.2-0.1l-6.3-12.7
			l-5,12.6c0-0.1,0-0.1,0-0.2l-0.2-0.6l-0.2,0.6c0,0.1,0,0.1,0,0.2l-5-12.6l-6.3,12.7c0,0.1-0.1,0.1-0.2,0.1c0,0-0.1,0-0.1,0
			C1002.4,279,1002.4,278.9,1002.5,278.7z M986.4,324.8l0.5,0.5v19.7l-0.5,1.8V324.8z"/>
		<path class="st0" d="M1316,283.3c0-2.9-2.4-5.3-5.3-5.3c-2.9,0-5.3,2.4-5.3,5.3c0,2.9,2.4,5.3,5.3,5.3
			C1313.7,288.5,1316,286.2,1316,283.3z M1309.1,283.1c0-0.1,0.1-0.1,0.2-0.1l1.5,0.1l-0.8-2.1c0-0.1,0-0.2,0.1-0.2
			c0.1,0,0.2,0,0.2,0.1l0.8,2.2l-0.3,0l0.1,0.3l0.3,0l-0.1-0.3l4.3,0.3c0.1,0,0.1,0.1,0.1,0.2c0,0.1-0.1,0.1-0.1,0.1c0,0,0,0,0,0
			l-4.2-0.3l0.4,1.1c0,0.1,0,0.2-0.1,0.2c0,0,0,0,0,0c-0.1,0-0.1,0-0.1-0.1l-0.4-1.2l-1.6-0.1
			C1309.1,283.3,1309.1,283.2,1309.1,283.1z"/>
		<polygon class="st0" points="1285.7,296.6 1310.8,296.6 1310.8,296.6 1335.9,296.6 1335.9,296.4 1285.7,296.4 		"/>
		<path class="st0" d="M1317.6,283.3c0-3.8-3.1-6.8-6.8-6.8c-3.8,0-6.8,3.1-6.8,6.8c0,3.8,3,6.8,6.8,6.8
			C1314.5,290.1,1317.6,287,1317.6,283.3z M1304.4,283.3c0-3.5,2.9-6.4,6.4-6.4c3.5,0,6.4,2.9,6.4,6.4c0,3.5-2.9,6.4-6.4,6.4
			C1307.2,289.7,1304.4,286.8,1304.4,283.3z"/>
		<path class="st0" d="M1234.7,296.9h15l1.1-0.5h-16.1c-0.1,0-0.2,0.1-0.2,0.2C1234.5,296.7,1234.6,296.9,1234.7,296.9z"/>
	</g>
	<g>
		<g>
			<g>
				<rect x="1321.6" y="46.5" class="st1" width="44.7" height="14.1"/>
				<rect x="1310.2" y="49.6" class="st1" width="67.5" height="14.1"/>
				<rect x="1278.9" y="57.6" class="st1" width="19.3" height="12.5"/>
			</g>
			<rect x="1268.7" y="64.3" class="st1" width="52.4" height="355.5"/>
			<rect x="1274.1" y="70.1" class="st2" width="32.7" height="106.2"/>
			<g>
				<rect x="1273.9" y="82.1" class="st1" width="31.1" height="1.4"/>
				<rect x="1273.9" y="95.3" class="st1" width="31.1" height="1.4"/>
				<rect x="1273.9" y="108.6" class="st1" width="31.1" height="1.4"/>
				<rect x="1273.9" y="121.8" class="st1" width="31.1" height="1.4"/>
				<rect x="1273.9" y="135.1" class="st1" width="31.1" height="1.4"/>
				<rect x="1273.9" y="148.3" class="st1" width="31.1" height="1.4"/>
				<rect x="1273.9" y="161.6" class="st1" width="31.1" height="1.4"/>
			</g>
			<rect x="1274.1" y="186.6" class="st2" width="32.7" height="106.2"/>
			<rect x="1274.1" y="303.1" class="st2" width="32.7" height="106.2"/>
			<rect x="1310.2" y="169.2" class="st1" width="67.5" height="14.1"/>
			<rect x="1302.4" y="55.3" class="st3" width="83" height="118"/>
			<rect x="1310.2" y="296.1" class="st1" width="67.5" height="14.1"/>
			<g>
				<rect x="1302.4" y="414.5" class="st4" width="82.8" height="0.4"/>
			</g>
			<rect x="1319.4" y="79.2" class="st2" width="10.2" height="11.3"/>
			<rect x="1329.2" y="114.4" class="st2" width="10.2" height="11.3"/>
			<rect x="1349.5" y="114.4" class="st2" width="10.2" height="11.3"/>
			<rect x="1329.4" y="149.3" class="st2" width="10.2" height="11.3"/>
			<rect x="1329.4" y="356.1" class="st5" width="10.2" height="11.3"/>
			<g>
				<path class="st1" d="M1309.8,53.6h-1.6c-0.3,0-0.5,0.2-0.5,0.4v119.7c0,0.2,0.2,0.4,0.5,0.4h1.6c0.3,0,0.5-0.2,0.5-0.4V54
					C1310.3,53.8,1310.1,53.6,1309.8,53.6z"/>
				<path class="st1" d="M1319.8,53.6h-1.6c-0.3,0-0.5,0.2-0.5,0.4v119.7c0,0.2,0.2,0.4,0.5,0.4h1.6c0.3,0,0.5-0.2,0.5-0.4V54
					C1320.3,53.8,1320.1,53.6,1319.8,53.6z"/>
				<path class="st1" d="M1329.8,53.6h-1.6c-0.3,0-0.5,0.2-0.5,0.4v119.7c0,0.2,0.2,0.4,0.5,0.4h1.6c0.3,0,0.5-0.2,0.5-0.4V54
					C1330.3,53.8,1330,53.6,1329.8,53.6z"/>
				<path class="st1" d="M1339.7,53.6h-1.6c-0.3,0-0.5,0.2-0.5,0.4v119.7c0,0.2,0.2,0.4,0.5,0.4h1.6c0.3,0,0.5-0.2,0.5-0.4V54
					C1340.2,53.8,1340,53.6,1339.7,53.6z"/>
				<path class="st1" d="M1349.7,53.6h-1.6c-0.3,0-0.5,0.2-0.5,0.4v119.7c0,0.2,0.2,0.4,0.5,0.4h1.6c0.3,0,0.5-0.2,0.5-0.4V54
					C1350.2,53.8,1350,53.6,1349.7,53.6z"/>
				<path class="st1" d="M1359.7,53.6h-1.6c-0.3,0-0.5,0.2-0.5,0.4v119.7c0,0.2,0.2,0.4,0.5,0.4h1.6c0.3,0,0.5-0.2,0.5-0.4V54
					C1360.2,53.8,1360,53.6,1359.7,53.6z"/>
				<path class="st1" d="M1369.7,53.6h-1.6c-0.3,0-0.5,0.2-0.5,0.4v119.7c0,0.2,0.2,0.4,0.5,0.4h1.6c0.3,0,0.5-0.2,0.5-0.4V54
					C1370.2,53.8,1369.9,53.6,1369.7,53.6z"/>
				<path class="st1" d="M1379.6,53.6h-1.6c-0.3,0-0.5,0.2-0.5,0.4v119.7c0,0.2,0.2,0.4,0.5,0.4h1.6c0.3,0,0.5-0.2,0.5-0.4V54
					C1380.1,53.8,1379.9,53.6,1379.6,53.6z"/>
			</g>
			<g>
				<g>
					<rect x="1302.4" y="67" class="st4" width="82.8" height="0.4"/>
					<rect x="1302.4" y="55.3" class="st4" width="82.8" height="0.4"/>
				</g>
				<g>
					<rect x="1302.4" y="78.8" class="st4" width="82.8" height="0.4"/>
					<rect x="1302.4" y="67" class="st4" width="82.8" height="0.4"/>
				</g>
				<g>
					<rect x="1302.4" y="90.5" class="st4" width="82.8" height="0.4"/>
					<rect x="1302.4" y="78.8" class="st4" width="82.8" height="0.4"/>
				</g>
				<g>
					<rect x="1302.4" y="102.2" class="st4" width="82.8" height="0.4"/>
					<rect x="1302.4" y="90.5" class="st4" width="82.8" height="0.4"/>
				</g>
				<g>
					<rect x="1302.4" y="113.9" class="st4" width="82.8" height="0.4"/>
					<rect x="1302.4" y="102.2" class="st4" width="82.8" height="0.4"/>
				</g>
				<g>
					<rect x="1302.4" y="125.6" class="st4" width="82.8" height="0.4"/>
					<rect x="1302.4" y="113.9" class="st4" width="82.8" height="0.4"/>
				</g>
				<g>
					<rect x="1302.4" y="137.3" class="st4" width="82.8" height="0.4"/>
					<rect x="1302.4" y="125.6" class="st4" width="82.8" height="0.4"/>
				</g>
				<g>
					<rect x="1302.4" y="149" class="st4" width="82.8" height="0.4"/>
					<rect x="1302.4" y="137.3" class="st4" width="82.8" height="0.4"/>
				</g>
				<g>
					<rect x="1302.4" y="160.7" class="st4" width="82.8" height="0.4"/>
					<rect x="1302.4" y="149" class="st4" width="82.8" height="0.4"/>
				</g>
				<g>
					<rect x="1302.4" y="172.4" class="st4" width="82.8" height="0.4"/>
					<rect x="1302.4" y="160.7" class="st4" width="82.8" height="0.4"/>
				</g>
			</g>
			<g>
				<rect x="1273.9" y="198.3" class="st1" width="31.1" height="1.4"/>
				<rect x="1273.9" y="211.5" class="st1" width="31.1" height="1.4"/>
				<rect x="1273.9" y="224.8" class="st1" width="31.1" height="1.4"/>
				<rect x="1273.9" y="238" class="st1" width="31.1" height="1.4"/>
				<rect x="1273.9" y="251.3" class="st1" width="31.1" height="1.4"/>
				<rect x="1273.9" y="264.5" class="st1" width="31.1" height="1.4"/>
				<rect x="1273.9" y="277.8" class="st1" width="31.1" height="1.4"/>
			</g>
			<g>
				<rect x="1273.9" y="314.5" class="st1" width="31.1" height="1.4"/>
				<rect x="1273.9" y="327.7" class="st1" width="31.1" height="1.4"/>
				<rect x="1273.9" y="340.9" class="st1" width="31.1" height="1.4"/>
				<rect x="1273.9" y="354.2" class="st1" width="31.1" height="1.4"/>
				<rect x="1273.9" y="367.4" class="st1" width="31.1" height="1.4"/>
				<rect x="1273.9" y="380.7" class="st1" width="31.1" height="1.4"/>
				<rect x="1273.9" y="393.9" class="st1" width="31.1" height="1.4"/>
			</g>
			<g>
				<rect x="1302.4" y="182.2" class="st3" width="83" height="118"/>
				<g>
					<rect x="1302.4" y="193.9" class="st4" width="82.8" height="0.4"/>
					<rect x="1302.4" y="182.2" class="st4" width="82.8" height="0.4"/>
				</g>
				<g>
					<rect x="1302.4" y="205.6" class="st4" width="82.8" height="0.4"/>
					<rect x="1302.4" y="193.9" class="st4" width="82.8" height="0.4"/>
				</g>
				<g>
					<rect x="1302.4" y="217.3" class="st4" width="82.8" height="0.4"/>
					<rect x="1302.4" y="205.6" class="st4" width="82.8" height="0.4"/>
				</g>
				<g>
					<rect x="1302.4" y="229.1" class="st4" width="82.8" height="0.4"/>
					<rect x="1302.4" y="217.3" class="st4" width="82.8" height="0.4"/>
				</g>
				<g>
					<rect x="1302.4" y="240.8" class="st4" width="82.8" height="0.4"/>
					<rect x="1302.4" y="229.1" class="st4" width="82.8" height="0.4"/>
				</g>
				<g>
					<rect x="1302.4" y="252.5" class="st4" width="82.8" height="0.4"/>
					<rect x="1302.4" y="240.8" class="st4" width="82.8" height="0.4"/>
				</g>
				<g>
					<rect x="1302.4" y="264.2" class="st4" width="82.8" height="0.4"/>
					<rect x="1302.4" y="252.5" class="st4" width="82.8" height="0.4"/>
				</g>
				<g>
					<rect x="1302.4" y="275.9" class="st4" width="82.8" height="0.4"/>
					<rect x="1302.4" y="264.2" class="st4" width="82.8" height="0.4"/>
				</g>
				<g>
					<rect x="1302.4" y="287.6" class="st4" width="82.8" height="0.4"/>
					<rect x="1302.4" y="275.9" class="st4" width="82.8" height="0.4"/>
				</g>
				<g>
					<rect x="1302.4" y="299.3" class="st4" width="82.8" height="0.4"/>
					<rect x="1302.4" y="287.6" class="st4" width="82.8" height="0.4"/>
				</g>
				<rect x="1349.5" y="217.9" class="st2" width="10.2" height="11.3"/>
				<rect x="1329.4" y="205.9" class="st2" width="10.2" height="11.3"/>
				<g>
					<path class="st1" d="M1309.8,180.5h-1.6c-0.3,0-0.5,0.2-0.5,0.4v119.7c0,0.2,0.2,0.4,0.5,0.4h1.6c0.3,0,0.5-0.2,0.5-0.4V180.9
						C1310.3,180.7,1310.1,180.5,1309.8,180.5z"/>
					<path class="st1" d="M1319.8,180.5h-1.6c-0.3,0-0.5,0.2-0.5,0.4v119.7c0,0.2,0.2,0.4,0.5,0.4h1.6c0.3,0,0.5-0.2,0.5-0.4V180.9
						C1320.3,180.7,1320.1,180.5,1319.8,180.5z"/>
					<path class="st1" d="M1329.8,180.5h-1.6c-0.3,0-0.5,0.2-0.5,0.4v119.7c0,0.2,0.2,0.4,0.5,0.4h1.6c0.3,0,0.5-0.2,0.5-0.4V180.9
						C1330.3,180.7,1330,180.5,1329.8,180.5z"/>
					<path class="st1" d="M1339.7,180.5h-1.6c-0.3,0-0.5,0.2-0.5,0.4v119.7c0,0.2,0.2,0.4,0.5,0.4h1.6c0.3,0,0.5-0.2,0.5-0.4V180.9
						C1340.2,180.7,1340,180.5,1339.7,180.5z"/>
					<path class="st1" d="M1349.7,180.5h-1.6c-0.3,0-0.5,0.2-0.5,0.4v119.7c0,0.2,0.2,0.4,0.5,0.4h1.6c0.3,0,0.5-0.2,0.5-0.4V180.9
						C1350.2,180.7,1350,180.5,1349.7,180.5z"/>
					<path class="st1" d="M1359.7,180.5h-1.6c-0.3,0-0.5,0.2-0.5,0.4v119.7c0,0.2,0.2,0.4,0.5,0.4h1.6c0.3,0,0.5-0.2,0.5-0.4V180.9
						C1360.2,180.7,1360,180.5,1359.7,180.5z"/>
					<path class="st1" d="M1369.7,180.5h-1.6c-0.3,0-0.5,0.2-0.5,0.4v119.7c0,0.2,0.2,0.4,0.5,0.4h1.6c0.3,0,0.5-0.2,0.5-0.4V180.9
						C1370.2,180.7,1369.9,180.5,1369.7,180.5z"/>
					<path class="st1" d="M1379.6,180.5h-1.6c-0.3,0-0.5,0.2-0.5,0.4v119.7c0,0.2,0.2,0.4,0.5,0.4h1.6c0.3,0,0.5-0.2,0.5-0.4V180.9
						C1380.1,180.7,1379.9,180.5,1379.6,180.5z"/>
				</g>
			</g>
			<g>
				<rect x="1302.4" y="309.5" class="st3" width="83" height="118"/>
				<g>
					<rect x="1302.4" y="321.3" class="st4" width="82.8" height="0.4"/>
					<rect x="1302.4" y="309.6" class="st4" width="82.8" height="0.4"/>
				</g>
				<g>
					<rect x="1302.4" y="333" class="st4" width="82.8" height="0.4"/>
					<rect x="1302.4" y="321.3" class="st4" width="82.8" height="0.4"/>
				</g>
				<g>
					<rect x="1302.4" y="344.7" class="st4" width="82.8" height="0.4"/>
					<rect x="1302.4" y="333" class="st4" width="82.8" height="0.4"/>
				</g>
				<g>
					<rect x="1302.4" y="356.4" class="st4" width="82.8" height="0.4"/>
					<rect x="1302.4" y="344.7" class="st4" width="82.8" height="0.4"/>
				</g>
				<g>
					<rect x="1302.4" y="368.1" class="st4" width="82.8" height="0.4"/>
					<rect x="1302.4" y="356.4" class="st4" width="82.8" height="0.4"/>
				</g>
				<g>
					<rect x="1302.4" y="379.8" class="st4" width="82.8" height="0.4"/>
					<rect x="1302.4" y="368.1" class="st4" width="82.8" height="0.4"/>
				</g>
				<g>
					<rect x="1302.4" y="391.5" class="st4" width="82.8" height="0.4"/>
					<rect x="1302.4" y="379.8" class="st4" width="82.8" height="0.4"/>
				</g>
				<g>
					<rect x="1302.4" y="403.2" class="st4" width="82.8" height="0.4"/>
					<rect x="1302.4" y="391.5" class="st4" width="82.8" height="0.4"/>
				</g>
				<g>
					<rect x="1302.4" y="414.9" class="st4" width="82.8" height="0.4"/>
					<rect x="1302.4" y="403.2" class="st4" width="82.8" height="0.4"/>
				</g>
				<g>
					<rect x="1302.4" y="426.6" class="st4" width="82.8" height="0.4"/>
					<rect x="1302.4" y="414.9" class="st4" width="82.8" height="0.4"/>
				</g>
				<rect x="1349.5" y="345.2" class="st2" width="10.2" height="11.3"/>
				<rect x="1329.4" y="333.3" class="st2" width="10.2" height="11.3"/>
				<g>
					<path class="st1" d="M1309.8,307.8h-1.6c-0.3,0-0.5,0.2-0.5,0.4v119.7c0,0.2,0.2,0.4,0.5,0.4h1.6c0.3,0,0.5-0.2,0.5-0.4V308.2
						C1310.3,308,1310.1,307.8,1309.8,307.8z"/>
					<path class="st1" d="M1319.8,307.8h-1.6c-0.3,0-0.5,0.2-0.5,0.4v119.7c0,0.2,0.2,0.4,0.5,0.4h1.6c0.3,0,0.5-0.2,0.5-0.4V308.2
						C1320.3,308,1320.1,307.8,1319.8,307.8z"/>
					<path class="st1" d="M1329.8,307.8h-1.6c-0.3,0-0.5,0.2-0.5,0.4v119.7c0,0.2,0.2,0.4,0.5,0.4h1.6c0.3,0,0.5-0.2,0.5-0.4V308.2
						C1330.3,308,1330,307.8,1329.8,307.8z"/>
					<path class="st1" d="M1339.7,307.8h-1.6c-0.3,0-0.5,0.2-0.5,0.4v119.7c0,0.2,0.2,0.4,0.5,0.4h1.6c0.3,0,0.5-0.2,0.5-0.4V308.2
						C1340.2,308,1340,307.8,1339.7,307.8z"/>
					<path class="st1" d="M1349.7,307.8h-1.6c-0.3,0-0.5,0.2-0.5,0.4v119.7c0,0.2,0.2,0.4,0.5,0.4h1.6c0.3,0,0.5-0.2,0.5-0.4V308.2
						C1350.2,308,1350,307.8,1349.7,307.8z"/>
					<path class="st1" d="M1359.7,307.8h-1.6c-0.3,0-0.5,0.2-0.5,0.4v119.7c0,0.2,0.2,0.4,0.5,0.4h1.6c0.3,0,0.5-0.2,0.5-0.4V308.2
						C1360.2,308,1360,307.8,1359.7,307.8z"/>
					<path class="st1" d="M1369.7,307.8h-1.6c-0.3,0-0.5,0.2-0.5,0.4v119.7c0,0.2,0.2,0.4,0.5,0.4h1.6c0.3,0,0.5-0.2,0.5-0.4V308.2
						C1370.2,308,1369.9,307.8,1369.7,307.8z"/>
					<path class="st1" d="M1379.6,307.8h-1.6c-0.3,0-0.5,0.2-0.5,0.4v119.7c0,0.2,0.2,0.4,0.5,0.4h1.6c0.3,0,0.5-0.2,0.5-0.4V308.2
						C1380.1,308,1379.9,307.8,1379.6,307.8z"/>
				</g>
			</g>
		</g>
		<polygon points="642.6,65 642.6,29 636.3,29 636.3,13.8 623.3,13.8 610.3,13.8 588.1,13.8 588.1,-18.7 586.3,-18.7 586.3,13.8 
			561.8,13.8 548.8,13.8 535.8,13.8 535.8,29 529.7,29 529.7,65 522.1,65 522.1,388.3 570.3,388.3 575.4,388.3 651.7,388.3 
			651.7,65 		"/>
		<g>
			<rect x="580.6" y="71.8" class="st2" width="18.9" height="4.5"/>
			<rect x="580.6" y="82.1" class="st2" width="18.9" height="4.5"/>
			<rect x="580.6" y="92.3" class="st2" width="18.9" height="4.5"/>
			<rect x="580.6" y="102.6" class="st2" width="18.9" height="4.5"/>
			<rect x="580.6" y="112.9" class="st2" width="18.9" height="4.5"/>
			<rect x="580.6" y="123.1" class="st2" width="18.9" height="4.5"/>
			<rect x="580.6" y="133.4" class="st2" width="18.9" height="4.5"/>
			<rect x="580.6" y="143.7" class="st2" width="18.9" height="4.5"/>
			<rect x="580.6" y="153.9" class="st2" width="18.9" height="4.5"/>
			<rect x="580.6" y="164.2" class="st2" width="18.9" height="4.5"/>
			<rect x="580.6" y="174.4" class="st2" width="18.9" height="4.5"/>
			<rect x="580.6" y="184.7" class="st2" width="18.9" height="4.5"/>
			<rect x="580.6" y="195" class="st2" width="18.9" height="4.5"/>
			<rect x="580.6" y="205.2" class="st2" width="18.9" height="4.5"/>
			<rect x="580.6" y="215.5" class="st2" width="18.9" height="4.5"/>
			<rect x="580.6" y="225.8" class="st2" width="18.9" height="4.5"/>
			<rect x="580.6" y="236" class="st2" width="18.9" height="4.5"/>
			<rect x="580.6" y="246.3" class="st2" width="18.9" height="4.5"/>
			<rect x="580.6" y="256.6" class="st2" width="18.9" height="4.5"/>
			<rect x="580.6" y="266.8" class="st2" width="18.9" height="4.5"/>
			<rect x="580.6" y="277.1" class="st2" width="18.9" height="4.5"/>
			<rect x="580.6" y="287.4" class="st2" width="18.9" height="4.5"/>
			<rect x="580.6" y="297.6" class="st2" width="18.9" height="4.5"/>
			<rect x="580.6" y="307.9" class="st2" width="18.9" height="4.5"/>
			<rect x="580.6" y="318.2" class="st2" width="18.9" height="4.5"/>
			<g>
				<rect x="604.8" y="71.8" class="st2" width="18.9" height="4.5"/>
				<rect x="604.8" y="82.1" class="st2" width="18.9" height="4.5"/>
				<rect x="604.8" y="92.3" class="st2" width="18.9" height="4.5"/>
				<rect x="604.8" y="102.6" class="st2" width="18.9" height="4.5"/>
				<rect x="604.8" y="112.9" class="st2" width="18.9" height="4.5"/>
				<rect x="604.8" y="123.1" class="st2" width="18.9" height="4.5"/>
				<rect x="604.8" y="133.4" class="st2" width="18.9" height="4.5"/>
				<rect x="604.8" y="143.7" class="st2" width="18.9" height="4.5"/>
				<rect x="604.8" y="153.9" class="st2" width="18.9" height="4.5"/>
				<rect x="604.8" y="164.2" class="st2" width="18.9" height="4.5"/>
				<rect x="604.8" y="174.4" class="st2" width="18.9" height="4.5"/>
				<rect x="604.8" y="184.7" class="st2" width="18.9" height="4.5"/>
				<rect x="604.8" y="195" class="st2" width="18.9" height="4.5"/>
				<rect x="604.8" y="205.2" class="st2" width="18.9" height="4.5"/>
				<rect x="604.8" y="215.5" class="st2" width="18.9" height="4.5"/>
				<rect x="604.8" y="225.8" class="st2" width="18.9" height="4.5"/>
				<rect x="604.8" y="236" class="st2" width="18.9" height="4.5"/>
				<rect x="604.8" y="246.3" class="st2" width="18.9" height="4.5"/>
				<rect x="604.8" y="256.6" class="st2" width="18.9" height="4.5"/>
				<rect x="604.8" y="266.8" class="st2" width="18.9" height="4.5"/>
				<rect x="604.8" y="277.1" class="st2" width="18.9" height="4.5"/>
				<rect x="604.8" y="287.4" class="st2" width="18.9" height="4.5"/>
				<rect x="604.8" y="297.6" class="st2" width="18.9" height="4.5"/>
				<rect x="604.8" y="307.9" class="st2" width="18.9" height="4.5"/>
				<rect x="604.8" y="318.2" class="st2" width="18.9" height="4.5"/>
			</g>
			<g>
				<rect x="628.1" y="71.8" class="st2" width="18.9" height="4.5"/>
				<rect x="628.1" y="82.1" class="st2" width="18.9" height="4.5"/>
				<rect x="628.1" y="92.3" class="st2" width="18.9" height="4.5"/>
				<rect x="628.1" y="102.6" class="st2" width="18.9" height="4.5"/>
				<rect x="628.1" y="112.9" class="st2" width="18.9" height="4.5"/>
				<rect x="628.1" y="123.1" class="st2" width="18.9" height="4.5"/>
				<rect x="628.1" y="133.4" class="st2" width="18.9" height="4.5"/>
				<rect x="628.1" y="143.7" class="st2" width="18.9" height="4.5"/>
				<rect x="628.1" y="153.9" class="st2" width="18.9" height="4.5"/>
				<rect x="628.1" y="164.2" class="st2" width="18.9" height="4.5"/>
				<rect x="628.1" y="174.4" class="st2" width="18.9" height="4.5"/>
				<rect x="628.1" y="184.7" class="st2" width="18.9" height="4.5"/>
				<rect x="628.1" y="195" class="st2" width="18.9" height="4.5"/>
				<rect x="628.1" y="205.2" class="st2" width="18.9" height="4.5"/>
				<rect x="628.1" y="215.5" class="st2" width="18.9" height="4.5"/>
				<rect x="628.1" y="225.8" class="st2" width="18.9" height="4.5"/>
				<rect x="628.1" y="236" class="st2" width="18.9" height="4.5"/>
				<rect x="628.1" y="246.3" class="st2" width="18.9" height="4.5"/>
				<rect x="628.1" y="256.6" class="st2" width="18.9" height="4.5"/>
				<rect x="628.1" y="266.8" class="st2" width="18.9" height="4.5"/>
				<rect x="628.1" y="277.1" class="st2" width="18.9" height="4.5"/>
				<rect x="628.1" y="287.4" class="st2" width="18.9" height="4.5"/>
				<rect x="628.1" y="297.6" class="st2" width="18.9" height="4.5"/>
				<rect x="628.1" y="307.9" class="st2" width="18.9" height="4.5"/>
				<rect x="628.1" y="318.2" class="st2" width="18.9" height="4.5"/>
			</g>
			<g>
				<rect x="524.6" y="71.8" class="st2" width="10.1" height="4.5"/>
				<rect x="537.6" y="71.8" class="st2" width="10.1" height="4.5"/>
				<rect x="550.2" y="71.8" class="st2" width="10.1" height="4.5"/>
				<rect x="562.7" y="71.8" class="st2" width="10.1" height="4.5"/>
				<g>
					<rect x="524.6" y="80.9" class="st2" width="10.1" height="4.5"/>
					<rect x="537.6" y="80.9" class="st2" width="10.1" height="4.5"/>
					<rect x="550.2" y="80.9" class="st2" width="10.1" height="4.5"/>
					<rect x="562.7" y="80.9" class="st2" width="10.1" height="4.5"/>
				</g>
				<g>
					<rect x="524.6" y="89.9" class="st2" width="10.1" height="4.5"/>
					<rect x="537.6" y="89.9" class="st2" width="10.1" height="4.5"/>
					<rect x="550.2" y="89.9" class="st2" width="10.1" height="4.5"/>
					<rect x="562.7" y="89.9" class="st2" width="10.1" height="4.5"/>
				</g>
				<g>
					<rect x="524.6" y="99" class="st2" width="10.1" height="4.5"/>
					<rect x="537.6" y="99" class="st2" width="10.1" height="4.5"/>
					<rect x="550.2" y="99" class="st2" width="10.1" height="4.5"/>
					<rect x="562.7" y="99" class="st2" width="10.1" height="4.5"/>
				</g>
				<g>
					<rect x="524.6" y="108" class="st2" width="10.1" height="4.5"/>
					<rect x="537.6" y="108" class="st2" width="10.1" height="4.5"/>
					<rect x="550.2" y="108" class="st2" width="10.1" height="4.5"/>
					<rect x="562.7" y="108" class="st2" width="10.1" height="4.5"/>
				</g>
				<g>
					<rect x="524.6" y="117.1" class="st2" width="10.1" height="4.5"/>
					<rect x="537.6" y="117.1" class="st2" width="10.1" height="4.5"/>
					<rect x="550.2" y="117.1" class="st2" width="10.1" height="4.5"/>
					<rect x="562.7" y="117.1" class="st2" width="10.1" height="4.5"/>
				</g>
				<g>
					<rect x="524.6" y="126.1" class="st2" width="10.1" height="4.5"/>
					<rect x="537.6" y="126.1" class="st2" width="10.1" height="4.5"/>
					<rect x="550.2" y="126.1" class="st2" width="10.1" height="4.5"/>
					<rect x="562.7" y="126.1" class="st2" width="10.1" height="4.5"/>
				</g>
				<g>
					<rect x="524.6" y="135.2" class="st2" width="10.1" height="4.5"/>
					<rect x="537.6" y="135.2" class="st2" width="10.1" height="4.5"/>
					<rect x="550.2" y="135.2" class="st2" width="10.1" height="4.5"/>
					<rect x="562.7" y="135.2" class="st2" width="10.1" height="4.5"/>
				</g>
				<g>
					<rect x="524.6" y="144.3" class="st2" width="10.1" height="4.5"/>
					<rect x="537.6" y="144.3" class="st2" width="10.1" height="4.5"/>
					<rect x="550.2" y="144.3" class="st2" width="10.1" height="4.5"/>
					<rect x="562.7" y="144.3" class="st2" width="10.1" height="4.5"/>
				</g>
				<g>
					<rect x="524.6" y="153.3" class="st2" width="10.1" height="4.5"/>
					<rect x="537.6" y="153.3" class="st2" width="10.1" height="4.5"/>
					<rect x="550.2" y="153.3" class="st2" width="10.1" height="4.5"/>
					<rect x="562.7" y="153.3" class="st2" width="10.1" height="4.5"/>
				</g>
				<g>
					<rect x="524.6" y="162.4" class="st2" width="10.1" height="4.5"/>
					<rect x="537.6" y="162.4" class="st2" width="10.1" height="4.5"/>
					<rect x="550.2" y="162.4" class="st2" width="10.1" height="4.5"/>
					<rect x="562.7" y="162.4" class="st2" width="10.1" height="4.5"/>
				</g>
				<g>
					<rect x="524.6" y="171.4" class="st2" width="10.1" height="4.5"/>
					<rect x="537.6" y="171.4" class="st2" width="10.1" height="4.5"/>
					<rect x="550.2" y="171.4" class="st2" width="10.1" height="4.5"/>
					<rect x="562.7" y="171.4" class="st2" width="10.1" height="4.5"/>
				</g>
				<g>
					<rect x="524.6" y="180.5" class="st2" width="10.1" height="4.5"/>
					<rect x="537.6" y="180.5" class="st2" width="10.1" height="4.5"/>
					<rect x="550.2" y="180.5" class="st2" width="10.1" height="4.5"/>
					<rect x="562.7" y="180.5" class="st2" width="10.1" height="4.5"/>
				</g>
				<g>
					<rect x="524.6" y="189.5" class="st2" width="10.1" height="4.5"/>
					<rect x="537.6" y="189.5" class="st2" width="10.1" height="4.5"/>
					<rect x="550.2" y="189.5" class="st2" width="10.1" height="4.5"/>
					<rect x="562.7" y="189.5" class="st2" width="10.1" height="4.5"/>
				</g>
				<g>
					<rect x="524.6" y="198.6" class="st2" width="10.1" height="4.5"/>
					<rect x="537.6" y="198.6" class="st2" width="10.1" height="4.5"/>
					<rect x="550.2" y="198.6" class="st2" width="10.1" height="4.5"/>
					<rect x="562.7" y="198.6" class="st2" width="10.1" height="4.5"/>
				</g>
				<g>
					<rect x="524.6" y="207.6" class="st2" width="10.1" height="4.5"/>
					<rect x="537.6" y="207.6" class="st2" width="10.1" height="4.5"/>
					<rect x="550.2" y="207.6" class="st2" width="10.1" height="4.5"/>
					<rect x="562.7" y="207.6" class="st2" width="10.1" height="4.5"/>
				</g>
				<g>
					<rect x="524.6" y="216.7" class="st2" width="10.1" height="4.5"/>
					<rect x="537.6" y="216.7" class="st2" width="10.1" height="4.5"/>
					<rect x="550.2" y="216.7" class="st2" width="10.1" height="4.5"/>
					<rect x="562.7" y="216.7" class="st2" width="10.1" height="4.5"/>
				</g>
				<g>
					<rect x="524.6" y="225.8" class="st2" width="10.1" height="4.5"/>
					<rect x="537.6" y="225.8" class="st2" width="10.1" height="4.5"/>
					<rect x="550.2" y="225.8" class="st2" width="10.1" height="4.5"/>
					<rect x="562.7" y="225.8" class="st2" width="10.1" height="4.5"/>
				</g>
				<g>
					<rect x="524.6" y="234.8" class="st2" width="10.1" height="4.5"/>
					<rect x="537.6" y="234.8" class="st2" width="10.1" height="4.5"/>
					<rect x="550.2" y="234.8" class="st2" width="10.1" height="4.5"/>
					<rect x="562.7" y="234.8" class="st2" width="10.1" height="4.5"/>
				</g>
				<g>
					<rect x="524.6" y="243.9" class="st2" width="10.1" height="4.5"/>
					<rect x="537.6" y="243.9" class="st2" width="10.1" height="4.5"/>
					<rect x="550.2" y="243.9" class="st2" width="10.1" height="4.5"/>
					<rect x="562.7" y="243.9" class="st2" width="10.1" height="4.5"/>
				</g>
				<g>
					<rect x="524.6" y="252.9" class="st2" width="10.1" height="4.5"/>
					<rect x="537.6" y="252.9" class="st2" width="10.1" height="4.5"/>
					<rect x="550.2" y="252.9" class="st2" width="10.1" height="4.5"/>
					<rect x="562.7" y="252.9" class="st2" width="10.1" height="4.5"/>
				</g>
				<g>
					<rect x="524.6" y="262" class="st2" width="10.1" height="4.5"/>
					<rect x="537.6" y="262" class="st2" width="10.1" height="4.5"/>
					<rect x="550.2" y="262" class="st2" width="10.1" height="4.5"/>
					<rect x="562.7" y="262" class="st2" width="10.1" height="4.5"/>
				</g>
				<g>
					<rect x="524.6" y="271" class="st2" width="10.1" height="4.5"/>
					<rect x="537.6" y="271" class="st2" width="10.1" height="4.5"/>
					<rect x="550.2" y="271" class="st2" width="10.1" height="4.5"/>
					<rect x="562.7" y="271" class="st2" width="10.1" height="4.5"/>
				</g>
				<g>
					<rect x="524.6" y="280.1" class="st2" width="10.1" height="4.5"/>
					<rect x="537.6" y="280.1" class="st2" width="10.1" height="4.5"/>
					<rect x="550.2" y="280.1" class="st2" width="10.1" height="4.5"/>
					<rect x="562.7" y="280.1" class="st2" width="10.1" height="4.5"/>
				</g>
				<g>
					<rect x="524.6" y="289.1" class="st2" width="10.1" height="4.5"/>
					<rect x="537.6" y="289.1" class="st2" width="10.1" height="4.5"/>
					<rect x="550.2" y="289.1" class="st2" width="10.1" height="4.5"/>
					<rect x="562.7" y="289.1" class="st2" width="10.1" height="4.5"/>
				</g>
				<g>
					<rect x="524.6" y="298.2" class="st2" width="10.1" height="4.5"/>
					<rect x="537.6" y="298.2" class="st2" width="10.1" height="4.5"/>
					<rect x="550.2" y="298.2" class="st2" width="10.1" height="4.5"/>
					<rect x="562.7" y="298.2" class="st2" width="10.1" height="4.5"/>
				</g>
				<g>
					<rect x="524.6" y="307.3" class="st2" width="10.1" height="4.5"/>
					<rect x="537.6" y="307.3" class="st2" width="10.1" height="4.5"/>
					<rect x="550.2" y="307.3" class="st2" width="10.1" height="4.5"/>
					<rect x="562.7" y="307.3" class="st2" width="10.1" height="4.5"/>
				</g>
				<g>
					<rect x="524.6" y="316.3" class="st2" width="10.1" height="4.5"/>
					<rect x="537.6" y="316.3" class="st2" width="10.1" height="4.5"/>
					<rect x="550.2" y="316.3" class="st2" width="10.1" height="4.5"/>
					<rect x="562.7" y="316.3" class="st2" width="10.1" height="4.5"/>
				</g>
			</g>
		</g>
		<g>
			<rect x="907.4" y="169.9" class="st1" width="40.9" height="260.4"/>
			<rect x="944.3" y="157.6" class="st1" width="10.9" height="272.7"/>
			<rect x="953.4" y="145.5" class="st1" width="10.9" height="284.7"/>
			<polygon class="st1" points="840,170.8 840,199.2 822.8,199.2 822.8,228.3 805.1,228.3 805.1,257.1 787.9,257.1 787.9,429.1 
				908.5,429.1 908.5,258 908.5,257.1 908.5,228.8 908.5,228.3 908.5,200.5 908.5,199.2 908.5,170.8 			"/>
			<path class="st2" d="M838.8,169.6v1.3h0v27h-17.2v2.2h0v27h-17.7v28.7h-17.2v174.5h123.1V169.6H838.8z M855.9,200.7v26.9h-14.7
				v-26.9H855.9z M907.2,227.6h-14.1v-26.9h14.1V227.6z M890.6,227.6h-14.7v-26.9h14.7V227.6z M821.5,258.3v25.6h-15v-25.6H821.5z
				 M806.6,255.8v-25.7h15v25.7H806.6z M855.9,312.1h-14.7v-25.6h14.7V312.1z M838.7,312.1H824v-25.6h14.7V312.1z M838.7,314.6v25.6
				H824v-25.6H838.7z M841.2,314.6h14.7v25.6h-14.7V314.6z M858.8,314.6h14.7v25.6h-14.7V314.6z M858.8,312.1v-25.6h14.7v25.6H858.8
				z M858.8,283.9v-25.6h14.7v25.6H858.8z M858.8,255.8v-25.7h14.7v25.7H858.8z M858.8,227.6v-26.9h14.7v26.9H858.8z M855.9,283.9
				h-14.7v-25.6h14.7V283.9z M838.7,283.9H824v-25.6h14.7V283.9z M821.5,286.4v25.6h-15v-25.6H821.5z M821.5,314.6v25.6h-15v-25.6
				H821.5z M821.5,342.7v25.6h-15v-25.6H821.5z M824,342.7h14.7v25.6H824V342.7z M841.2,342.7h14.7v25.6h-14.7V342.7z M858.8,342.7
				h14.7v25.6h-14.7V342.7z M875.9,342.7h14.7v25.6h-14.7V342.7z M875.9,340.2v-25.6h14.7v25.6H875.9z M875.9,312.1v-25.6h14.7v25.6
				H875.9z M875.9,283.9v-25.6h14.7v25.6H875.9z M875.9,255.8v-25.7h14.7v25.7H875.9z M875.9,198.2v-26.1h14.7v26.1H875.9z
				 M873.4,198.2h-14.7v-26.1h14.7V198.2z M855.9,230.1v25.7h-14.7v-25.7H855.9z M838.7,255.8H824v-25.7h14.7V255.8z M804.1,258.3
				v25.6h-14.9v-25.6H804.1z M804.1,286.4v25.6h-14.9v-25.6H804.1z M804.1,314.6v25.6h-14.9v-25.6H804.1z M804.1,342.7v25.6h-14.9
				v-25.6H804.1z M804.1,370.8v25.6h-14.9v-25.6H804.1z M806.6,370.8h15v25.6h-15V370.8z M824,370.8h14.7v25.6H824V370.8z
				 M841.2,370.8h14.7v25.6h-14.7V370.8z M858.8,370.8h14.7v25.6h-14.7V370.8z M875.9,370.8h14.7v25.6h-14.7V370.8z M893.1,370.8
				h14.1v25.6h-14.1V370.8z M893.1,368.3v-25.6h14.1v25.6H893.1z M893.1,340.2v-25.6h14.1v25.6H893.1z M893.1,312.1v-25.6h14.1v25.6
				H893.1z M893.1,283.9v-25.6h14.1v25.6H893.1z M893.1,255.8v-25.7h14.1v25.7H893.1z M907.2,198.2h-14.1v-26.1h14.1V198.2z
				 M855.9,172.1v26.1h-14.7v-26.1H855.9z M838.5,200.4v0.3h0.3v26.9H824v-27.2H838.5z M789.1,427.8v-28.9h14.9v28.8h2.5v-28.8h15
				v28.8h2.5v-28.8h14.7v28.8h2.5v-28.8h14.7v28.8h0.4h2.1h0.4v-28.8h14.7v28.8h2.5v-28.8h14.7v28.8h2.5v-28.8h14.1v28.9H789.1z"/>
			<g>
				<rect x="912.1" y="173.8" class="st2" width="31.5" height="25"/>
				<rect x="912.1" y="202" class="st2" width="31.5" height="25"/>
				<rect x="912.1" y="230.2" class="st2" width="31.5" height="25"/>
				<rect x="913.3" y="258.4" class="st2" width="38.7" height="25"/>
				<rect x="913.3" y="286.6" class="st2" width="38.7" height="25"/>
				<rect x="913.3" y="314.8" class="st2" width="38.7" height="25"/>
				<rect x="913.3" y="342.9" class="st2" width="38.7" height="25"/>
				<rect x="913.3" y="371.1" class="st2" width="38.7" height="25"/>
				<rect x="913.3" y="399.3" class="st2" width="38.7" height="25"/>
			</g>
			<g>
				<rect x="915.6" y="173.5" class="st1" width="1" height="253.6"/>
				<rect x="921.5" y="173.5" class="st1" width="1" height="253.6"/>
				<rect x="927.4" y="173.5" class="st1" width="1" height="253.6"/>
				<rect x="933.3" y="173.5" class="st1" width="1" height="253.6"/>
				<rect x="939.2" y="173.5" class="st1" width="1" height="253.6"/>
			</g>
			<rect x="907.1" y="-11.9" class="st1" width="2.6" height="182.1"/>
			<rect x="891.3" y="77.2" class="st1" width="2.6" height="93"/>
			<rect x="872.6" y="109.2" class="st1" width="2.6" height="61.1"/>
			<rect x="856.3" y="137.6" class="st1" width="2.6" height="32.6"/>
			<polygon class="st1" points="910.1,49.9 907.9,48.7 786.9,256.2 789.2,257.4 			"/>
			<rect x="850" y="148.7" class="st1" width="59.3" height="2"/>
			<rect x="864.3" y="123.9" class="st1" width="45" height="1.9"/>
			<rect x="878.2" y="98.3" class="st1" width="31.1" height="2"/>
		</g>
		<rect x="908" y="-56.4" class="st6" width="0.5" height="46.3"/>
		<rect x="364.5" y="425.1" class="st4" width="63.6" height="2.8"/>
		<rect x="988.8" y="282.4" class="st1" width="54.2" height="142.4"/>
		<rect x="928.1" y="282.4" class="st1" width="61.5" height="142.4"/>
		<g>
			<rect x="930.4" y="285.3" class="st2" width="56.3" height="20.9"/>
			<rect x="930.4" y="311.9" class="st2" width="56.3" height="6"/>
			<rect x="930.4" y="323.8" class="st2" width="56.3" height="6"/>
			<rect x="930.4" y="335.6" class="st2" width="56.3" height="6"/>
			<rect x="930.4" y="347.5" class="st2" width="56.3" height="6"/>
			<rect x="930.4" y="359.3" class="st2" width="56.3" height="6"/>
			<rect x="930.4" y="371.2" class="st2" width="56.3" height="6"/>
			<rect x="930.4" y="383.1" class="st2" width="56.3" height="6"/>
			<rect x="930.4" y="394.9" class="st2" width="56.3" height="6"/>
			<rect x="930.4" y="406.8" class="st2" width="56.3" height="6"/>
		</g>
		<g>
			<rect x="992.7" y="285.3" class="st2" width="47.3" height="20.9"/>
			<rect x="992.7" y="311.9" class="st2" width="47.3" height="6"/>
			<rect x="992.7" y="323.8" class="st2" width="47.3" height="6"/>
			<rect x="992.7" y="335.6" class="st2" width="47.3" height="6"/>
			<rect x="992.7" y="347.5" class="st2" width="47.3" height="6"/>
			<rect x="992.7" y="359.3" class="st2" width="47.3" height="6"/>
			<rect x="992.7" y="371.2" class="st2" width="47.3" height="6"/>
			<rect x="992.7" y="383.1" class="st2" width="47.3" height="6"/>
			<rect x="992.7" y="394.9" class="st2" width="47.3" height="6"/>
			<rect x="992.7" y="406.8" class="st2" width="47.3" height="6"/>
		</g>
		<g>
			<rect x="983.5" y="280.4" class="st1" width="1.7" height="144.3"/>
			<rect x="977.8" y="280.4" class="st1" width="1.7" height="144.3"/>
			<rect x="972.1" y="280.4" class="st1" width="1.7" height="144.3"/>
			<rect x="966.5" y="280.4" class="st1" width="1.7" height="144.3"/>
			<rect x="960.8" y="280.4" class="st1" width="1.7" height="144.3"/>
			<rect x="955.1" y="280.4" class="st1" width="1.7" height="144.3"/>
			<rect x="949.4" y="280.4" class="st1" width="1.7" height="144.3"/>
			<rect x="943.7" y="280.4" class="st1" width="1.7" height="144.3"/>
			<rect x="938.1" y="280.4" class="st1" width="1.7" height="144.3"/>
			<rect x="932.4" y="280.4" class="st1" width="1.7" height="144.3"/>
		</g>
		<g>
			<rect x="1039" y="280.4" class="st1" width="1.6" height="145.8"/>
			<rect x="1033.8" y="280.4" class="st1" width="1.6" height="145.8"/>
			<rect x="1028.6" y="280.4" class="st1" width="1.6" height="145.8"/>
			<rect x="1023.4" y="280.4" class="st1" width="1.6" height="145.8"/>
			<rect x="1018.2" y="280.4" class="st1" width="1.6" height="145.8"/>
			<rect x="1013" y="280.4" class="st1" width="1.6" height="145.8"/>
			<rect x="1007.8" y="280.4" class="st1" width="1.6" height="145.8"/>
			<rect x="1002.6" y="280.4" class="st1" width="1.6" height="145.8"/>
			<rect x="997.4" y="280.4" class="st1" width="1.6" height="145.8"/>
			<rect x="992.2" y="280.4" class="st1" width="1.6" height="145.8"/>
		</g>
		<g>
			<g>
				<path class="st1" d="M1436.2,397.3h-18.7v-7.9h-5.6v3.7h-2.7v-48.7c0,0-22.2-1.2-35.4-0.6v52.3h-5.1v-18.6h-2v-1.9h-2v-0.6h-5.3
					v-21.3h-5.8c0,0-0.4-2.4-1.8-2.7h-26.4c0,0-2,1.4-2,2.5h-5.3v54.2h-6.2v1.6h-2.4v-1.8H1299v3.8h-0.1l0-11.1h3.7v-4.9h-3.7
					l0-13.8v0c0,0,0-0.1,0-0.1c0-0.1,0-0.1,0-0.2c0,0,0,0-0.1-0.1c0-0.1-0.1-0.1-0.1-0.1c0,0-0.1,0-0.1-0.1c0,0-0.1-0.1-0.1-0.1
					c0,0,0,0,0,0c0,0,0,0-0.1,0c0,0-0.1,0-0.1,0c0,0-0.4-0.1-0.9-0.2l-1.3,3.2v-2.4l0.4-0.9c-0.5-0.1-1.2-0.3-1.9-0.5v1.1l-2.1,4.6
					h-2.9v-7.2c-0.5-0.2-1-0.3-1.5-0.5v0l-1.9,3.2v-3.9c-0.6-0.2-1.2-0.4-1.8-0.7l-4.5,7.5V375c-0.6-0.2-1.1-0.5-1.8-0.7l-2.3,3.7
					v-4.7c-0.5-0.2-1.1-0.5-1.6-0.7l-4.4,7v-9.1c-0.1-0.1-0.2-0.1-0.4-0.2c-0.1,0-0.5-0.3-1.4-0.6l-2.3,3.2v-4.2
					c-0.5-0.2-1-0.4-1.5-0.6v0l-4.2,5.8v-7.6c-0.7-0.3-1.4-0.6-2.1-0.8l-2.4,3.2v-4.1c-0.6-0.2-1.2-0.4-1.8-0.7l-3.7,4.7l-0.1-6.2
					c-0.6-0.2-1.3-0.5-1.9-0.7l-2.5,3v-3.9c-0.6-0.2-1.2-0.4-1.8-0.6l-3.4,4v-5.2c-0.7-0.2-1.3-0.4-2-0.7l-2.3,2.5v-3.3
					c-0.7-0.2-1.3-0.4-2-0.6l-3.3,3.5v-4.5c-0.7-0.2-1.3-0.4-2-0.6l-3,3.1v-4c-0.7-0.2-1.3-0.4-2-0.6l-2.6,2.8V353
					c-0.7-0.2-1.4-0.4-2.1-0.5l-2.7,2.8v-3.5c-0.7-0.2-1.4-0.3-2.1-0.5l-2.2,2.3v-2.8c-0.6-0.1-1.2-0.3-1.7-0.4l-3.8,3.7v-4.4
					l0.1-0.1c-0.6-0.1-1.2-0.3-1.8-0.4l-2.7,2.6V349l0.3-0.3c-0.6-0.1-1.2-0.2-1.8-0.3v0l-3.3,3.2v-3.8c-0.7-0.1-1.4-0.2-2.1-0.3
					l-1.9,2v-2.3c-0.7-0.1-1.4-0.2-2.1-0.3l-3.4,3.4v-3.9c-0.8-0.1-1.6-0.2-2.4-0.3l-2.4,2.5v-2.6l0.1-0.2c-0.6-0.1-1.3-0.1-1.9-0.2
					l-3,3.4v-3.6c-0.8,0-1.5-0.1-2.3-0.1l-2.2,2.5v-2.5l0.1-0.1c-0.6,0-1.2,0-1.9,0l-2.5,3.3v-3.3c-0.2,0-0.5,0-0.7,0
					c-0.1,0-0.2-0.1-0.3-0.1c-0.1,0-0.2,0-0.3,0.1h-0.2v3.6l-2.7-3.6c-0.6,0-1.3,0-1.9,0l0.1,0.1v2.5l-2.2-2.5
					c-0.7,0-1.5,0.1-2.2,0.1v3.6l-3-3.4c-0.6,0-1.3,0.1-1.9,0.2l0.2,0.2v2.6l-2.4-2.6c-0.8,0.1-1.5,0.2-2.3,0.2v3.9l-3.4-3.5
					c-0.7,0.1-1.3,0.2-2,0.3v2.4l-2-2.1c-0.7,0.1-1.4,0.2-2,0.3v3.9l-3.3-3.2v-0.1c-0.6,0.1-1.3,0.2-1.9,0.4l0.4,0.4v2.8l-2.7-2.7
					c-0.6,0.1-1.2,0.2-1.8,0.4l0.2,0.2v4.4l-3.9-3.8c-0.6,0.1-1.2,0.3-1.8,0.4l0.1,0.1v2.8l-2.3-2.4c-0.7,0.2-1.4,0.3-2,0.5v3.6
					l-2.8-2.9c-0.7,0.2-1.3,0.3-2,0.5v3.7l-2.7-2.9c-0.6,0.2-1.3,0.4-1.9,0.5v4.1l-3.1-3.2c-0.6,0.2-1.3,0.4-1.9,0.6v4.7l-3.4-3.6
					c-0.6,0.2-1.3,0.4-1.9,0.6v3.4l-2.4-2.6c-0.6,0.2-1.3,0.4-1.9,0.6v5.3l-3.5-4.1c-15.4,5.4-25.8,10.2-26,10.3
					c-9.3,4.7-16.7,7.3-21.6,8.8c0.6-0.2,1.2-0.4,1.9-0.6l0,0v7.2h-3l-2.1-4.6V380c-0.7,0.2-1.3,0.3-1.8,0.4v10.3h0.3v20.6h-10.9
					l-11-3.8c0.1-0.3,0.2-0.8-0.3-1.3c0,0,0.7-1-0.2-1.7c0,0,0.6-0.7-0.1-1.5c0,0,0.7-1-0.1-1.7c0,0,0.4-1.1-0.1-1.6
					c0,0,0.4-1.1-0.1-1.6c0,0,0.2-1-0.2-1.5c0,0,0.4-0.2,0.4-0.5c0,0,0-0.3-0.1-0.6h-1.6c0,0,0-0.1,0-0.1c0,0,0-0.2,0.1-0.4h-2.4
					V390h2.2c0-0.2,0-0.5-0.1-0.8c0,0,0.3-0.7-0.1-1.8c0,0,0,0,0,0c-0.4-1.1-0.1-0.2,0-0.5c0.1-0.2,0.1-0.6-0.1-0.9
					c0,0-0.1,0-0.1-0.2c0,0-1.4-2.9-13.7-3.2c0,0,0.3-0.2,0.3-0.4v-0.7c0,0-0.2-0.8-2.5-1v-2.2l0,0v-1.9c0,0,0.7-0.5-0.1-0.9
					c0,0-0.3-1-1.2-1.3v-0.8c0,0,0-0.2-0.6-0.2l0-0.6c0.1,0,0.1,0.1,0.2,0.1c0,0,0,0,0,0c0,0,0,0,0,0c0,0,0-0.1,0-0.1
					c-0.1-0.1-0.2-0.1-0.2-0.2l0-1c0,0,0-0.1,0-0.1c0,0,0,0,0,0l-0.1,0.9c-0.1-0.1-0.1-0.1-0.2-0.1c0,0-0.1,0-0.1,0.1c0,0,0,0,0,0.1
					c0,0,0.1,0.1,0.2,0.1l0,0.6h0v0c-0.7,0-0.7,0.2-0.7,0.2v0.8c-0.9,0.3-1.2,1.3-1.2,1.3c-0.8,0.4-0.1,0.9-0.1,0.9v1.9l0,0v2.2
					c-2.3,0.2-2.5,1-2.5,1v0.7c0,0.2,0.3,0.4,0.3,0.4c-12.3,0.3-13.7,3.2-13.7,3.2c0,0.2-0.1,0.2-0.1,0.2c-0.2,0.2-0.2,0.6-0.1,0.9
					c0.1,0.2,0.4-0.6,0,0.5c0,0,0,0,0,0c-0.4,1.1-0.1,1.8-0.1,1.8c-0.3,0.9,0,1.7,0,1.7c-0.2,0.7,0,1.1,0,1.1
					c-0.3,1,0.1,1.2-0.2,1.8c0,0,0,0,0,0c-0.3,0.5,0,1.5,0,1.5c-0.4,0.6-0.1,1.3-0.1,1.3c-0.2,0.1-0.1,0.5-0.1,0.5
					c-0.4,0.7-0.1,1.4-0.1,1.4c-0.3,0.7-0.1,1.5-0.1,1.5c0,0.2-0.2,0.6-0.2,0.6c-0.4,0.6,0,1,0,1c-0.1,0.1,0,0.2,0,0.2
					c-0.2,0.2-0.2,0.5-0.2,0.8l-1.1-0.5h-5.7v24.8h463.8V397.3z M989.1,392.4v0.9c-0.1,0-0.1,0.3-0.1,0.3c-0.1,0-0.8,0.1-0.8,0.1
					c-0.2,0-0.4,0.1-0.4,0.1s-0.4,0-0.5,0c-0.1,0-0.3,0.1-0.5,0c-0.3-0.1-0.9,0.1-0.9,0.1c-0.1,0-0.4,0-0.5,0
					c-0.1,0-0.2,0.1-0.4,0.1c-0.2,0-0.6,0.1-0.6,0.1l0.2-3.6c2.1-1.4,4.7-0.4,4.7-0.4l-0.1,2.4c0,0,0.2,0,0.2,0
					C989.2,392.3,989.1,392.4,989.1,392.4z M1010.8,393.9c-0.2,0-0.3-0.1-0.4-0.1c-0.1,0-0.4,0-0.5,0c0,0-0.6-0.1-0.9-0.1
					c-0.3,0.1-0.4,0-0.6,0c-0.1,0-0.5,0-0.5,0s-0.1-0.1-0.4-0.1c0,0-0.7,0-0.8-0.1c0,0,0-0.3-0.1-0.3v-0.9c0,0-0.1-0.1-0.2-0.2
					c0,0,0.1,0,0.2,0l-0.1-2.4c0,0,2.6-1,4.7,0.4l0.2,3.6C1011.4,393.9,1011,393.8,1010.8,393.9z M1284.5,379.3v4.7l-1.1,1.8h-2.9
					L1284.5,379.3z M1279.7,390.7h0.9l-0.9,1.5V390.7z M1279.7,398v-2.8l2.6-4.5h2.2v11.2c0,0.1,0,0.2,0.1,0.3
					c-1.6-1.2-3.3-2.6-5.1-3.9C1279.6,398.2,1279.7,398.1,1279.7,398z M1275.6,380.8l2.6-4v9.1h-2.6V380.8z M1275.6,395.3V394l2-3.4
					h0.6v4.1l-1,1.8c-0.5-0.4-1-0.8-1.6-1.1C1275.6,395.4,1275.6,395.3,1275.6,395.3z M1269.6,382.4l4.5-7.2v5.1l-3.5,5.5h-1V382.4z
					 M1274.1,390.7v2.9l-0.3,0.5c-1.3-0.9-2.7-1.9-4.1-2.9v-0.6H1274.1z M1272.4,385.8l1.7-2.6v2.6H1272.4z M1268.1,371.8V382
					l-2.4,3.8h-0.2v-10.3l0,0L1268.1,371.8z M1268.1,384.8v1h-0.6L1268.1,384.8z M1259.9,376.3l4.2-5.8v4.4l-4.2,5.9V376.3z
					 M1259.9,384.9v-1.4l4.2-5.9v8.2h-2.9C1260.8,385.5,1260.3,385.2,1259.9,384.9C1259.9,384.9,1259.9,384.9,1259.9,384.9z
					 M1255.4,371l3-3.9v8.8l-3,4.2V371z M1258.4,378.4v4.6l-0.5,0.7c-0.8-0.4-1.5-0.9-2.3-1.4L1258.4,378.4z M1255.4,384
					c1,0.6,2,1.2,3,1.8h-3V384z M1253.9,365.9v4.6l-3.8,5l0-4.6L1253.9,365.9z M1250.1,379.3l0-1.3l3.8-5v8.4
					C1252.6,380.7,1251.3,380,1250.1,379.3z M1253.9,383.1v2.6h-3.7l-0.1-4.8C1251.4,381.7,1252.6,382.4,1253.9,383.1z M1245.4,367
					l3-3.5l0.1,6.9l-3,3.9V367z M1245.4,376.8l3.1-4l0,4.6l-0.5,0.7C1247.1,377.7,1246.3,377.3,1245.4,376.8L1245.4,376.8z
					 M1245.4,378.5c1.1,0.6,2.1,1.1,3.1,1.7l0.1,5.6h-3.2V378.5z M1240.2,366.4l3.7-4.4v4.4l-3.7,4.3V366.4z M1240.2,373.1l3.7-4.3
					v7.3c-1.2-0.6-2.4-1.2-3.7-1.8V373.1z M1240.2,375.9c1.2,0.6,2.5,1.2,3.7,1.8v8.1h-3.7V375.9z M1235.9,363l2.8-3.1v5.9l-2.8,3.4
					V363z M1235.9,371.5l2.8-3.4v4.4l-0.6,0.7v0c-0.7-0.4-1.5-0.7-2.3-1.1V371.5z M1235.9,373.8c0.9,0.4,1.9,0.9,2.8,1.3v10.6h-2.8
					V373.8z M1230.6,362.5l3.8-4.1v3.9l-3.8,4.1V362.5z M1234.4,364.6v6.4l-0.3,0.4c-1.1-0.5-2.3-1-3.5-1.5v-1.1h0L1234.4,364.6z
					 M1230.6,371.5c1.3,0.6,2.5,1.1,3.8,1.7v12.7h-3.8V371.5z M1225.6,360.5l3.4-3.6v5.1l-3.4,3.7V360.5z M1229.1,364.1v4l-0.7,0.8
					c-0.9-0.4-1.8-0.7-2.7-1.1L1229.1,364.1z M1225.6,369.4c1.2,0.5,2.3,0.9,3.4,1.4v15h-3.4V369.4z M1221,358.8l3.1-3.4v4.4
					l-3.1,3.3V358.8z M1221,365.3l3.1-3.3v5.1c-1-0.4-2.1-0.8-3.1-1.2V365.3z M1221,367.6c1.1,0.4,2.1,0.8,3.1,1.2v17h-3.1V367.6z
					 M1216.2,357.4l3.3-3.4v4.1l-3.3,3.5V357.4z M1216.2,363.9l3.3-3.5v4.3l-0.4,0.4c0,0,0,0.1-0.1,0.1c-0.9-0.3-1.8-0.6-2.8-1
					V363.9z M1216.2,365.9c1.1,0.4,2.2,0.8,3.3,1.1v18.7h-3.3V365.9z M1211.9,355.7l2.8-2.9v4l-2.8,2.9V355.7z M1211.9,361.9
					L1211.9,361.9l2.8-2.9v4.3l-0.3,0.4v0c-0.8-0.3-1.7-0.5-2.5-0.8V361.9z M1214.7,365.4v20.4h-2.8v-21.3
					C1212.8,364.7,1213.8,365.1,1214.7,365.4z M1206.3,356.2l4.1-4v2.9l-4.1,4.1V356.2z M1210.4,357.2v4.1l-0.7,0.8
					c0,0,0,0.1-0.1,0.1c-1-0.3-2.1-0.6-3.1-0.9L1210.4,357.2z M1206.3,362.8c1.4,0.4,2.7,0.8,4.1,1.2v21.8h-4.1V362.8z M1202,353.9
					l2.8-2.8v4.4l-2.8,2.8V353.9z M1204.8,357.7v3.1c-0.8-0.2-1.7-0.5-2.5-0.7L1204.8,357.7z M1202,361.6c1,0.2,1.9,0.5,2.8,0.8
					v23.4h-2.8V361.6z M1197.2,353.7l3.3-3.2v2.8l-3.3,3.2V353.7z M1197.2,358.6l3.3-3.2v4.3c-1.1-0.3-2.2-0.5-3.3-0.8V358.6z
					 M1197.2,360.4c1.1,0.3,2.2,0.5,3.3,0.8v24.6h-3.3V360.4z M1193.2,351.6l2.5-2.6v4l-2.5,2.5V351.6z M1193.2,357.6L1193.2,357.6
					l2.5-2.5v2.8l-0.2,0.2c-0.1,0.1-0.2,0.2-0.2,0.3c-0.7-0.2-1.4-0.3-2.1-0.5V357.6z M1195.7,360.1v25.7h-2.5v-26.2
					C1194,359.7,1194.9,359.9,1195.7,360.1z M1187.8,352.5l3.9-4v2.6l-3.9,4.1V352.5z M1191.7,353.2v3.8l-0.6,0.6c0,0,0,0,0,0
					c-1-0.2-2-0.4-3.1-0.5L1191.7,353.2z M1187.8,358.6c1.3,0.2,2.6,0.5,3.9,0.7v26.5h-3.9V358.6z M1183,350.9l3.2-3.4v4.4l-3.2,3.3
					V350.9z M1186.2,354v2.7l-0.1,0.1c-0.8-0.1-1.5-0.2-2.3-0.3L1186.2,354z M1183,357.8c1.1,0.1,2.2,0.3,3.2,0.5v27.5h-3.2V357.8z
					 M1178.3,351.4l3.2-3.6v2.5l-3.2,3.4V351.4z M1181.5,352.5v3.6c-1-0.1-2-0.2-3-0.4L1181.5,352.5z M1178.3,357.2
					c1.1,0.1,2.2,0.2,3.2,0.4v28.2h-3.2V357.2z M1173.8,350.3l2.9-3.3v3.9l-2.9,3.3V350.3z M1176.8,353.1v2.3l-0.1,0.1c0,0,0,0,0,0
					c-0.6-0.1-1.3-0.1-1.9-0.2L1176.8,353.1z M1173.8,356.8c1,0.1,2,0.2,2.9,0.3v28.7h-2.9V356.8z M1172.3,347.5v2.2l-2,2.3
					l-0.7-0.9L1172.3,347.5z M1172.3,352v2.7l-1.1-1.4L1172.3,352z M1170.8,355.1c-0.4,0-0.7,0-1.1-0.1l0.6-0.6L1170.8,355.1z
					 M1169.5,356.5c0.9,0,1.9,0.1,2.8,0.2v29.1h-2.8V356.5z M1165,347.5l2.7,3.6l-0.7,0.9l-2-2.3V347.5z M1167.7,355
					c-0.4,0-0.7,0-1.1,0.1l0.5-0.7L1167.7,355z M1165,352l1.1,1.2l-1.1,1.4V352z M1165,356.7c1-0.1,2-0.1,3-0.2v29.3h-3V356.7z
					 M1160.6,346.9l2.9,3.3v3.8l-2.9-3.3V346.9z M1162.6,355.4c-0.6,0.1-1.3,0.1-1.9,0.2c0,0,0,0,0,0l-0.1-0.1v-2.3L1162.6,355.4z
					 M1160.6,357.1c1-0.1,1.9-0.2,2.9-0.3v29h-2.9V357.1z M1155.8,347.8l3.2,3.6v2.4l-3.2-3.4V347.8z M1155.8,352.5l3,3.2
					c-1,0.1-2,0.2-3,0.4V352.5z M1155.8,357.6c1.1-0.1,2.2-0.3,3.2-0.4v28.6h-3.2V357.6z M1151.1,347.5l3.2,3.4v4.2l-3.2-3.3V347.5z
					 M1151.1,354L1151.1,354l2.4,2.4c-0.8,0.1-1.5,0.2-2.3,0.3l-0.1-0.1V354z M1154.3,357.8v27.9h-3.2v-27.5
					C1152.2,358.2,1153.2,358,1154.3,357.8z M1145.7,348.5l3.9,4v2.6l-3.9-4.1V348.5z M1149.4,357.1c-1,0.2-2.1,0.4-3.1,0.6
					c0,0,0,0,0,0l-0.6-0.6v-3.8L1149.4,357.1z M1145.7,359.3c1.3-0.3,2.6-0.5,3.9-0.7v27.2h-3.9V359.3z M1141.7,349l2.5,2.6v3.9
					l-2.5-2.5V349z M1141.7,355.2l2.5,2.5v0.4c-0.7,0.1-1.4,0.3-2.1,0.4c0-0.1-0.1-0.2-0.2-0.4l-0.2-0.2V355.2z M1141.7,360.1
					c0.8-0.2,1.7-0.4,2.5-0.5v26.2h-2.5V360.1z M1136.9,350.5l3.3,3.2v2.8l-3.3-3.2V350.5z M1136.9,355.4l3.3,3.2v0.3
					c-1.1,0.3-2.2,0.5-3.3,0.8V355.4z M1136.9,361.2c1.1-0.3,2.2-0.5,3.3-0.8v25.3h-3.3V361.2z M1132.5,351.1l2.8,2.8v4.4l-2.8-2.8
					V351.1z M1132.5,357.7l2.6,2.5c-0.9,0.2-1.7,0.4-2.6,0.7V357.7z M1132.5,362.4c0.9-0.3,1.9-0.5,2.8-0.8v24.2h-2.8V362.4z
					 M1127,352.2l4,4v3l-4-4.1V352.2z M1127,357.2l3.9,4c-1.1,0.3-2.1,0.6-3.1,0.9c0,0,0-0.1-0.1-0.1l-0.7-0.8V357.2z M1127,364
					c1.3-0.4,2.7-0.8,4-1.2v23h-4V364z M1122.6,352.8l2.8,2.9v4.1l-2.8-2.9V352.8z M1122.6,359L1122.6,359l2.8,2.9v1
					c-0.8,0.3-1.7,0.5-2.5,0.8c0,0,0,0,0,0l-0.3-0.4V359z M1125.5,364.5v21.3h-2.8v-20.4C1123.6,365.1,1124.5,364.8,1125.5,364.5z
					 M1117.9,354.1l3.3,3.4v4.3l-3.3-3.5V354.1z M1117.9,360.4l3.3,3.5v0.4c-0.9,0.3-1.8,0.6-2.7,1c0-0.1,0-0.1-0.1-0.2l-0.4-0.4
					V360.4z M1117.9,367.1c1.1-0.4,2.2-0.8,3.3-1.1v19.9h-3.3V367.1z M1113.2,355.4l3.1,3.4v4.3l-3.1-3.3V355.4z M1113.2,362
					l3.1,3.3v0.7c-1.1,0.4-2.1,0.8-3.1,1.2V362z M1113.2,368.8c1-0.4,2.1-0.8,3.1-1.2v18.2h-3.1V368.8z M1108.2,356.8l3.5,3.6v5.2
					l-3.5-3.7V356.8z M1108.2,364.1l3.4,3.7c-0.9,0.4-1.8,0.7-2.7,1.1l-0.7-0.8V364.1z M1108.2,370.8c1.1-0.5,2.3-0.9,3.5-1.4v16.4
					h-3.5V370.8z M1102.9,358.5l3.8,4.1v4l-3.8-4.1V358.5z M1102.9,364.6l3.8,4.1v1.1c-1.2,0.5-2.3,1-3.4,1.5l-0.3-0.4V364.6z
					 M1102.9,373.2c1.2-0.6,2.5-1.1,3.8-1.7v14.3h-3.8V373.2z M1098.6,359.9l2.8,3.1v6.2l-2.8-3.4V359.9z M1098.6,368.2
					L1098.6,368.2l2.8,3.4v0.7c-0.8,0.3-1.5,0.7-2.2,1c0,0,0,0,0,0l-0.6-0.7V368.2z M1101.4,373.9v11.9h-2.8v-10.6
					C1099.5,374.8,1100.5,374.3,1101.4,373.9z M1093.4,362l3.7,4.4v4.4l-3.7-4.3V362z M1093.4,368.7l3.7,4.3v1.2
					c-1.2,0.6-2.5,1.2-3.7,1.8V368.7z M1093.4,377.8c1.2-0.6,2.4-1.2,3.7-1.8v9.9h-3.7V377.8z M1091.9,360.5v4.1l-2.6-3.1
					C1090.1,361.2,1091,360.9,1091.9,360.5z M1089,363.5l3,3.5v7.4l-3-3.9L1089,363.5z M1088.9,372.8l3.1,4v0.1
					c-0.9,0.4-1.7,0.9-2.5,1.3l-0.6-0.7L1088.9,372.8z M1088.8,380.2c1-0.6,2.1-1.1,3.1-1.7v7.2h-3.2L1088.8,380.2z M1087.5,362.2
					l-0.1,6.3l-3.7-4.8C1084.9,363.1,1086.1,362.7,1087.5,362.2z M1083.5,365.9L1083.5,365.9l3.9,5l0,4.6l-3.8-5V365.9z
					 M1083.5,381.5V373l3.8,5l0,1.4C1086,380,1084.7,380.7,1083.5,381.5z M1087.3,381.1l0,4.7h-3.7v-2.6
					C1084.7,382.5,1086,381.8,1087.3,381.1z M1082,364.3v4.3l-2.5-3.3C1080.3,364.9,1081.1,364.6,1082,364.3z M1079,367.1l3,3.9v9
					l-3-4.2V367.1z M1082,384.1v1.7h-2.9C1080,385.2,1081,384.6,1082,384.1z M1079,383v-4.6l2.9,4c-0.8,0.5-1.6,0.9-2.3,1.4
					L1079,383z M1073.3,367.8c1.2-0.5,2.6-1.1,4.2-1.8v7.7l-4.2-5.8V367.8z M1073.3,370.5l4.2,5.8v4.5l-4.2-5.9V370.5z
					 M1073.3,377.6L1073.3,377.6l4.2,5.9v1.4c0,0,0,0.1,0,0.1c-0.4,0.3-0.8,0.5-1.2,0.8h-3V377.6z M1071.8,368.5v4.4l-2.3-3.3
					C1070,369.3,1070.7,368.9,1071.8,368.5z M1069.2,371.8l2.6,3.6v10.3h-0.2l-2.4-3.8V371.8z M1069.2,384.8l0.6,1h-0.6V384.8z
					 M1067.7,370.3v9.2l-4.4-7.1C1064.7,371.8,1066.2,371.1,1067.7,370.3z M1063.2,375.2l4.5,7.2v3.4h-1l-3.5-5.5V375.2z
					 M1067.7,390.7v0.6c-1.4,1-2.8,1.9-4.1,2.9l-0.3-0.6v-2.9H1067.7z M1063.2,383.1l1.7,2.6h-1.7V383.1z M1061.7,373.1v4.8
					l-2.4-3.7C1060.1,373.9,1060.9,373.5,1061.7,373.1z M1059.2,376.7l2.6,4v5h-2.6V376.7z M1059.2,390.7h0.6l2,3.4v1.2
					c0,0.1,0,0.1,0,0.2c-0.5,0.4-1,0.8-1.6,1.1l-1.1-1.8V390.7z M1057.7,374.9v9.4l-4.6-7.6C1054.5,376.2,1056,375.6,1057.7,374.9z
					 M1052.8,379.3l3.9,6.5h-2.9l-1.1-1.8V379.3z M1057.7,390.7v1.5l-0.9-1.5H1057.7z M1052.8,401.9v-11.2h2.2l2.6,4.5v2.8
					c0,0.2,0.1,0.3,0.2,0.4c-1.9,1.4-3.6,2.8-5.2,4C1052.7,402.3,1052.8,402.1,1052.8,401.9z M1049.4,378c0.6-0.2,1.2-0.4,1.9-0.6v4
					l-1.9-3.2V378z M1049.4,381.1l1.9,3.2v1.4h-1.9V381.1z M1049.4,390.7h1.9v9.1l-1.9-4.2V390.7z M1049.4,399.3l1.9,4.2
					c-0.6,0.5-1.1,0.9-1.7,1.4l-0.2-0.6V399.3z M1047.9,390.7v1.6l-0.7-1.6H1047.9z M1045.5,390.7L1045.5,390.7l2.4,5.3v4.5
					l-3.9-9.8H1045.5z M1042.9,384.8l0.4,1h-0.4V384.8z M1042.9,391.8L1042.9,391.8l5,12.7v1.2c0,0.1,0,0.3,0.1,0.4
					c-2,1.7-3.8,3.2-5.2,4.5V391.8z M1280.2,405.1l-4.7,2.8l2.5,1.5h-7.5v1.9h-226.1c5.2-4.7,14.5-12.4,26.9-20.6h194.7
					c7.9,5.2,14.5,10.2,19.6,14.4H1280.2z M1287.9,404.3l-0.2,0.5c-0.5-0.4-1.1-0.9-1.7-1.4l1.9-4.1V404.3z M1287.9,395.6l-1.9,4.2
					v-9.1h1.9V395.6z M1287.9,385.8h-1.9v-1.4l1.9-3.2V385.8z M1289.4,390.7h0.7l-0.7,1.6V390.7z M1289.4,395.9l2.4-5.3h1.5
					l-3.9,9.8L1289.4,395.9L1289.4,395.9z M1294.5,401.9l-4.6,1.6l4.6-11.7V401.9z M1294.5,385.8h-0.4l0.4-1V385.8z M1297.6,383.9
					l0,1.9h-0.8L1297.6,383.9z M1296.2,401.8V401h-0.2v-10.3h1.7l0,11.1H1296.2z"/>
				<polygon class="st1" points="1275.6,390.7 1275.9,390.7 1275.6,391.1 				"/>
				<polygon class="st1" points="1061.7,390.7 1061.7,391.1 1061.5,390.7 				"/>
				<path class="st1" d="M1052.5,402.5C1052.6,402.5,1052.6,402.5,1052.5,402.5C1052.6,402.5,1052.6,402.5,1052.5,402.5
					L1052.5,402.5z"/>
				<path class="st1" d="M1278,374.2c-0.8-0.3-1.6-0.7-2.4-1.1v0.1c0.8,0.4,1.6,0.7,2.3,1L1278,374.2z"/>
				<path class="st1" d="M1297.3,380.6c-0.2,0-0.5-0.1-0.8-0.2l-0.1,0.2c0.3,0.1,0.6,0.1,0.8,0.2L1297.3,380.6z"/>
				<path class="st1" d="M1284.3,376.7c-1.4-0.5-3-1.1-4.6-1.8v0.1c1.6,0.7,3.1,1.3,4.5,1.8L1284.3,376.7z"/>
				<path class="st1" d="M972.4,396.7v1h6.7c0-0.3,0-0.7,0.1-1H972.4z"/>
				<path class="st1" d="M1040.2,395.4h0.9v-4.7h-23.2c0,0.2,0.1,0.3,0.1,0.3c0.4,0.6,0,1,0,1c0.1,0.1,0,0.2,0,0.2
					c0.4,0.5,0.2,1.2,0.2,1.2l0.1,1.4c0.2,0,0.3,0.3,0.3,0.3c0.1,0.1,0.1,0.1,0.1,0.2L1040.2,395.4L1040.2,395.4z"/>
				<path class="st1" d="M1016.8,392c0.3,1-0.1,1.2,0.2,1.8c0,0,0,0,0,0c0.2,0.3,0.2,0.8,0.1,1.1h0.8c0-0.1-0.1-0.2-0.1-0.3
					c0,0,0.2-0.7-0.1-1.5c0,0,0.3-0.7-0.1-1.4c0,0,0.1-0.4-0.1-0.5c0,0,0.3-0.6,0-1.2h-0.4c0,0.5-0.2,0.9-0.2,0.9
					C1017,391.6,1016.8,392,1016.8,392z"/>
				<path class="st1" d="M1116.4,352.8c-0.9,0.3-1.9,0.5-2.8,0.8l0,0C1114.5,353.4,1115.4,353.1,1116.4,352.8L1116.4,352.8z"/>
				<path class="st1" d="M1111.7,354.1c-1,0.3-2.1,0.6-3.1,0.9l0,0C1109.6,354.8,1110.7,354.5,1111.7,354.1L1111.7,354.1
					L1111.7,354.1z"/>
				<path class="st1" d="M1121.1,351.6c-1,0.2-1.9,0.5-2.8,0.7l0,0C1119.2,352.1,1120.2,351.9,1121.1,351.6L1121.1,351.6
					L1121.1,351.6z"/>
				<path class="st1" d="M1125.3,350.6c-0.7,0.2-1.5,0.3-2.2,0.5l0.1,0.1C1123.9,351,1124.6,350.8,1125.3,350.6L1125.3,350.6z"/>
				<path class="st1" d="M1106.7,355.6c-1.1,0.4-2.3,0.7-3.4,1.1l0,0C1104.5,356.3,1105.6,356,1106.7,355.6L1106.7,355.6z"/>
				<path class="st1" d="M1101.4,357.3c-0.8,0.3-1.6,0.5-2.4,0.8h0C1099.8,357.8,1100.6,357.6,1101.4,357.3L1101.4,357.3
					L1101.4,357.3z"/>
				<path class="st1" d="M1149.6,346.2c-1.2,0.1-2.4,0.3-3.5,0.4l0.1,0.1c1.1-0.2,2.3-0.3,3.4-0.4V346.2z"/>
				<path class="st1" d="M1144.2,347c-0.7,0.1-1.4,0.2-2.1,0.3l0.1,0.1c0.7-0.1,1.3-0.2,2-0.3V347z"/>
				<path class="st1" d="M1154.1,345.9C1154.1,345.8,1154.1,345.8,1154.1,345.9c-0.8,0-1.6,0.1-2.3,0.1l0.1,0.1
					C1152.6,346.1,1153.4,346,1154.1,345.9L1154.1,345.9z"/>
				<path class="st1" d="M1130.7,349.4c-1.2,0.3-2.5,0.5-3.7,0.8l0.1,0.1C1128.3,350,1129.6,349.7,1130.7,349.4L1130.7,349.4z"/>
				<path class="st1" d="M1134.9,348.5c-0.8,0.2-1.6,0.3-2.4,0.5l0.1,0.1C1133.4,348.9,1134.2,348.8,1134.9,348.5L1134.9,348.5z"/>
				<path class="st1" d="M1140.2,347.6c-1.1,0.2-2.2,0.4-3.3,0.6v0.1c1.1-0.2,2.2-0.4,3.3-0.6V347.6z"/>
				<path class="st1" d="M1042.9,379.9L1042.9,379.9c0.9-0.2,2-0.5,3.1-0.9C1044.8,379.4,1043.8,379.7,1042.9,379.9z"/>
				<path class="st1" d="M1294.5,379.9c-1.3-0.3-3-0.8-5-1.4l0,0.1v0.1c2,0.6,3.7,1.1,5,1.5V379.9z"/>
				<path class="st1" d="M1287.9,378c-0.6-0.2-1.2-0.4-1.9-0.7v0.2c0.6,0.2,1.3,0.4,1.9,0.7V378z"/>
				<path class="st1" d="M1243.7,359.9c-1.1-0.4-2.3-0.8-3.5-1.2v0.2c1.1,0.4,2.3,0.8,3.4,1.2L1243.7,359.9z"/>
				<path class="st1" d="M1200.5,348.1c-1.1-0.2-2.2-0.4-3.3-0.6v0.2c1.1,0.2,2.2,0.4,3.3,0.6V348.1z"/>
				<path class="st1" d="M1238.3,358.1c-0.8-0.3-1.6-0.5-2.5-0.8v0.2c0.8,0.3,1.5,0.5,2.3,0.8L1238.3,358.1z"/>
				<path class="st1" d="M1204.8,349L1204.8,349c-0.8-0.2-1.6-0.3-2.4-0.5l-0.2,0.2c0.8,0.2,1.6,0.3,2.4,0.5L1204.8,349z"/>
				<path class="st1" d="M1195.3,347.3c-0.7-0.1-1.4-0.2-2.1-0.3v0.2c0.6,0.1,1.3,0.2,1.9,0.3L1195.3,347.3z"/>
				<path class="st1" d="M1228.8,355c-1-0.3-2.1-0.6-3.1-0.9v0.2c1,0.3,2,0.6,3,0.9L1228.8,355z"/>
				<path class="st1" d="M1191.3,346.7c-1.2-0.2-2.4-0.3-3.5-0.4v0.2c1.1,0.1,2.2,0.3,3.4,0.4L1191.3,346.7z"/>
				<path class="st1" d="M1253.7,363.6c-1.2-0.5-2.5-1-3.8-1.5v0.2c1.3,0.5,2.5,1,3.7,1.4L1253.7,363.6z"/>
				<path class="st1" d="M1248.1,361.5c-0.9-0.3-1.8-0.6-2.7-1v0.2c0.9,0.3,1.7,0.6,2.5,0.9L1248.1,361.5z"/>
				<path class="st1" d="M1219.1,352.3c-0.9-0.2-1.9-0.5-2.9-0.7v0.2c0.9,0.2,1.8,0.5,2.7,0.7L1219.1,352.3z"/>
				<path class="st1" d="M1223.8,353.6c-0.9-0.3-1.8-0.5-2.8-0.8v0.2c0.9,0.2,1.8,0.5,2.6,0.7L1223.8,353.6z"/>
				<path class="st1" d="M1214.3,351.1c-0.7-0.2-1.5-0.4-2.2-0.5l-0.2,0.2c0.8,0.2,1.5,0.4,2.2,0.5L1214.3,351.1z"/>
				<path class="st1" d="M1210.3,350.2c-1.2-0.3-2.5-0.5-3.7-0.8l-0.2,0.2c1.2,0.3,2.5,0.5,3.7,0.8L1210.3,350.2z"/>
				<path class="st1" d="M1234,356.6c-1.1-0.4-2.3-0.7-3.4-1.1v0.2c1.1,0.3,2.2,0.7,3.3,1L1234,356.6z"/>
				<path class="st1" d="M1257.9,365.2c-0.8-0.3-1.7-0.7-2.5-1v0.2c0.9,0.3,1.7,0.6,2.4,1L1257.9,365.2z"/>
				<path class="st1" d="M1163.3,345.2c-0.7,0-1.4,0-2.1,0.1l0.2,0.2c0.7,0,1.4-0.1,2.1-0.1L1163.3,345.2z"/>
				<path class="st1" d="M1168,345.2c-0.1,0-0.2,0-0.3,0c0,0-0.1,0-0.1,0c-0.2,0-0.4,0-0.6,0c-0.6,0-1.2,0-1.8,0l0.1,0.2
					c0.9,0,1.8,0,2.7,0V345.2z"/>
				<path class="st1" d="M1274.1,372.4c-1.4-0.7-2.9-1.4-4.4-2.1v0.1c1.5,0.8,3,1.4,4.4,2.1L1274.1,372.4z"/>
				<path class="st1" d="M1264.1,367.8c-1.2-0.5-2.6-1.1-4.2-1.7v0.2c1.6,0.6,3,1.2,4.2,1.7V367.8z"/>
				<path class="st1" d="M1159.1,345.4c-1.1,0.1-2.1,0.1-3.2,0.2l0.1,0.1c1-0.1,2-0.1,3-0.2V345.4z"/>
				<path class="st1" d="M1267.9,369.5c-0.5-0.2-1.3-0.6-2.4-1v0.2c0.9,0.4,1.7,0.7,2.3,1L1267.9,369.5z"/>
				<path class="st1" d="M1172.2,345.2c-0.6,0-1.2,0-1.7,0c-0.2,0-0.4,0-0.7,0c0,0-0.1,0-0.1,0c-0.1,0-0.1,0-0.1,0v0.2
					c0.8,0,1.7,0,2.5,0L1172.2,345.2z"/>
				<path class="st1" d="M1181.4,345.6c-1.1-0.1-2.1-0.1-3.2-0.2v0.2c1,0.1,2,0.1,3,0.2L1181.4,345.6z"/>
				<path class="st1" d="M1176.2,345.3c-0.7,0-1.4,0-2.1-0.1l-0.1,0.2c0.7,0,1.4,0,2.1,0.1L1176.2,345.3z"/>
				<path class="st1" d="M1185.6,346c-0.8-0.1-1.5-0.2-2.3-0.2c0,0,0,0.1-0.1,0.1l-0.1,0.1c0.7,0.1,1.5,0.1,2.2,0.2L1185.6,346z"/>
			</g>
		</g>
		<g>
			<polygon points="430.9,64.5 430.5,64.5 361.2,64.5 361.2,424.8 430.5,424.8 430.9,424.8 461,424.8 461,64.5 			"/>
			<g>
				<polygon class="st2" points="368.8,72.7 368.8,85.4 368.8,429.8 371.4,429.8 371.4,85.4 371.4,72.7 371.4,68.3 368.8,68.3 				
					"/>
				<polygon class="st2" points="377.3,72.7 377.3,85.4 377.3,429.8 379.8,429.8 379.8,85.4 379.8,72.7 379.8,68.3 377.3,68.3 				
					"/>
				<polygon class="st2" points="385.8,72.7 385.8,85.4 385.8,429.8 388.3,429.8 388.3,85.4 388.3,72.7 388.3,68.3 385.8,68.3 				
					"/>
				<polygon class="st2" points="394.3,72.7 394.3,85.4 394.3,429.8 396.8,429.8 396.8,85.4 396.8,72.7 396.8,68.3 394.3,68.3 				
					"/>
				<polygon class="st2" points="402.7,72.7 402.7,85.4 402.7,429.8 405.3,429.8 405.3,85.4 405.3,72.7 405.3,68.3 402.7,68.3 				
					"/>
				<polygon class="st2" points="411.2,72.7 411.2,85.4 411.2,429.8 413.7,429.8 413.7,85.4 413.7,72.7 413.7,68.3 411.2,68.3 				
					"/>
				<polygon class="st2" points="419.7,68.3 419.7,72.7 419.7,85.4 419.7,429.8 422.2,429.8 422.2,85.4 422.2,72.7 422.2,68.3 				
					"/>
			</g>
			<g>
				<polygon class="st2" points="442,84.5 442,71.8 442,67.5 439.4,67.5 439.4,71.8 439.4,84.5 439.4,421.8 442,421.8 				"/>
				<polygon class="st2" points="454.1,67.5 454.1,71.8 454.1,84.5 454.1,421.8 456.7,421.8 456.7,84.5 456.7,71.8 456.7,67.5 				
					"/>
				<polygon class="st2" points="449.3,84.5 449.3,71.8 449.3,67.5 446.8,67.5 446.8,71.8 446.8,84.5 446.8,421.8 449.3,421.8 				
					"/>
				<polygon class="st2" points="434.7,84.5 434.7,71.8 434.7,67.5 432.3,67.5 432.3,421.8 434.7,421.8 				"/>
			</g>
		</g>
		<g>
			<g>
				<g>
					<rect x="233.4" y="26" width="34.8" height="400.1"/>
					<g>
						<rect x="287.5" y="26" width="34.8" height="400.1"/>
					</g>
					<rect x="260.7" y="26" width="36.1" height="400.1"/>
				</g>
			</g>
			<g>
				<rect x="261.7" y="40.4" class="st2" width="34.3" height="5.1"/>
				<rect x="261.7" y="50.1" class="st2" width="34.3" height="5.1"/>
				<rect x="261.7" y="59.9" class="st2" width="34.3" height="5.1"/>
				<rect x="261.7" y="69.6" class="st2" width="34.3" height="5.1"/>
				<rect x="261.7" y="79.4" class="st2" width="34.3" height="5.1"/>
				<rect x="261.7" y="89.1" class="st2" width="34.3" height="5.1"/>
				<rect x="261.7" y="98.9" class="st2" width="34.3" height="5.1"/>
				<rect x="261.7" y="108.6" class="st2" width="34.3" height="5.1"/>
				<rect x="261.7" y="118.4" class="st2" width="34.3" height="5.1"/>
				<rect x="261.7" y="128.1" class="st2" width="34.3" height="5.1"/>
				<rect x="261.7" y="137.9" class="st2" width="34.3" height="5.1"/>
				<rect x="261.7" y="147.6" class="st2" width="34.3" height="5.1"/>
				<rect x="261.7" y="157.4" class="st2" width="34.3" height="5.1"/>
				<rect x="261.7" y="167.1" class="st2" width="34.3" height="5.1"/>
				<rect x="261.7" y="176.9" class="st2" width="34.3" height="5.1"/>
				<rect x="261.7" y="186.6" class="st2" width="34.3" height="5.1"/>
				<rect x="261.7" y="196.4" class="st2" width="34.3" height="5.1"/>
				<rect x="261.7" y="206.1" class="st2" width="34.3" height="5.1"/>
				<rect x="261.7" y="215.9" class="st2" width="34.3" height="5.1"/>
				<rect x="261.7" y="225.6" class="st2" width="34.3" height="5.1"/>
				<rect x="261.7" y="235.4" class="st2" width="34.3" height="5.1"/>
				<rect x="261.7" y="245.1" class="st2" width="34.3" height="5.1"/>
				<rect x="261.7" y="254.9" class="st2" width="34.3" height="5.1"/>
				<rect x="261.7" y="264.6" class="st2" width="34.3" height="5.1"/>
				<rect x="261.7" y="274.4" class="st2" width="34.3" height="5.1"/>
				<rect x="261.7" y="284.1" class="st2" width="34.3" height="5.1"/>
				<rect x="261.7" y="293.9" class="st2" width="34.3" height="5.1"/>
				<rect x="261.7" y="303.6" class="st2" width="34.3" height="5.1"/>
				<rect x="261.7" y="313.4" class="st2" width="34.3" height="5.1"/>
				<rect x="261.7" y="323.1" class="st2" width="34.3" height="5.1"/>
				<rect x="261.7" y="332.9" class="st2" width="34.3" height="5.1"/>
				<rect x="261.7" y="342.6" class="st2" width="34.3" height="5.1"/>
				<rect x="261.7" y="352.4" class="st2" width="34.3" height="5.1"/>
				<rect x="261.7" y="362.1" class="st2" width="34.3" height="5.1"/>
				<rect x="261.7" y="371.9" class="st2" width="34.3" height="5.1"/>
				<rect x="261.7" y="381.6" class="st2" width="34.3" height="5.1"/>
				<rect x="261.7" y="391.4" class="st2" width="34.3" height="5.1"/>
				<rect x="261.7" y="401.1" class="st2" width="34.3" height="5.1"/>
				<rect x="261.7" y="410.9" class="st2" width="34.3" height="5.1"/>
				<rect x="261.7" y="420.6" class="st2" width="34.3" height="5.1"/>
			</g>
			<g>
				<rect x="233.9" y="40.4" class="st2" width="12.2" height="5.1"/>
				<rect x="233.9" y="50.1" class="st2" width="12.2" height="5.1"/>
				<rect x="233.9" y="59.9" class="st2" width="12.2" height="5.1"/>
				<rect x="233.9" y="69.6" class="st2" width="12.2" height="5.1"/>
				<rect x="233.9" y="79.4" class="st2" width="12.2" height="5.1"/>
				<rect x="233.9" y="89.1" class="st2" width="12.2" height="5.1"/>
				<rect x="233.9" y="98.9" class="st2" width="12.2" height="5.1"/>
				<rect x="233.9" y="108.6" class="st2" width="12.2" height="5.1"/>
				<rect x="233.9" y="118.4" class="st2" width="12.2" height="5.1"/>
				<rect x="233.9" y="128.1" class="st2" width="12.2" height="5.1"/>
				<rect x="233.9" y="137.9" class="st2" width="12.2" height="5.1"/>
				<rect x="233.9" y="147.6" class="st2" width="12.2" height="5.1"/>
				<rect x="233.9" y="157.4" class="st2" width="12.2" height="5.1"/>
				<rect x="233.9" y="167.1" class="st2" width="12.2" height="5.1"/>
				<rect x="233.9" y="176.9" class="st2" width="12.2" height="5.1"/>
				<rect x="233.9" y="186.6" class="st2" width="12.2" height="5.1"/>
				<rect x="233.9" y="196.4" class="st2" width="12.2" height="5.1"/>
				<rect x="233.9" y="206.1" class="st2" width="12.2" height="5.1"/>
				<rect x="233.9" y="215.9" class="st2" width="12.2" height="5.1"/>
				<rect x="233.9" y="225.6" class="st2" width="12.2" height="5.1"/>
				<rect x="233.9" y="235.4" class="st2" width="12.2" height="5.1"/>
				<rect x="233.9" y="245.1" class="st2" width="12.2" height="5.1"/>
				<rect x="233.9" y="254.9" class="st2" width="12.2" height="5.1"/>
				<rect x="233.9" y="264.6" class="st2" width="12.2" height="5.1"/>
				<rect x="233.9" y="274.4" class="st2" width="12.2" height="5.1"/>
				<rect x="233.9" y="284.1" class="st2" width="12.2" height="5.1"/>
				<rect x="233.9" y="293.9" class="st2" width="12.2" height="5.1"/>
				<rect x="233.9" y="303.6" class="st2" width="12.2" height="5.1"/>
				<rect x="233.9" y="313.4" class="st2" width="12.2" height="5.1"/>
				<rect x="233.9" y="323.1" class="st2" width="12.2" height="5.1"/>
				<rect x="233.9" y="332.9" class="st2" width="12.2" height="5.1"/>
				<rect x="233.9" y="342.6" class="st2" width="12.2" height="5.1"/>
				<rect x="233.9" y="352.4" class="st2" width="12.2" height="5.1"/>
				<rect x="233.9" y="362.1" class="st2" width="12.2" height="5.1"/>
				<rect x="233.9" y="371.9" class="st2" width="12.2" height="5.1"/>
				<rect x="233.9" y="381.6" class="st2" width="12.2" height="5.1"/>
				<rect x="233.9" y="391.4" class="st2" width="12.2" height="5.1"/>
				<rect x="233.9" y="401.1" class="st2" width="12.2" height="5.1"/>
				<rect x="233.9" y="410.9" class="st2" width="12.2" height="5.1"/>
				<rect x="233.9" y="420.6" class="st2" width="12.2" height="5.1"/>
			</g>
			<g>
				<rect x="308" y="40.4" class="st2" width="12.2" height="5.1"/>
				<rect x="308" y="50.1" class="st2" width="12.2" height="5.1"/>
				<rect x="308" y="59.9" class="st2" width="12.2" height="5.1"/>
				<rect x="308" y="69.6" class="st2" width="12.2" height="5.1"/>
				<rect x="308" y="79.4" class="st2" width="12.2" height="5.1"/>
				<rect x="308" y="89.1" class="st2" width="12.2" height="5.1"/>
				<rect x="308" y="98.9" class="st2" width="12.2" height="5.1"/>
				<rect x="308" y="108.6" class="st2" width="12.2" height="5.1"/>
				<rect x="308" y="118.4" class="st2" width="12.2" height="5.1"/>
				<rect x="308" y="128.1" class="st2" width="12.2" height="5.1"/>
				<rect x="308" y="137.9" class="st2" width="12.2" height="5.1"/>
				<rect x="308" y="147.6" class="st2" width="12.2" height="5.1"/>
				<rect x="308" y="157.4" class="st2" width="12.2" height="5.1"/>
				<rect x="308" y="167.1" class="st2" width="12.2" height="5.1"/>
				<rect x="308" y="176.9" class="st2" width="12.2" height="5.1"/>
				<rect x="308" y="186.6" class="st2" width="12.2" height="5.1"/>
				<rect x="308" y="196.4" class="st2" width="12.2" height="5.1"/>
				<rect x="308" y="206.1" class="st2" width="12.2" height="5.1"/>
				<rect x="308" y="215.9" class="st2" width="12.2" height="5.1"/>
				<rect x="308" y="225.6" class="st2" width="12.2" height="5.1"/>
				<rect x="308" y="235.4" class="st2" width="12.2" height="5.1"/>
				<rect x="308" y="245.1" class="st2" width="12.2" height="5.1"/>
				<rect x="308" y="254.9" class="st2" width="12.2" height="5.1"/>
				<rect x="308" y="264.6" class="st2" width="12.2" height="5.1"/>
				<rect x="308" y="274.4" class="st2" width="12.2" height="5.1"/>
				<rect x="308" y="284.1" class="st2" width="12.2" height="5.1"/>
				<rect x="308" y="293.9" class="st2" width="12.2" height="5.1"/>
				<rect x="308" y="303.6" class="st2" width="12.2" height="5.1"/>
				<rect x="308" y="313.4" class="st2" width="12.2" height="5.1"/>
				<rect x="308" y="323.1" class="st2" width="12.2" height="5.1"/>
				<rect x="308" y="332.9" class="st2" width="12.2" height="5.1"/>
				<rect x="308" y="342.6" class="st2" width="12.2" height="5.1"/>
				<rect x="308" y="352.4" class="st2" width="12.2" height="5.1"/>
				<rect x="308" y="362.1" class="st2" width="12.2" height="5.1"/>
				<rect x="308" y="371.9" class="st2" width="12.2" height="5.1"/>
				<rect x="308" y="381.6" class="st2" width="12.2" height="5.1"/>
				<rect x="308" y="391.4" class="st2" width="12.2" height="5.1"/>
				<rect x="308" y="401.1" class="st2" width="12.2" height="5.1"/>
				<rect x="308" y="410.9" class="st2" width="12.2" height="5.1"/>
				<rect x="308" y="420.6" class="st2" width="12.2" height="5.1"/>
			</g>
			<rect x="158.6" y="211.4" class="st1" width="104.3" height="212.7"/>
			<g>
				<g>
					<g>
						<rect x="156.9" y="233.8" class="st2" width="108.1" height="6.7"/>
						<rect x="156.9" y="220.6" class="st2" width="108.1" height="6.7"/>
						<rect x="156.9" y="246.7" class="st2" width="108.1" height="6.7"/>
						<rect x="156.9" y="260.7" class="st2" width="108.1" height="6.7"/>
						<rect x="156.9" y="274.6" class="st2" width="108.1" height="6.7"/>
						<rect x="156.9" y="288.6" class="st2" width="108.1" height="6.7"/>
						<rect x="156.9" y="302.5" class="st2" width="108.1" height="6.7"/>
						<rect x="156.9" y="316.5" class="st2" width="108.1" height="6.7"/>
						<rect x="156.9" y="330.4" class="st2" width="108.1" height="6.7"/>
						<rect x="156.9" y="344.3" class="st2" width="108.1" height="6.7"/>
						<rect x="156.9" y="358.3" class="st2" width="108.1" height="6.7"/>
						<rect x="156.9" y="372.2" class="st2" width="108.1" height="6.7"/>
						<rect x="156.9" y="386.2" class="st2" width="108.1" height="6.7"/>
						<rect x="156.9" y="400.1" class="st2" width="108.1" height="6.7"/>
					</g>
				</g>
				<g>
					<rect x="156.9" y="207.5" class="st1" width="108.1" height="6.7"/>
					<g>
						<path class="st1" d="M162.3,207.7c1.2,0,28.6-16.1,28.6-16.1v-4.7h35.3l0,4.8l34.4,15.9H162.3z"/>
					</g>
				</g>
			</g>
			<g>
				<rect x="171.9" y="48.6" class="st1" width="5.9" height="16.6"/>
				<rect x="167.7" y="55" class="st1" width="10.1" height="10.1"/>
				<rect x="155.1" y="64" class="st1" width="22.5" height="41.8"/>
				<rect x="153" y="70.8" class="st1" width="24.7" height="1.1"/>
				<rect x="153" y="76" class="st1" width="24.7" height="1.1"/>
				<rect x="174.5" y="10" class="st1" width="0.9" height="40.9"/>
				<rect x="149.5" y="84.9" class="st1" width="28" height="20.8"/>
			</g>
			<polygon class="st1" points="177.7,426.1 177.7,101.6 100.2,101.6 100.2,128.5 84.8,129.9 84.8,426.1 			"/>
			<rect x="93.1" y="333.8" class="st2" width="58.8" height="10.5"/>
			<rect x="82.8" y="120.6" class="st1" width="84" height="212.8"/>
			<g>
				<rect x="82" y="123.6" class="st2" width="83.9" height="0.9"/>
				<g>
					<rect x="82" y="131.3" class="st2" width="84.8" height="0.9"/>
					<rect x="82" y="139.1" class="st2" width="84.8" height="0.9"/>
					<rect x="82" y="131.3" class="st2" width="84.8" height="0.9"/>
					<rect x="82" y="146.8" class="st2" width="84.8" height="0.9"/>
					<rect x="82" y="139.1" class="st2" width="84.8" height="0.9"/>
					<rect x="82" y="154.5" class="st2" width="84.8" height="0.9"/>
					<rect x="82" y="146.8" class="st2" width="84.8" height="0.9"/>
					<rect x="82" y="162.2" class="st2" width="84.8" height="0.9"/>
					<rect x="82" y="154.5" class="st2" width="84.8" height="0.9"/>
					<rect x="82" y="169.9" class="st2" width="84.8" height="0.9"/>
					<rect x="82" y="162.2" class="st2" width="84.8" height="0.9"/>
					<rect x="82" y="177.6" class="st2" width="84.8" height="0.9"/>
					<rect x="82" y="169.9" class="st2" width="84.8" height="0.9"/>
					<rect x="82" y="185.3" class="st2" width="84.8" height="0.9"/>
					<rect x="82" y="177.6" class="st2" width="84.8" height="0.9"/>
					<rect x="82" y="193.1" class="st2" width="84.8" height="0.9"/>
					<rect x="82" y="185.3" class="st2" width="84.8" height="0.9"/>
					<rect x="82" y="200.8" class="st2" width="84.8" height="0.9"/>
					<rect x="82" y="193.1" class="st2" width="84.8" height="0.9"/>
					<rect x="82" y="208.5" class="st2" width="84.8" height="0.9"/>
					<rect x="82" y="200.8" class="st2" width="84.8" height="0.9"/>
					<rect x="82" y="216.2" class="st2" width="84.8" height="0.9"/>
					<rect x="82" y="208.5" class="st2" width="84.8" height="0.9"/>
					<rect x="82" y="223.9" class="st2" width="84.8" height="0.9"/>
					<rect x="82" y="216.2" class="st2" width="84.8" height="0.9"/>
					<rect x="82" y="231.6" class="st2" width="84.8" height="0.9"/>
					<rect x="82" y="223.9" class="st2" width="84.8" height="0.9"/>
					<rect x="82" y="239.4" class="st2" width="84.8" height="0.9"/>
					<rect x="82" y="231.6" class="st2" width="84.8" height="0.9"/>
					<rect x="82" y="247.1" class="st2" width="84.8" height="0.9"/>
					<rect x="82" y="239.4" class="st2" width="84.8" height="0.9"/>
					<rect x="82" y="254.8" class="st2" width="84.8" height="0.9"/>
					<rect x="82" y="247.1" class="st2" width="84.8" height="0.9"/>
					<rect x="82" y="262.5" class="st2" width="84.8" height="0.9"/>
					<rect x="82" y="254.8" class="st2" width="84.8" height="0.9"/>
					<rect x="82" y="270.2" class="st2" width="84.8" height="0.9"/>
					<rect x="82" y="262.5" class="st2" width="84.8" height="0.9"/>
					<rect x="82" y="277.9" class="st2" width="84.8" height="0.9"/>
					<rect x="82" y="270.2" class="st2" width="84.8" height="0.9"/>
					<rect x="82" y="285.6" class="st2" width="84.8" height="0.9"/>
					<rect x="82" y="277.9" class="st2" width="84.8" height="0.9"/>
					<rect x="82" y="293.4" class="st2" width="84.8" height="0.9"/>
					<rect x="82" y="285.6" class="st2" width="84.8" height="0.9"/>
					<rect x="82" y="301.1" class="st2" width="84.8" height="0.9"/>
					<rect x="82" y="293.4" class="st2" width="84.8" height="0.9"/>
					<rect x="82" y="308.8" class="st2" width="84.8" height="0.9"/>
					<rect x="82" y="301.1" class="st2" width="84.8" height="0.9"/>
					<rect x="82" y="316.5" class="st2" width="84.8" height="0.9"/>
					<rect x="82" y="308.8" class="st2" width="84.8" height="0.9"/>
					<rect x="82" y="324.2" class="st2" width="84.8" height="0.9"/>
					<rect x="82" y="316.5" class="st2" width="84.8" height="0.9"/>
				</g>
				<rect x="81.4" y="123.3" class="st2" width="85.1" height="1.5"/>
			</g>
			<g>
				<rect x="100.4" y="112.3" class="st2" width="53.2" height="2.4"/>
				<rect x="100.4" y="108.6" class="st2" width="53.2" height="2.4"/>
			</g>
			<g>
				<g>
					<rect x="170.5" y="123.4" class="st2" width="4.5" height="5.3"/>
					<rect x="170.5" y="132.4" class="st2" width="4.5" height="5.3"/>
					<rect x="170.5" y="141.9" class="st2" width="4.5" height="5.3"/>
					<rect x="170.5" y="151.3" class="st2" width="4.5" height="5.3"/>
					<rect x="170.5" y="160.5" class="st2" width="4.5" height="5.3"/>
					<rect x="170.5" y="170" class="st2" width="4.5" height="5.3"/>
					<g>
						<rect x="170.5" y="177.7" class="st2" width="4.5" height="5.3"/>
					</g>
					<rect x="170.5" y="186.7" class="st2" width="4.5" height="5.3"/>
					<rect x="170.5" y="195.8" class="st2" width="4.5" height="5.3"/>
					<rect x="170.5" y="204.8" class="st2" width="4.5" height="5.3"/>
					<rect x="170.5" y="213.9" class="st2" width="4.5" height="5.3"/>
					<g>
						<rect x="170.5" y="222.9" class="st2" width="4.5" height="5.3"/>
					</g>
					<rect x="170.5" y="232" class="st2" width="4.5" height="5.3"/>
					<g>
						<rect x="170.5" y="241" class="st2" width="4.5" height="5.3"/>
					</g>
					<g>
						<rect x="170.5" y="249.9" class="st2" width="4.5" height="5.3"/>
					</g>
					<g>
						<rect x="170.5" y="260.5" class="st2" width="4.5" height="5.3"/>
					</g>
					<rect x="170.5" y="271" class="st2" width="4.5" height="5.3"/>
					<rect x="170.5" y="281.5" class="st2" width="4.5" height="5.3"/>
					<g>
						<rect x="170.5" y="292" class="st2" width="4.5" height="5.3"/>
					</g>
					<rect x="170.5" y="302.6" class="st2" width="4.5" height="5.3"/>
					<rect x="170.5" y="313.1" class="st2" width="4.5" height="5.3"/>
					<rect x="170.5" y="323.6" class="st2" width="4.5" height="5.3"/>
					<g>
						<rect x="170.5" y="334.1" class="st2" width="4.5" height="5.3"/>
					</g>
					<g>
						<rect x="170.5" y="344.7" class="st2" width="4.5" height="5.3"/>
					</g>
					<rect x="170.5" y="354.4" class="st2" width="4.5" height="5.3"/>
					<g>
						<rect x="170.5" y="364.2" class="st2" width="4.5" height="5.3"/>
					</g>
					<rect x="170.5" y="374" class="st2" width="4.5" height="5.3"/>
					<rect x="170.5" y="383.8" class="st2" width="4.5" height="5.3"/>
					<rect x="170.5" y="393.4" class="st2" width="4.5" height="5.3"/>
					<rect x="170.5" y="403.1" class="st2" width="4.5" height="5.3"/>
					<rect x="170.5" y="412.8" class="st2" width="4.5" height="5.3"/>
					<rect x="170.5" y="422.5" class="st2" width="4.5" height="3.6"/>
				</g>
			</g>
			<g>
				<rect x="88.5" y="333.2" class="st1" width="2.3" height="13.4"/>
				<rect x="96.8" y="333.2" class="st1" width="2.3" height="13.4"/>
				<rect x="105.2" y="333.2" class="st1" width="2.3" height="13.4"/>
				<rect x="113.5" y="333.2" class="st1" width="2.3" height="13.4"/>
				<rect x="121.8" y="333.2" class="st1" width="2.3" height="13.4"/>
				<rect x="130.2" y="333.2" class="st1" width="2.3" height="13.4"/>
				<rect x="138.5" y="333.2" class="st1" width="2.3" height="13.4"/>
				<rect x="146.8" y="333.6" class="st1" width="2.3" height="13.4"/>
				<rect x="155.3" y="333.3" class="st1" width="2.3" height="13.4"/>
			</g>
			<g>
				<rect x="125.1" y="347" class="st1" width="28.3" height="79.1"/>
				<rect x="152.5" y="347" class="st1" width="8.9" height="79.1"/>
				<rect x="161.3" y="347" class="st1" width="6.2" height="79.1"/>
				<rect x="71.2" y="346.7" class="st1" width="73.3" height="79.4"/>
			</g>
			<g>
				<g>
					<g>
						<g>
							<g>
								<rect x="74.4" y="351.6" class="st2" width="8.2" height="5.9"/>
								<rect x="85.7" y="351.6" class="st2" width="8.2" height="5.9"/>
								<rect x="97.1" y="351.6" class="st2" width="8.2" height="5.9"/>
								<rect x="108.5" y="351.6" class="st2" width="8.2" height="5.9"/>
								<rect x="119.8" y="351.6" class="st2" width="8.2" height="5.9"/>
								<rect x="131.2" y="351.6" class="st2" width="8.2" height="5.9"/>
							</g>
						</g>
						<g>
							<g>
								<rect x="74.4" y="360.9" class="st2" width="8.2" height="5.9"/>
								<rect x="85.7" y="360.9" class="st2" width="8.2" height="5.9"/>
								<rect x="97.1" y="360.9" class="st2" width="8.2" height="5.9"/>
								<rect x="108.5" y="360.9" class="st2" width="8.2" height="5.9"/>
								<rect x="119.8" y="360.9" class="st2" width="8.2" height="5.9"/>
								<rect x="131.2" y="360.9" class="st2" width="8.2" height="5.9"/>
							</g>
						</g>
					</g>
					<g>
						<rect x="132.5" y="371.7" class="st2" width="6.4" height="13.9"/>
						<rect x="121" y="371.7" class="st2" width="6.4" height="13.9"/>
						<rect x="109.6" y="371.7" class="st2" width="6.4" height="13.9"/>
						<rect x="98.2" y="371.7" class="st2" width="6.4" height="13.9"/>
						<rect x="86.8" y="371.7" class="st2" width="6.4" height="13.9"/>
						<rect x="75.4" y="371.7" class="st2" width="6.4" height="13.9"/>
						<rect x="132.5" y="389.8" class="st2" width="6.4" height="13.9"/>
						<rect x="121" y="389.8" class="st2" width="6.4" height="13.9"/>
						<rect x="109.6" y="389.8" class="st2" width="6.4" height="13.9"/>
						<rect x="98.2" y="389.8" class="st2" width="6.4" height="13.9"/>
						<rect x="86.8" y="389.8" class="st2" width="6.4" height="13.9"/>
						<rect x="75.4" y="389.8" class="st2" width="6.4" height="13.9"/>
						<rect x="132.5" y="409.2" class="st2" width="6.4" height="13.9"/>
						<rect x="121" y="409.2" class="st2" width="6.4" height="13.9"/>
						<rect x="109.6" y="409.2" class="st2" width="6.4" height="13.9"/>
						<rect x="98.2" y="409.2" class="st2" width="6.4" height="13.9"/>
						<rect x="86.8" y="409.2" class="st2" width="6.4" height="13.9"/>
						<rect x="75.4" y="409.2" class="st2" width="6.4" height="13.9"/>
					</g>
					<g>
						<g>
							<rect x="155.3" y="350.6" class="st2" width="4.5" height="5.5"/>
							<rect x="155.3" y="360.3" class="st2" width="4.5" height="5.5"/>
							<rect x="155.3" y="370.1" class="st2" width="4.5" height="5.5"/>
							<rect x="155.3" y="379.9" class="st2" width="4.5" height="5.5"/>
							<rect x="155.3" y="389.6" class="st2" width="4.5" height="5.5"/>
						</g>
						<g>
							<rect x="164" y="350.6" class="st2" width="1.5" height="5.5"/>
							<rect x="164" y="360.3" class="st2" width="1.5" height="5.5"/>
							<rect x="164" y="370.1" class="st2" width="1.5" height="5.5"/>
							<rect x="164" y="379.9" class="st2" width="1.5" height="5.5"/>
							<rect x="164" y="389.6" class="st2" width="1.5" height="5.5"/>
						</g>
						<g>
							<rect x="147.5" y="350.6" class="st2" width="2.1" height="5.5"/>
							<rect x="147.5" y="360.3" class="st2" width="2.1" height="5.5"/>
							<rect x="147.5" y="370.1" class="st2" width="2.1" height="5.5"/>
							<rect x="147.5" y="379.9" class="st2" width="2.1" height="5.5"/>
							<rect x="147.5" y="389.6" class="st2" width="2.1" height="5.5"/>
						</g>
					</g>
					<g>
						<g>
							<rect x="155.3" y="389.5" class="st2" width="4.5" height="5.5"/>
							<rect x="155.3" y="399.2" class="st2" width="4.5" height="5.5"/>
							<rect x="155.3" y="409" class="st2" width="4.5" height="5.5"/>
							<rect x="155.3" y="418.8" class="st2" width="4.5" height="5.5"/>
						</g>
						<g>
							<rect x="164" y="389.5" class="st2" width="1.5" height="5.5"/>
							<rect x="164" y="399.2" class="st2" width="1.5" height="5.5"/>
							<rect x="164" y="409" class="st2" width="1.5" height="5.5"/>
							<rect x="164" y="418.8" class="st2" width="1.5" height="5.5"/>
						</g>
						<g>
							<rect x="147.5" y="389.5" class="st2" width="2.1" height="5.5"/>
							<rect x="147.5" y="399.2" class="st2" width="2.1" height="5.5"/>
							<rect x="147.5" y="409" class="st2" width="2.1" height="5.5"/>
							<rect x="147.5" y="418.8" class="st2" width="2.1" height="5.5"/>
						</g>
					</g>
				</g>
			</g>
			<g>
				<rect x="305.6" y="329.6" class="st2" width="76.8" height="35.5"/>
				<path d="M331.1,389.4c6,10.7,2,30.8,0.6,36.7h23.7c-1.4-5.9-5.4-26,0.6-36.7c7.1-12.6,27.8-18.3,27.8-18.3h0.1v-11.9h-10.3V355
					h10.3v-11.9h-10.3v-4.2h10.3V327H356v-8.5h-24.9v8.5h-27.9v11.9h11.6v4.2h-11.6V355h11.6v4.2h-11.6v11.9
					C303.3,371.1,324,376.8,331.1,389.4z M344.3,338.9h27.9v4.2h-27.9V338.9z M344.3,355h27.9v4.2h-27.9V355z M316.4,338.9h26.3v4.2
					h-26.3V338.9z M316.4,355h26.3v4.2h-26.3V355z"/>
			</g>
		</g>
		<rect x="475.5" y="289.6" class="st2" width="13.5" height="3.1"/>
		<path d="M506.4,195.7c0.2,0.2,0.3,0.5,0.3,0.7c0,0.1,0,0.3-0.1,0.4l-6,29.2h-0.4h-18h-18.2c-0.1-0.1-0.1-0.2-0.1-0.4l-6.3-28.8
			c-0.1-0.1-0.1-0.3-0.1-0.4c0-0.3,0.1-0.5,0.3-0.7C457.7,195.7,481.1,194.6,506.4,195.7z"/>
		<g>
			<defs>
				<path id="SVGID_1_" d="M506.4,195.7c0.2,0.2,0.3,0.5,0.3,0.7c0,0.1,0,0.3-0.1,0.4l-6,29.2h-0.4h-18h-18.2
					c-0.1-0.1-0.1-0.2-0.1-0.4l-6.3-28.8c-0.1-0.1-0.1-0.3-0.1-0.4c0-0.3,0.1-0.5,0.3-0.7C457.7,195.7,481.1,194.8,506.4,195.7z"/>
			</defs>
			<clipPath id="SVGID_2_">
				<use xlink:href="#SVGID_1_"  style="overflow:visible;"/>
			</clipPath>
			<g class="st7">
				<polygon class="st2" points="509.3,198.4 486.5,198.4 457.2,198.4 457.2,201.7 509.3,201.7 509.3,198.4 				"/>
				<polygon class="st2" points="486.5,205.2 457.2,205.2 457.2,208.5 486.5,208.5 509.3,208.5 509.3,208.5 509.3,205.2 
					509.3,205.2 				"/>
				<polygon class="st2" points="509.3,212 486.5,212 486.5,212 457.2,212 457.2,215.3 486.5,215.3 509.3,215.3 509.3,215.3 
					509.3,212 509.3,212 				"/>
				<polygon class="st2" points="486.5,219.3 457.2,219.3 457.2,222.6 509.3,222.6 509.3,219.3 509.3,219.3 				"/>
			</g>
		</g>
		<rect x="-80" y="422.5" width="1606" height="9.2"/>
		<g>
			<g>
				<path d="M500.2,427.6l-11.8-136.9l2.6-62h2.2v-3.4h-5.6v-0.5h-11.3v0.5h-5.8v3.4h2.2l2.6,62l-11.2,140.6l0.8,0.1l11.2-140.7
					l0-0.1l-2.6-62h2.9v198.6h11.3V291.7l11.8,136L500.2,427.6z M487.7,228.7h2.6l-2.6,60.1V228.7z"/>
				<path d="M498.6,193.7h-4.3v-12.5h-1.7v-2.9h1.7v-5.1h-4.9V172h-6.2l-0.6-10.3V134c0,0,0.2-2.5,0-4.2c1.1-0.2,1.9-0.9,1.9-1.7
					c0-1-1.1-1.7-2.4-1.7c-1.4,0-2.4,0.8-2.4,1.7c0,0.8,0.7,1.4,1.7,1.7c-0.2,1.7,0,4.3,0,4.3v27.7l-0.6,10.3h-6.6v1.2h-4.9v5.1h1.7
					v2.9h-1.7v12.5H465v4h33.6V193.7z"/>
			</g>
		</g>
		<rect x="470.6" y="364.3" width="23.3" height="3.1"/>
		<g>
			<path class="st2" d="M801.9,310.5c0,0,28.4,24.2,34.5,45.4c4.6,0,4.6,0,4.6,0s2.8-18.3,0.6-36.4c-2.2-18-5.5-28.8-5.5-28.8
				s-7.8,3.3-13.3,6.4C817.3,300.3,801.9,310.5,801.9,310.5z"/>
			<path class="st1" d="M811.8,337l1-34.3l-2.9,3.9c0,0-37.4,24.1-44.1,31.9c-6.7,7.8-17.8,24.5-17.8,24.5s8.2,2.3,8.6,2.3
				C757.2,365.4,811.8,337,811.8,337z"/>
			<path class="st1" d="M876.7,363.4c-0.4,0.4-8.4,6.9-8.4,6.9l-77.6-0.9l-34.1-5.2c0,0-2.6-4.8-2.6-7.8c7.4,1.3,26.3,3,26.3,3
				L876.7,363.4z"/>
			<path class="st1" d="M876.7,363.4c0,0-59-3.2-96.6-2.2c-5-0.7-26.1-4.8-26.1-4.8l10.8-6c0,0,24.8-14.1,46.7-14.1
				c0,0,11.4-2,16.4,4.8c5,6.9,8.4,11.9,8.4,11.9S866.5,358,876.7,363.4z"/>
			<path class="st2" d="M788.2,296.7c-0.2-0.7-14.7-25-15.4-24.7c-0.7,0.2-50.2,51.2-50.2,51.2l-14.9,29.6l-5.4,14.9
				c0,0,10,2.7,10.8,2c0.7-0.7,48.3-48.3,48.3-48.3L788.2,296.7z"/>
			<path class="st1" d="M715.8,347.8c0.3-0.4,27.4-42.8,42-59c3.7,2.7,15.9,15.7,16.1,16.1c0.1,0.4-10,20.3-10.3,20.7
				c-0.3,0.4-37,20.9-37,20.9L715.8,347.8z"/>
			<path class="st2" d="M747.8,279.1c-0.2-1-19.4-34.5-19.4-34.5s-55.6,69.6-58.6,78.2c-2.9,8.6-5.4,21.6-2.9,23.3
				c2.4,1.7,6.9,15.9,10.8,12.5c3.9-3.4,17.1-12.5,19.6-16.7C699.8,337.6,747.8,279.1,747.8,279.1z"/>
			<path class="st2" d="M752.3,278.1l-5.8-38l-4.7-5.2l-7.6,5.4c0,0,0.2,0.5,0.5,1.4c-3,2.6-5.5,5.9-5.5,5.9s7.6,23.8,10.2,37.6
				c2.4-0.6,4-1.3,5.1-1.8c0,0.3,0.1,0.6,0.1,0.9C748.8,281.6,752.3,278.1,752.3,278.1z"/>
			<path class="st1" d="M674.7,339.7c0.2-0.6,11-33.5,27.9-58.3s40.2-44.9,40.2-44.9s7.3,28.1,7.6,39.7c6-2.8,6-3.5,6-3.5
				s-1.9-29.4-8.2-46.7c-14.3,10.8-42.6,36.3-66.1,83.6c-8.2,16.2-10.1,27.4-10.1,27.4L674.7,339.7z"/>
			<path class="st1" d="M678.2,347.8c0.3-1.3,19.2-47.1,37.7-69c6.1,4.8,15.7,13.9,15.7,13.9l-24.7,33.2L678.2,347.8z"/>
			<path class="st1" d="M662.6,316.1c0,0,20.7-48.4,54.9-73.4c12.3-8.8,24.2-15.6,30.7-16.8C738.4,233.4,716,252,690,295
				c0,0-10.6,18.6-17.9,41.9C668.9,332.5,662.6,316.1,662.6,316.1z"/>
			<path class="st1" d="M679,345.1l0.2,16.8l14.5,15.1l3-1.7c0,0,4.8-15.1,15.1-31.6c10.2-16.6,16.2-26.6,36.9-49
				c20.7-22.3,36.5-30.2,36.5-30.2s0.4,0.3,0.3-1.3c-34.4,6.5-57.5,26.4-71.8,41.8C713.6,305,690.2,331.2,679,345.1z"/>
			<path class="st1" d="M769.8,279.6c0,0,10.1,20.1,10.4,22.7c0.4,2.6,8.4-2.8,8.4-2.8l2.2-6.3l-11-23.1c0,0-0.9-0.6-3.7,2.2
				C773.4,275.1,769.8,279.6,769.8,279.6z"/>
			<path class="st2" d="M795.5,293.4c0,0-6-25.5-10.1-30.2c-5.4,1.5-38,25.1-67,68.9C703,354.8,695.6,377,695.6,377l2.8-1.3
				c0,0,18.6-37.4,39.8-65.2c12.3-14.1,38.2-36.5,41.9-38c1.9,2.4,7.8,22,8.9,24C790.1,298.6,795.5,293.4,795.5,293.4z"/>
			<path class="st2" d="M637,303.4l-9.5-17.7l-13.3-26.1l-7.2-1.2c0,0-13.3,9.6-24.4,30.7c-11.1,21.1-21.4,41.8-24.6,56.5
				c-3.2,14.7-4.9,27.7-4.9,27.7s-1.1,6,0.2,6c1.2,0,18.2-2.8,18.8-3.3c0.5-0.5,16.8-2.8,16.8-2.8s10.4-8.1,10.4-8.8
				C599.3,363.6,637,303.4,637,303.4z"/>
			<g>
				<path class="st1" d="M620.5,300.6c0,0,0,0-0.6-0.1c0.2,0.2,0.5,0.5,0.7,0.9c0.7,1.5,3.9,10.3,3,10.3s-4.9-10.6-4.9-11.5
					c-34,30.3-47.2,54.7-47.2,54.7s25-18.5,26.8-19.4c1.8-0.9,27.6-23.4,27.6-23.4s0.7-1.3,3.3-4.8
					C626.8,303.4,620.5,300.6,620.5,300.6z"/>
				<path class="st1" d="M618.7,300.1c0.6,0.1,1,0.2,1.2,0.3C619.3,300,618.7,300.1,618.7,300.1z"/>
			</g>
			<g>
				<g>
					<g>
						<path class="st1" d="M569.3,338.9c0.1-0.4,12.2-27.1,33.4-50.8c2.5,4.2,4.5,7.2,4.5,7.2l-24,30.3L569.3,338.9z"/>
					</g>
					<path class="st1" d="M604.6,288.2l3.6,5.8l1.5-1.5C609.6,292.5,605.6,287.6,604.6,288.2z"/>
				</g>
			</g>
			<path class="st2" d="M640.9,309.4l4.2-0.3c0,0,19.8,18.8,31.3,46.7c-17.9,2.7-88.7,0.1-88.7,0.1s0.3-4.2,11.5-15.1
				c11.2-10.9,34.1-28.9,36.4-30.4C637.8,308.9,640.9,309.4,640.9,309.4z"/>
			<path class="st1" d="M640.1,309.2c0,0,4.2-4.2,5.7-4.3c1.5-0.1,3.9-0.3,5.4,1.6c1.5,1.9,12.5,12.9,21,30.4
				c8.5,17.5,7.9,18.7,7.9,18.7l-3.6,0.1l-23.1-34.6L640.1,309.2z"/>
			<path class="st1" d="M604.1,261.8c1.2,0,5.2-0.3,5.2-0.3L621,283l7.5-7.9l-12.7-23.8l-3.7-0.7l-3.6,2.5L604.1,261.8z"/>
			<path class="st1" d="M619,290.8h4.6c0,0,10.3,13.6,10.9,13.6s9.1-4.5,9.1-4.5l-15.5-16.5c0,0-4.6,0.1-4.9,0.6
				c-0.3,0.4-3.1,3.3-3.1,3.3L619,290.8z"/>
			<polygon points="427.5,421.1 427.2,414.7 436.3,414.2 453.3,397.6 457.4,397.6 470.1,386.5 545.1,384.4 547.9,376.8 552,375.8 
				567.1,365.6 574,365.6 579.2,369 694.8,369 694.8,374.9 702.8,372.1 713.4,358 740.2,349.8 742.1,361.7 743.6,361.9 748.4,362.1 
				789.3,368.7 869.4,369.5 869.6,380.5 878.7,381.1 878.7,385.3 880.4,388.1 878.6,388.1 878.6,392.8 887.5,392.8 887.5,402.7 
				890.1,406.2 888.2,406.2 888.2,413.1 950.8,413.1 950.8,426.1 427.5,426.1 			"/>
			<rect x="472.1" y="394.3" class="st2" width="16.2" height="7.3"/>
			<rect x="460.8" y="405.6" class="st2" width="9.5" height="4.8"/>
			<rect x="512.5" y="392.4" class="st2" width="36.1" height="2"/>
			<rect x="551.5" y="392.4" class="st2" width="8.2" height="1.7"/>
			<rect x="591.7" y="374" class="st2" width="101.7" height="4.7"/>
			<rect x="593.2" y="405.4" class="st2" width="13.4" height="6.5"/>
			<rect x="608.2" y="405.4" class="st2" width="32.8" height="6.5"/>
			<rect x="780.6" y="375.4" class="st2" width="88.6" height="5"/>
			<rect x="780.6" y="388.6" class="st2" width="97" height="5"/>
			<rect x="780.6" y="407.1" class="st2" width="106.3" height="5"/>
			<path class="st8" d="M708.1,370.4l7.8-11.4l0.1,0l22.6-6.6l1.6,9.5l-12.7,0.2L708.1,370.4z M716.2,359.5l-6.7,9.9l17.9-7.7l0,0
				l12.2-0.2l-1.4-8.4L716.2,359.5z"/>
			<polygon class="st2" points="545.7,414.3 545.4,413.9 558.6,401.1 561.2,401.1 568.8,392.5 571.1,392.5 583.7,378.4 591.7,378.4 
				591.7,378.9 584,378.9 571.3,393 569.1,393 561.4,401.6 558.8,401.6 			"/>
			<polygon class="st2" points="427.6,414.7 427.6,414.2 610.3,413.6 950.8,413.6 950.8,414.1 610.3,414.1 			"/>
			<polygon class="st2" points="753.8,393.3 753.5,392.9 774.2,379.9 780.6,379.9 780.6,380.4 774.4,380.4 			"/>
			<polygon class="st2" points="705.6,414.1 705.4,413.7 726.4,402.2 729.7,402.2 746.3,392.9 780.6,392.9 780.6,393.4 746.4,393.4 
				729.9,402.7 726.5,402.7 			"/>
			<polygon class="st2" points="700.9,413.6 700.7,379.1 584,379.2 584,378.8 701.2,378.6 701.4,413.6 			"/>
			<path class="st2" d="M789.1,369.2l-32.9-0.2l0,0c-5.1-2.4-13.3-6.3-14-6.3c0,0,0,0,0,0l-0.2-0.5c0.6-0.2,9.2,3.9,14.3,6.3
				l32.8,0.2L789.1,369.2z"/>
			<path class="st1" d="M538.6,375.3c0,0,8.9-33.9,18.4-46.7c2.4-1.3,3.7-1.9,3.7-1.9s-8.4,29.4-11.7,50.1c-0.9-3.7-0.4-7.4-0.4-7.4
				S544.6,370.8,538.6,375.3z"/>
			<path class="st1" d="M553.3,362.1c0,0,15.1-24.9,29-39.1c-9.3,14.9-24.4,42.6-27,51c-1.3,0.6-2.8,1.9-2.8,1.9
				S552.4,367.5,553.3,362.1z"/>
			<path class="st1" d="M565.8,360.4c-0.5,0.4,22.9-27.2,49.5-42.1c7.8-7.6,19.4-17.7,32-19.2c-7.6,5.4-39.3,25.3-70.9,66.3
				c-2-0.2-2-0.2-2-0.2l0.7-11.2C575.1,354.1,569.9,357,565.8,360.4z"/>
			<path class="st1" d="M715.5,346.8l-16,27.2h16.2l29.8-10.2c0,0,6.7-11.5,29.4-32.2c33-29.8,60.8-41.5,64.7-44.1
				c-32.8-3-63.6,13-64.1,13.2C775.4,300.6,746.8,310,715.5,346.8z"/>
			<path class="st2" d="M750.3,362.4c0,0,23.3-29.8,54.9-52.1c15.8-11,27-15.6,28.1-15.8c1.1-0.2,1.3-0.6,1.9,0
				c0.6,0.6,7.4,34.2,6.1,59.4c0.4,0.1,1.3,0.2,1.3,0.2s2.3-28.1,0.1-46.2c-1.3-13.6-3.2-20.5-3.2-20.5s-13.8,6.3-27.9,15.5
				c-14.1,9.1-39.8,26.3-66.1,60.9C749,363.4,750.3,362.4,750.3,362.4z"/>
			<path class="st2" d="M683.3,356.3c0,0-8.8-31.3-33.8-57.2c-1.5,0.1-2.1,0-2.1,0s-50.8,33.2-71.7,66.9c10-7.2,13.3-10,13.3-10
				s13.1-18,42.5-40.1c7-4.8,12.7-8.9,13.6-9.2c0.9-0.3,3.3,0,3.3,0s11.6,8.8,23.8,33.1c6.1,12.5,7.9,17.7,7.9,17.7L683.3,356.3z"/>
			<path class="st2" d="M647.3,299.1c0,0-13.8-20.4-17-23.3c-1.9-1.2-1.9-0.9-3.1,0.1c-1.2,1-44.1,30.1-72.4,98.7l5.2-3.6
				c0,0,17.7-35.3,33.7-54.1c15.9-18.8,31.9-31.4,31.9-31.4l2.8,0.3c0,0,11.3,14.2,12.1,15.5C641.2,302.7,647.3,299.1,647.3,299.1z"
				/>
			<path class="st2" d="M557.6,356c0,0,6.4-45.2,54.4-103.6h2.7c0,0,9.5,16.7,12.5,25.2c4.3,3.4,9.7,6.7,9.7,6.7
				s-11.5-33.7-19.7-45.2c-2.1,0.3-2.1,0.3-2.1,0.3s-35.8,38-51.1,79c-7.2,20.9-11.2,31.4-15.2,59c3.6-0.7,3.6-0.7,3.6-0.7
				L557.6,356z"/>
			<path class="st1" d="M539.4,373.5c-0.1,0.7-5.1,12.8-5.1,12.8l11.9,1l4.2-6.3c0,0,0.7-4.8,0.3-4.8c-0.4,0-2.2-7.6-2.2-7.6l-1-2.7
				L539.4,373.5z"/>
			<polyline class="st1" points="701,361.2 692.8,368.9 581.6,368.7 574.5,357.5 			"/>
			<path class="st1" d="M701,361.2l-0.7-3.2l-29.8-4.7c0,0-10.4-12.8-32.2-11c-21.8,1.9-38.7,10.2-38.7,10.2l-24.9,4.8l12.3,2.6
				L701,361.2z"/>
		</g>
	</g>
</g>
</svg>
