<?xml version="1.0" encoding="utf-8"?>
<!-- Generator: Adobe Illustrator 16.0.0, SVG Export Plug-In . SVG Version: 6.00 Build 0)  -->
<!DOCTYPE svg PUBLIC "-//W3C//DTD SVG 1.1//EN" "http://www.w3.org/Graphics/SVG/1.1/DTD/svg11.dtd">
<svg version="1.1" id="Layer_1" xmlns="http://www.w3.org/2000/svg" xmlns:xlink="http://www.w3.org/1999/xlink" x="0px" y="0px"
	 width="844.72px" height="481.89px" viewBox="0 0 844.72 481.89" enable-background="new 0 0 844.72 481.89" xml:space="preserve">
<path d="M401.334,269.628c0,0,2.45,2.447,3.781,2.893c0,0-8.457,9.551-9.127,12.436l-3.34-25.096l-28.052,7.551l3.56,30.869
	l19.375,6.885c0,0,0,1.551,2.224,2.668l3.341,1.109c0,0-6.901,21.547-6.457,25.988l4.008,0.664c0,0-1.561,18.885,5.565,40.865
	c0,0,0.446,8.223,0.671,10.885c0.219,2.664,0.668,17.326,0.439,20.436c-0.22,3.107,0.448,11.1-0.665,12.215
	c-1.114,1.109-3.342,2.887-4.898,3.332c-1.56,0.439-5.566,2.441-4.455,3.773c0,0,0.671,1.775,11.804,0.223
	c0,0-0.227,1.998,11.354,0.893c0,0,6.018-0.225,7.574-0.225c1.555,0,7.569-1.111,4.897-4.885c0,0,2.672-37.094-3.562-45.09
	c0,0-1.782-5.334-1.782-7.553s0.222-9.553,0.888-12.885c0.668-3.328,5.345-16.877,4.9-18.43h2.003c0,0,1.116-12.217-1.559-16.434
	c-2.671-4.217-1.336-6.66-1.336-9.777c0-3.104,1.336-10.885,1.336-10.885s11.134-19.988,7.125-26.646c0,0-0.889-2.887-5.566-4.002
	c0,0-2.448-3.555-2.67-4.664c-0.227-1.109-1.334-0.439-1.334-0.439l-0.674-1.779c0,0,2.45,0.666,2.45-3.557
	c0-4.217-0.441-2.439-1.332-3.773c-0.891-1.329,1.332-0.668,2.227-1.773c0.891-1.109-0.896-0.229-1.784-1.559
	c-0.887-1.332-7.127-14.882-15.36-13.329c-8.245,1.562-12.474,9.329-12.918,11.997c-0.444,2.662,2.227,7.777,2.451,8.662
	c0.222,0.893,4.452,6.221,3.12,8.887 M406.453,416.218c0.671-2.887,2.004-9.324,2.229-11.547c0.222-2.223-0.002-16.66-0.667-18.211
	c0,0,3.34,6.885,3.562,9.77c0.219,2.885,2.45,12.883,1.331,15.322c-1.111,2.449-2.223,6.668-3.112,7.998
	c-0.891,1.338-3.121,2.887-3.121,2.887S405.785,419.108,406.453,416.218z"/>
<g>
	<path d="M215.722,343.651c0,0,0.549,0.678,0.69,1.244c0,0-0.849,1.773,1.564,3.975c0,0,2.058,1.486,2.838,1.914
		c0.781,0.426-7.95,0.354-7.95,0.354l0.214,3.617l6.671,1.066l43.073-0.283v72.723h4.545l-0.002-72.723h8.728v78.656h4.754v-82.91
		h-23.702c0,0-0.708-0.5,0.074-0.857l8.726-22.553c0,0,0.146-0.57-0.988-0.219l-2.985,0.502c0,0-0.708,0.217-0.994,0.777
		l-7.805,20.215l-23.775,0.143c0,0-0.28,1.135,0.712,1.42l-2.27,0.141c0,0,3.973-5.109,1.843-7.232c0,0-2.34-2.34-4.252-2.34
		c0,0-1.283-0.783-1.706-1.137c-0.426-0.352-5.252-5.463-5.396-6.242c-0.142-0.779-1.985-4.322-3.264-5.393
		c-1.275-1.064,0.07-2.197-1.349-3.404c-1.418-1.207-1.631-3.969-2.553-4.039c-0.924-0.072,0.356-0.072,0.356-0.072
		s2.907-5.107,5.036-3.973c0,0,3.903,2.199,4.614,0.639c0,0,0.14-1.773,1.491-1.703l-0.141-1.061c0,0,0.567,0.143,0.849-0.357
		c0,0-0.068-1.488,0.713-1.346c0,0,2.126,0.352,1.844-1.135c0,0-0.784-3.41,0-4.328c0.782-0.92,3.193-4.967,1.631-7.803
		c0,0,2.059-6.029-9.651-8.439c0,0-4.968,0-6.385,1.061c0,0-0.642,0.285-1.563-0.637c0,0-3.334-2.832-5.818,0.494
		c0,0-1.348,0.926-2.484,11.283c0,0-1.419,4.611-1.917,5.387c-0.497,0.783-0.428,0.711-0.707,2.057
		c-0.289,1.35,0.21,1.635-0.922,3.48c-1.138,1.842-1.417,3.688-2.839,5.746c-1.421,2.053-2.414,3.33-2.201,5.105
		c0.212,1.77,0.565,2.623,0.565,2.623l0.182-0.23c-0.197,0.861-0.395,1.891-0.465,3.205c-0.14,2.631-0.14,6.104-0.282,6.955
		c-0.145,0.854-0.782,1.844-1.49,3.406c-0.711,1.559-1.419,6.238-1.49,7.869c-0.071,1.631,0.779,1.135-1.352,2.91
		c-2.128,1.775-3.544,3.475-5.179,5.248c-1.631,1.771-3.688,4.467-4.115,4.965c-0.426,0.496,0,0.496-0.285,1.277
		c-0.281,0.779-0.57,1.42-0.141,1.563c0.426,0.141,0.355,0.352,0.072,1.135c-0.287,0.781-1.633,7.873,2.273,11.563
		c0,0-10.507,0.779-9.371-2.768c0,0,8.801-27.309,2.769-33.549l-4.754-1.352c0,0-0.707-0.141-0.212,0.711
		c0,0,5.392,9.078,1.278,20.711l1.275,0.992l-6.101,16.811c0,0-2.2-0.281-0.778,1.982l-6.583,48.5l6.135-0.008l1.136-17.971
		l2.695-26.908c0.863-1.139,2.138-2.307,3.805-2.418l34.68,2.152v9.424l-10.929,6.664l0.141,0.783
		c-0.92,0.848-8.516,3.119-8.516,3.119c-0.637-1.273-4.754-0.711-4.754-0.711c-3.123-0.494-2.98,1.92-2.98,1.92
		c0.572,3.064,0.316,8.938,0.139,11.863h0.04c-0.337,1.928-1.414,8.725-0.259,10.553c0,0,2.141,1.684,4.165,1.797
		c0,0,6.746,0.516,2.443-4.842c0,0,0.445-5.918,2.264-7.508c0.691-0.965,1.518-2.244,1.218-2.502c0,0,4.895-5.887,10.003-7.449
		l2.272,2.697l4.328-2.982l0.319,22.305l4.721-0.031l0.281-2.27c0,0,4.117-0.428,5.678-0.068c1.562,0.352,6.104,0.422,6.951,0.422
		c0.855,0,8.944-0.354,6.106-3.332c0,0-5.752-1.846-6.387-2.271c-0.641-0.426-7.097-4.541-7.448-4.184c0,0-1.847-2.127,0.633-5.959
		l3.692,1.135c0,0,3.618-8.512,3.978-9.15c0.35-0.637,0.135-1.342,0.918-2.125c0.779-0.781,2.907-5.889,3.476-6.385
		c0,0,7.88-4.113,4.967-9.574c0,0,4.617-5.889,2.273-9.434c0,0-2.556-3.689-9.225-4.467c-6.672-0.783-23.134-4.186-23.134-4.186
		s-1.068-0.426-0.5-1.348c0,0,0.074-1.066,0.354-1.559c0.287-0.498,1.07-0.855,1.07-1.564s0.14-0.635,0.567-0.992
		c0.425-0.355,0.425-0.426,0.778-1.135c0.356-0.711,2.485-6.174,3.054-7.096c0,0,1.089-5.324,1.942-5.703
		C212.824,348.315,215.834,347.804,215.722,343.651z M213.218,384.616c0.709,1.135,6.107,3.975,6.107,3.975
		c-1.066-0.078-6.247,2.621-6.247,2.621L213.218,384.616z M200.946,318.724l5.037-6.453c0,0,0.032-0.039,0.084-0.115
		c0.024,0.277,0.062,0.512,0.13,0.682C206.396,313.374,203.778,315.981,200.946,318.724z M207.06,298.13
		c-0.588-5.268,1.918-4.33,1.918-4.33c0.545-0.031,0.82,1.18,0.82,1.18C209.136,295.093,207.067,298.175,207.06,298.13z"/>
	<path d="M699.233,300.511c-0.46-1.279,0.116-1.279-0.69-2.439c-0.819-1.164-1.047-0.58-0.935-2.557
		c0.115-1.977-0.925-1.855-1.741-3.02c-0.814-1.164-1.86-2.789-3.371-5.346c-1.511-2.553-0.813-3.365-1.046-5.107
		c-0.232-1.744-1.393-3.721-2.209-3.836c-0.813-0.117-2.206-0.58-2.206-0.58c-0.467-5.463-1.512-5.809-1.512-5.809
		c-1.045-1.277-7.787-4.297-7.787-4.297l-0.281-1.896c0.178-0.525,0.281-0.893,0.281-0.893c0.464-1.16,0.23-2.094,0.23-2.094
		c3.953-10.221-4.302-14.287-4.302-14.287c-12.897-4.296-13.477,10.688-13.477,10.688c-2.094-2.205-1.396,4.533-1.396,4.533
		c-0.12,3.713,1.512,1.16,1.512,1.16c0.113,1.393-0.115,6.738-0.115,6.738c-1.517-0.004-2.794,1.277-3.489,2.207
		c-0.697,0.932-2.323,2.209-2.907,2.322c-0.58,0.117-2.903,0.463-4.768,1.16c-1.852,0.699-4.648,1.979-6.275,2.207
		c-1.62,0.236-1.974,2.445-2.206,4.07c-0.232,1.623-1.045,3.482-1.508,4.76c-0.47,1.277,0.114,2.906,0,3.832
		c-0.119,0.934-0.583,2.443-0.933,3.836c-0.351,1.395-0.815,4.529-1.396,7.086s-0.113,4.418-0.465,5.578
		c-0.347,1.16,0.352,3.363-0.115,4.994c-0.467,1.625-0.698,3.834-1.277,5.57c-0.579,1.75-0.465,5.117-0.579,7.322
		c-0.118,2.209-0.353,4.996-0.353,4.996s0.234,4.65,0.119,7.088c-0.119,2.439-0.466,5.922-0.466,5.922
		c-0.466,1.627,1.161,0.934,1.161,0.934l-0.234,1.623c-0.346,1.744,3.022,6.043,3.022,6.043c1.163,1.506,1.629,0.93,1.629,0.93
		c0.349,0.463,3.136,1.277,3.136,1.277c1.161-0.232-0.232-1.508-0.232-1.508c0.467,0,1.046-0.584,1.046-0.584
		c0.018-0.287-0.025-0.521-0.096-0.727c0.059,0.02,0.096,0.027,0.096,0.027c1.165,0-0.114-7.082-0.114-7.082
		c0.462-0.467,0.813-8.02,0.695-9.992c-0.115-1.975-0.347-4.994-0.233-6.158c0.118-1.162,0.817-2.438,0.93-4.762
		c0.12-2.326,0.347-4.299,0.587-5.578c0.232-1.273,0.232-2.439,0.113-4.063c-0.113-1.627,0.58-2.791,0.58-2.791
		c1.517-3.02,0.698,2.906,0.698,4.18c0,1.283,0.119,4.879-0.351,6.396c-0.461,1.506-0.695,5.574-0.695,5.574l0.58-0.119
		c0,0,0,6.389,0.115,9.178c0.12,2.789,0,3.254-0.58,4.648c-0.58,1.396-0.115,8.129-0.115,8.129l1.864,0.236
		c-0.352,1.043,0.46,11.729,0.574,14.871c0.12,3.133,1.277,10.338,1.166,11.613c-0.12,1.279-0.354,4.648-0.234,7.785
		c0.114,3.137,0.58,5.459,0.698,8.246c0.115,2.789,1.392,9.41,1.278,13.477c-0.117,4.066,0,3.832,1.046,6.389
		c1.046,2.553,4.416,12.664,4.416,12.664l0.465,0.23c-1.16,1.51-1.513,6.158-1.513,6.158c0.815,3.947,9.069,2.088,9.069,2.088
		c2.907-2.324,1.278-5.576,1.278-5.576c0.232-0.463,0.462-2.086,0.346-2.557c-0.113-0.463,0.466-0.93,0.466-0.93
		c2.559,3.373,9.648,2.209,9.648,2.209c1.393-1.16-0.234-2.672-0.234-2.672c-0.35-1.973-3.017-6.969-3.368-7.898
		c-0.35-0.928,0.461-2.67,0.693-4.764c0.237-2.09,1.517-5.809,1.981-7.783c0.462-1.975,1.393-4.764,2.205-7.434
		c0.813-2.672,1.398-6.039,1.979-7.553c0.58-1.506,2.092-7.67,2.092-9.873c0-2.207,0.811-1.977,1.516-3.836
		c0.693-1.855,1.39-4.525,1.39-6.039c0-1.51-0.696-5.229-0.696-5.229s0.347-1.975,0.46-5.227c0.115-3.252,0.115-8.945,0.115-8.945
		l1.163-0.346c0,0,0-2.439-0.233-4.533c-0.226-2.09,0.116-13.822,0-15.566c-0.111-1.742-0.111-4.414-0.111-4.414l-1.161-4.764
		c0,0,0.694-8.135,0.464-10.107c-0.236-1.975,0.467-7.432,0.467-7.432c0.342,0.463,1.857,2.557,2.32,3.715
		c0.464,1.166,0,1.166,0.464,1.627c0.468,0.463,0.82,0.232,1.515,0.93c0.695,0.697,3.249,1.277,3.249,1.277
		c3.723,1.158,7.089-3.135,7.328-4.41C699.707,304.347,699.707,301.79,699.233,300.511z M640.428,351.276
		c0-0.346-0.346-2.322-0.346-2.322l1.047-0.813c-0.054,1.639,0.303,2.66,0.723,3.295
		C641.155,351.216,640.428,351.276,640.428,351.276z M664.254,282.972c0,0-0.349,2.441-1.046,3.715
		c-0.695,1.277-1.274,3.252-1.161,6.855c0.114,3.602-0.817,4.416-0.817,4.416s-0.926-2.557-2.558-5.576
		c-1.623-3.02-1.855-6.969-2.09-10.225c-0.234-3.254,0.964-8.148,0.964-8.148c0.116-1.975,2.512-2.314,2.512-2.314l-0.22,1.982
		c-3.721,2.322,4.761,5.461,4.761,5.461c-0.926-0.119-3.831,0.113-3.831,0.113C660.768,280.411,664.254,282.972,664.254,282.972z
		 M668.439,286.224c-1.164-1.514-0.232-3.604-0.232-3.604c1.157-0.578,1.977-3.369,1.977-3.369c-0.584,0.467-3.142,0-3.142,0
		c1.626-0.113,6.623-6.305,6.623-6.305C673.088,276.782,668.439,286.224,668.439,286.224z M676.689,268.683
		c-0.46-0.119-1.161,0.695-1.161,0.695c-1.514,1.162,1.043,1.508,1.043,1.508v2.676l-2.318-2.209
		c-0.467-0.93,0.812-2.439,0.812-2.439c0.156,0.104,0.321,0.113,0.481,0.055c0.403-0.15,0.8-0.742,1.144-1.436V268.683z
		 M677.85,272.976l-0.113-1.738c1.16,0.35,3.022,1.51,3.022,1.51C679.713,272.284,677.85,272.976,677.85,272.976z"/>
	<path d="M15.773,361.161v5.012h-4.868v58.66h1.328v5.539h5.255v-5.539h37.914v5.539h5.253v-5.539h1.392v-58.66h-5.112v-5.012h1.575
		c0,0,5.787-3.75,16.704-2.758v-1.984c0,0-10.586-1.162-16.374,1.65c0,0-1.49-4.795,2.313-5.951c0,0,3.971-0.162,3.64-5.617v-20.01
		c0,0-0.289-1.209-1.139-2.52c2.064-1.355,13.313-8.686,13.039-7.457c0,0-4.641,12.131-3.443,14.68c0,0,2.998,0.297,3.899,0.596
		c0,0-0.156,22.92,0.894,24.869l0.897,0.301c0,0-0.294,14.229,1.053,16.924c0,0,0.9,4.045,2.25,5.244c0,0-1.504,9.879-0.151,14.229
		c0,0,0.449,13.332-0.447,18.121c-0.906,4.799-2.4,7.793-2.547,8.994c-0.156,1.195-2.549,5.238-4.798,6.289
		c-2.247,1.049-5.247,2.396-2.546,3.443c0,0,9.739,1.348,12.133-2.547c0,0,3.15-5.242,4.348-4.641
		c0.301,0.152,0.489,0.227,0.602,0.254v2.748c-0.859,0.467-1.402,1.129-1.048,2.092c0,0,0.398,0.092,1.048,0.23v0.967h1.051
		l0.104-0.748c3.158,0.537,8.75,1.125,10.236-1.195c0,0,2.849-5.697,4.794-5.25l0.603,6.445h1.05c0,0,0-5.391,1.345-6.74
		c0,0,3.299-5.844-0.601-9.143c0,0-1.345-6.291-2.095-11.232c-0.751-4.939,0-11.082-0.302-14.529
		c-0.296-3.445-0.296-9.285-4.046-13.031c-3.746-3.742-2.094-6.895-2.251-8.838c-0.143-1.947-0.594-6.439-0.594-6.439l1.499,0.15
		c0,0-0.905-15.879,0.301-17.379c0,0,4.345-7.037,3.293-8.088l2.401,0.148c0,0-1.198-12.281-5.845-15.43
		c0,0-1.198-1.795-0.898-3.592c0.302-1.801,1.049-2.1,1.35-3.15c0.298-1.045-0.301-0.598-0.301-1.793
		c0-1.199-0.151-1.648,0.896-2.699c1.052-1.047,2.103-0.447,2.548-1.645c0.451-1.197,4.341-10.787,3.3-12.285
		c0,0,1.647,1.201,0.594,3.896c-1.048,2.697,2.855-1.051,0.602-9.289c-2.25-8.238-0.899-8.539-1.796-10.186
		c-0.898-1.648-1.502-4.492-1.348-6.143c0.146-1.648-0.304-11.383-1.799-12.887c-1.499-1.496-2.103-2.242-2.4-2.991
		c-0.254-0.639,0.573-0.948,0.919-0.746c-0.394-0.587-1.617-2.354-3.466-2.699c-2.399-0.452-5.694-1.496-7.044-0.603
		c-1.352,0.903-8.843,3.299-8.692,6.742c0,0-0.305,4.496,1.492,5.545c0,0-1.04,6.438,1.502,5.541c0,0-0.149,3.445,1.651,4.795
		c0,0,1.797,2.545,0.148,4.494c0,0,1.95,0.146,1.95-1.346c0,0,0.147,4.191-1.505,5.84l-4.896,7.279c0,0-7.462,6.939-8.576,9.168
		l-14.502-0.736c0,0-4.2-3.152-6.295-3.602l-6.605-1.311l-0.668-0.512L16.717,320.71h-3.198c0,0-3.805,0.658-3.805,6.447v21.158
		c0,0,0.332,4.299,4.301,4.299C14.016,352.614,15.773,353.509,15.773,361.161z M89.888,404.142c0,0,4.499-16.781,3.444-20.072
		c0,0,5.25,16.475,4.799,21.869c0,0,0.891,12.582-4.651,19.021c0,0-1.553,0.074-3.055,0.461l0.214-1.506
		c0,0,4.491-6.439-0.601-10.336C90.038,413.579,88.686,407.288,89.888,404.142z M74.046,309.519l-14.849,6.363l1.003,2.041
		c-0.706,0.186-2.261,0.568-3.477,0.615c-1.63,0.061-2.776-0.723-4.345,0.482c0,0-5.521,0.113-5.573,1.689H21.271l25.069-23.229
		c0,0.412,0.196,1.057,1.087,1.945c0,0,4.441,1.338,5.94,1.188c0,0,1.797,0.748,1.647,1.646c0,0,0.18,4.057,1.081,5.701
		L74.046,309.519z M19.211,361.161h34.285v5.012H19.211V361.161z"/>
	<path d="M813.444,204.991v231.084h3.055v-3.488h26.175v3.488h3.051V204.991h-3.051v3.923h-26.175v-3.923H813.444z M842.674,255.133
		v4.407h-13.242v2.514h-7.537v2.23h-3.072v11.861h-1.535v22.586h-0.788v-43.599H842.674z M842.674,301.349v2.143h-13.103v4.602
		h-9.631v12.559h-2.371v23.865h-1.07v-43.168H842.674z M816.499,353.858v-6.727h26.175v6.727H816.499z M842.674,211.534v2.792
		l-13.661-0.128v3.068h-10.051v10.602h-1.116v24.648h-1.347v-40.981H842.674z M816.499,429.972v-42.293h26.175v5.246h-12.265v2.371
		h-9.913v12.975h-2.092v21.701H816.499z"/>
	<g>
		<path d="M764.815,416.442c0,0,1.093,0.883,2.428,2.551c1.335,1.67,4.509,4.594,6.681,5.926c2.173,1.338,2.591,2.508,1.089,3.926
			c-1.505,1.416-13.897,5.57-17.322,0.893c0,0-1.254-0.584-2.59-1.004c-1.336-0.414-2.673-2.084-2.258-4.172
			c0.42-2.086-0.512-5.438,0.49-5.604c0,0,0.835-3.424,0.084-3.424l-2.675-0.418c0,0,2.166-20.643,3.313-27.527
			c1.147-6.887-0.754,2.074,0.509-1.941c1.264-4.014,0.575-3.67,1.264-5.965c0.69-2.293-0.23-5.619,0.69-7.914
			c0.916-2.293,0.228-5.047,0.113-8.377c-0.113-3.328-0.575-8.604,0.114-11.586c0.688-2.98-1.606-9.52-0.228-12.275l-2.527-1.145
			c0,0,5.854-14.801,6.543-19.848c0.688-5.047-0.805-10.9-3.444-15.258c-2.64-4.359-4.818-11.928-4.933-17.207
			c-0.118-5.279,1.261-9.178,4.933-11.701c0,0,1.608-0.688,2.641-0.344l1.606-2.867c0,0,0.345-1.264,0.917-0.92
			c0,0,0.807-1.26-1.604-4.242c0,0-5.856-5.047-2.641-7.457c0,0-4.017-13.307,6.773-13.766c0,0,9.869-1.265,10.329,7.571
			c0,0,0.113,2.983-0.46,4.015c0,0,1.264,2.523,0.46,5.391c0,0-0.803,2.754-0.46,4.475c0,0,0.573,4.242-2.411,4.816
			c0,0,0.918,0.918,1.494,1.031c0.574,0.119,1.148,3.33,1.148,3.33s3.786,1.723,6.082,5.389c0,0,5.507-5.275,6.082-4.932
			c0,0,1.494-1.145,1.377-4.129c0,0-0.805-4.129-0.805-5.16c0-1.037,0.348-4.016,1.036-4.934c0.688-0.92,3.099-2.525,4.933-2.41
			c1.84,0.113,4.134,0.689,3.56,3.555c-0.574,2.869-1.72,3.789-1.951,5.508c-0.229,1.719,0.919,5.736-1.723,7.457
			c0,0-1.375,3.783-1.605,4.588c0,0,2.64,2.639,1.493,5.736l-5.971,5.852c0,0,0.116,4.93-1.149,11.703
			c-1.262,6.766,1.84,12.041,2.529,15.256c0.659,3.09,3.445,14.033,2.841,19.254c-0.024,0.207-0.053,0.402-0.089,0.588l-3.556,0.465
			c0,0,1.835,3.783,0.574,12.5c-1.265,8.723-2.986,11.818-4.02,17.436c-1.033,5.625-1.951,12.164-3.674,15.49
			c-1.719,3.324-2.409,15.6-2.983,19.271c-0.573,3.672-0.043,10.283-0.043,10.283l-0.803,0.348c0,0,0.501,1.873,1.42,2.449
			c0,0,2.524,0.229,4.132,2.291c0,0,2.755,3.902,7.919,4.361c0,0,6.497,1.121,3.171,3.527c0,0-8.752,3.359-16.14-0.662
			c0,0-2.524,0-3.098,0.691l-6.313,0.113c0,0-3.643-3.824-2.148-8.412c0,0,0.344-0.92,0.687-0.688c0,0-0.162-2.473-0.045-3.16
			c0,0-1.618,0.162-1.85-0.984c0,0,1.406-16.469,2.208-19.793c0,0,1.107-3.318,1.107,2.873c0,6.197-2.554,17.916-2.554,17.916
			l-1.261,0.348L764.815,416.442z"/>
		<polygon points="820.743,264.146 811.031,226.724 788.426,235.021 794.961,270.497 		"/>
	</g>
	<rect x="1" y="427.61" width="844.429" height="55.279"/>
	<path d="M358.827,282.241c0,0-6.948-14.111-9.989-13.461c0,0-1.735-3.904-1.52-4.984c0.219-1.092,2.603-6.074-1.083-6.947
		l-4.557-1.326c0,0,0.09-0.516,0.175-1.363c1.585-0.146,0.841-2.153,0.177-3.457c0-2.131-0.191-4.725-0.889-7.268
		c0,0-6.047-12.495-17.873-1.212c0,0-3.633,6.58,1.038,14.626c0,0,1.737,4.771,0.653,5.643c-1.085,0.867-2.604,2.82-4.561,3.689
		c-1.953,0.869-7.381,2.17-9.332,1.953c-1.954-0.217-3.913,0.217-3.913,0.217s-3.687,9.982-4.774,15.4
		c-1.083,5.43-1.089,8.035-1.3,11.068c-0.219,3.039-0.652,10.637-0.436,12.803c0.217,2.172,3.038,18.447,4.779,20.402l1.734-0.654
		l0.65,1.084l1.521-0.65c0,0,1.738,4.336,3.256,5.428l0.654,11.061c0,0,0.432,4.123-1.089,8.686c-1.517,4.549,0,10.406-0.218,14.313
		c-0.212,3.906-3.69,15.188-4.559,17.574s-2.604,15.627-2.389,19.531c0.22,3.902-0.645,7.811-0.434,9.979
		c0.218,2.176,1.957,4.998,2.178,6.734c0.212,1.729-3.916,9.324-0.225,9.324c3.693,0,9.984-0.215,9.984-0.215
		s1.09-4.992,0.219-6.076c0,0,6.08-6.945,2.171-9.984c-3.905-3.031-1.737-2.381-0.866-5.203c0.866-2.82,3.041-8.248,3.041-10.852
		c0-2.6,0.215-10.629,0.65-13.885c0.435-3.254,2.604-11.938,4.776-18.229c2.172-6.289,4.557-13.449,4.557-15.404
		c0-1.953,0.871-3.689,0.871-3.689s1.088,5.211,1.088,6.291c0,1.084,1.514,10.201,0.865,13.021
		c-0.656,2.82,1.517,14.756,1.089,16.488c-0.439,1.736-1.304,2.174-1.745,4.559c-0.43,2.391-0.43,10.848-0.646,13.668
		c-0.22,2.826-1.953,3.256-1.953,5.641c0,2.391-0.652,2.82-1.521,4.992c-0.87,2.172,0.65,10.631,0,11.719
		c-0.651,1.084-1.086,6.723,1.735,6.51c2.826-0.217,8.898-0.652,10.205,0c1.303,0.648,14.326,0,12.154-2.82
		c-2.169-2.822-2.818-1.951-4.774-1.951c-1.952,0-3.69-0.434-4.557-1.953c-0.869-1.521-0.219-2.385-0.219-4.344
		c0-1.953,4.341-24.732,3.041-33.408c-1.304-8.686-1.304-3.693-0.434-8.9c0.868-5.209,1.302-14.102,1.734-19.748
		c0.435-5.643,2.824-17.139,1.953-18.658h3.256c0,0-0.864-16.061-3.036-21.264c-2.173-5.205-2.173-9.115-2.824-11.502
		c-0.65-2.387-0.216-13.887-0.216-13.887s11.07,4.992,13.895-0.646C360.997,290.702,364.036,288.312,358.827,282.241z
		 M311.933,313.044c0,0-0.866-1.518-1.083-3.035c-0.216-1.518-0.652-5.432-0.652-5.432s-0.219-1.078,0.218-1.943
		c0.434-0.869,2.39-8.463,2.39-8.463S316.275,304.577,311.933,313.044z M332.633,328.206l-3.237-2.77
		c2.881-35.313,0-55.266,0-55.266l2.003-2.467l2.464,2.002l-1.111,2.035l3.267,53.23L332.633,328.206z M343.848,270.081
		c-1.086,0.654-6.296-1.518-6.296-1.518l-1.089-3.688c0,0,2.172-1.521,2.609-2.609c0,0,1.953,4.125,3.471,4.342
		C344.062,266.825,344.934,269.431,343.848,270.081z"/>
	<g>
		<path d="M501.364,406.489c-1.121-0.639-2.405-1.922-4.167-2.881c-1.762-0.963-4.009-6.088-7.213-11.051
			c-3.202-4.967-6.409-19.059-6.409-19.059c3.525-4.002-1.761-7.365-1.761-7.365c-0.322-1.281-5.611-14.574-5.611-14.574
			c-1.436-4.646-4.163-3.043-6.246-3.525c-2.084-0.477-4.041,0.248-8.063,0.248c-0.157,0-1.738,0.139-1.581-0.029
			c3.226-3.441,3.775-10.566,3.775-10.566c0.182-3.834-11.275-19.76-11.275-19.76c-2.081-4.805-8.333-3.521-8.333-3.521
			c-1.282-0.643-3.042-0.963-3.042-0.963c-0.804-0.957-1.604-6.246-1.604-6.246c1.119-1.279,1.766-5.285,1.766-5.285
			c0.8-1.121,0.8-5.441,0.8-5.441c0.157-4.324-4.649-8.17-4.649-8.17c-8.174-4.645-12.338,2.24-12.66,3.203
			c-0.318,0.959,0.322,1.922-0.155,2.723c-0.484,0.801,0.317,5.287,0.317,5.287c-0.802,0.32,1.443,3.68,1.443,3.68
			c0,1.764,3.843,5.609,3.843,5.609c0.965,3.201-2.242,6.563-2.242,6.563s0,0-0.637-0.32c-0.645-0.318-0.645-0.16-0.645-0.16
			c-0.802,1.123-4.003,2.883-4.003,2.883c-2.245,0.48-2.407,2.402-2.407,2.402c-8.05-3.453-7.206,2.736-7.206,2.736
			c3.814,20.729,2.667,44.646,2.667,44.646c-0.191,1.186-0.656,7.84-0.592,8.367c0.069,0.525,1.976,0.592,2.769,0.328
			c0.792-0.266,1.78-0.592,1.78-0.592c0.327,0.395,2.897,0.525,2.897,0.525c1.316,1.518,10.938,0.59,10.938,0.59
			c-0.199,0.199,0.922,0.531,0.922,0.531c6.326-0.398,7.25,3.355,7.25,3.355l2.765,0.068l0.66,1.184l0.723,0.264l0.327,9.945
			l-1.378,0.326l0.061,0.596l0.201,0.26l0.267,13.502c-0.86,0.133-1.982,1.186-1.982,1.186c-0.083,0-0.171,0.004-0.26,0.008
			c-10.912,0.313-25.896,12.043-25.896,12.043c-0.79,0.391,0.99,1.119,0.99,1.119l-0.199,0.465
			c-4.221,0.984-2.834,3.686-2.834,3.686c1.189,3.688,4.086,1.91,4.086,1.91c2.37-0.066,2.37-2.113,2.37-2.113
			c0.332-0.588,0.198-3.482,0.198-3.482c-0.064-0.264-0.661-0.197-0.661-0.197l0.201-0.465c0.861-0.33,0.662-2.373,0.662-2.373
			c2.632-2.105,9.814-4.148,9.814-4.148l0.197,0.857l1.121,0.594c-0.526-0.064-1.714,0.457-1.714,0.457
			c-2.241,3.426,0.725,5.471,0.725,5.471c1.25,0,1.187-1.848,1.187-1.848l0.528,0.068c-0.396,0.592,0.858,1.453,0.858,1.453
			c1.841-0.334,1.38-3.43,1.38-3.43l-0.264-1.58c-0.064-0.592-1.382-0.592-1.382-0.592l0.198-0.268l1.119-0.193l0.262-2.238
			c1.582-1.385,6.985-1.252,6.985-1.252c-0.132,0.33,1.843,1.186,1.843,1.186c-1.185,2.438-1.382,10.074-1.382,10.074
			c-0.196,0.855,0.856,0.855,0.856,0.855l0.465,0.525c-0.532,0.066-0.992,0.789-0.992,0.789v1.191
			c-1.055,3.557,1.582,4.084,1.582,4.084c0.525,0.063,0.858-1.256,0.858-1.256c0.523,0,0.986-0.393,0.986-0.393
			c-0.063,1.648,1.386,1.578,1.386,1.578c2.303-0.457,0.791-5.135,0.791-5.135c-0.138-0.988-2.11-0.859-2.11-0.859v-0.525
			c0.46-0.061,0.726-0.725,0.726-0.725c-0.792-0.986,1.118-9.941,1.118-9.941c1.976,0.068,3.693-1.582,3.693-1.582
			c0.167-0.016,0.68,0.025,1.334,0.09c-0.056,0.068-0.087,0.105-0.087,0.105c-0.395,0.268-0.193,2.57-0.193,2.57
			c0.264,1.979-1.19,5.732-1.19,5.732l1.055,1.121l1.648-0.336l1.119-2.236c0.724,0,2.107,6.85,2.107,6.85
			c0.137,3.486,3.16,4.74,3.16,4.74c3.628,2.635,6.395,1.713,6.395,1.713c2.304-0.861,0.064-3.754-0.462-4.805
			c-0.528-1.057-0.986-1.783-1.121-2.57c-0.131-0.787-0.199-9.816-0.199-9.816c1.057,0,5.936,2.439,5.936,2.439
			c0.986,0.264,0.79,2.043,0.79,2.043c-0.131,0.592,2.041,0.982,2.041,0.982c-0.527-0.125-1.648,0.334-1.648,0.334l-0.132,0.988
			c-1.051,3.227,0.726,4.611,0.726,4.611c0.923,0.457,1.252-1.316,1.252-1.316c0.197,0.133,0.989-0.137,0.989-0.137
			c-0.64,1.279,1.608,1.598,1.608,1.598c2.401-1.918-0.803-6.082-0.803-6.082c-0.806-2.885-10.737-8.811-10.737-8.811
			c0-4.963,6.893-34.43,6.893-34.43c0.319,1.92,8.33,14.73,8.811,16.008c0.481,1.287,0.961,1.611,0.16,3.209
			c-0.801,1.602-1.123,6.564-1.123,6.564c1.762,0.963,4.329,7.047,4.329,7.047l2.403-1.279c-2.084-4.166,2.883,1.922,2.883,1.922
			c2.081,1.279,8.651-0.643,10.736-1.602C503.927,408.091,502.482,407.134,501.364,406.489z M450.459,406.669l-0.394-13.303
			l0.394-0.525l-0.132-0.396l-1.251-0.262l-0.065-9.877c0.196,0.131,0.663-0.598,0.663-0.598c0.064-1.441,0.92-1.314,0.92-1.314
			l0.328,1.977c-0.463,0-0.394,0.787-0.394,0.787l0.984,5.404c-0.065,0.729,1.122,0.729,1.122,0.729l3.888-0.664
			c1.119-0.264,0.924-0.594,0.924-0.594l-0.596-5.662c-0.132-1.053-0.925-0.789-0.925-0.789l-0.393-1.844
			c1.447-0.066,1.186-0.725,1.186-0.725l3.953-0.061c-1.118,0.785-1.319,8.621-0.854,12.504c0.456,3.887-0.723,17.256-0.723,17.256
			c-0.442,0-0.892,0.133-1.326,0.33c-2.155-0.393-4.017-0.457-4.017-0.457C453.559,407.198,450.459,406.669,450.459,406.669z"/>
		<path d="M464.863,358.995v4.684h8.928v72.396h2.232v-57.857l16.31-14.539h90.121l16.558,14.762v57.635h2.233v-72.396h8.93v-4.684
			H464.863z M586.503,363.679h12.509v11.543L586.503,363.679z M476.023,374.995v-11.316h12.26L476.023,374.995z"/>
		<path d="M503.893,337.741c0.173,2.029,0.173,4.059,0.971,5.734c0.795,1.68,0.261,0.529,0.176,2.205
			c-0.088,1.678,0.44,2.742,1.767,4.504c1.326,1.768,2.47,7.586,2.47,7.586s0.265,0.535,0.265-0.172
			c0-0.705,1.416-1.236,1.416-1.236l0.614,0.531l-0.614,0.795c-1.416,1.145,2.295,5.469,2.295,5.469l-0.793,0.703
			c0,0,0,0-0.973,0.355c-0.974,0.352-2.561,3.795-3.977,4.76c-1.406,0.979-0.968,2.123-0.968,3.271c0,1.145,1.147,4.414,1.764,8.207
			c0.62,3.795,7.861,15.703,8.743,17.557c0.882,1.852,3.179,10.768,3.088,12.184c-0.089,1.404,2.294,0.703,2.294,0.703
			c1.593-0.092-0.877,5.291-0.877,5.291c-6.629,3.09-4.238,6.885-4.238,6.885c0.142,0.393,1.191,0.463,2.708,0.334
			c-1.524,3.807,1.352,3.461,1.352,3.461c-1.942,0.617-0.97,4.057-0.97,4.057c2.115,3.617,2.821,0.18,2.821,0.18l1.15,0.09
			c0,1.85,1.678,1.232,1.678,1.232c1.411-3.086-1.063-5.738-1.063-5.738c-0.968-0.529,0.444-1.055,0.444-1.055l19.688-2.119
			l0.265,1.498c0.441,0.531,4.678,0.266,4.678,0.266s0.086,0.176,0.086-0.615c0-0.102,0.136-0.131,0.368-0.109
			c1.623,0.162,8.11,2.932,8.11,2.932v0.529c-1.267,0-0.456,2.516-0.174,3.299c0.025,0.174,0.054,0.367,0.087,0.584
			c0.618,4.145,5.563,1.41,5.563,1.41c3.354-4.322-2.562-5.559-2.562-5.559c-1.854-0.176-0.178-0.531-0.178-0.531
			c0.715-0.5-0.261-3.164-0.646-4.141c1.167,0.146,2.08,0.143,2.412-0.004c0.153-0.07,0.279-0.18,0.376-0.324l12.778,0.148
			c1.676-0.088,1.324,0.793,1.324,0.793c-1.324,0.973,1.237,3.527,1.237,3.527c2.03,4.24,4.5,0.531,4.5,0.531
			c2.118-4.148-3.087-4.588-3.087-4.588c0.528-0.527,0.089-2.469,0.089-2.469c-0.354-1.504-1.417-1.504-1.417-1.504l-12.446-0.615
			c-1.185-0.07-2.278-0.145-3.286-0.225c-0.146-0.418-0.293-0.775-0.421-1.01c-0.62-1.15,0.441-4.412,0.441-4.412
			c1.058,0.705,3.53-0.619,3.53-0.619s0.884,0.883,0.354,0c-0.529-0.883,3.179-11.561,3.179-11.561
			c3.003-2.822,11.832-18.529,11.832-18.529c3.971-9.795-2.034-17.121-2.034-17.121c-0.527-1.676,2.738-8.912,2.738-8.912
			c0.264-1.943-1.59-1.41-1.59-1.41c2.384-1.238,3.443-5.561,3.974-6.529c0.53-0.971-0.089-1.586-0.708-2.385
			c-0.614-0.793-0.176-4.234-0.439-6.439c-0.263-2.205-1.679-6.092-2.471-8.916c-0.796-2.822-2.913-7.939-3.092-9.086
			c-0.177-1.15,0.529-3.799,0.179-5.033c-0.355-1.232-1.414-1.412-3.71-2.203s-8.297-3.619-10.064-4.678
			c-1.766-1.059-3.532-1.234-4.15-1.322c-0.618-0.09-1.059-0.971-1.059-0.971c0.354-0.621,0.705-2.648,0.705-2.648
			c3.089-3.969,2.031-7.502,2.031-7.502c1.148-10.059-3.176-11.207-3.176-11.207c-7.506-5.738-14.745,0.797-14.745,0.797
			c-3.532,3-2.297,10.145-2.297,10.145c-2.207,0.441,0.972,6.795,0.972,6.795c-0.176,0.531,0.706,2.027,0.706,2.027
			c-0.882-0.262-4.064,0.709-4.945,1.064c-0.882,0.35-8.65,0.529-8.65,0.529c-5.651,0.617-5.196,3.584-5.196,3.584
			s-2.415,1.285-3.386,2.082c-0.969,0.795-1.588,1.322-3.088,2.998c-1.506,1.678-0.25,2.1-1.842,2.543
			c-1.586,0.439-5.648,2.824-6.707,4.146c-1.058,1.326-3.267,2.65-4.414,2.91c-1.149,0.268-1.059,3.092-1.678,4.506
			c-0.615,1.408,0.619,3.26-0.088,4.053C503.183,334.829,503.716,335.71,503.893,337.741z M550.51,389.979
			c3.265-0.174,3.088-1.941,3.088-1.941c0.794,0.09,6.625-0.523,6.625-0.523s-0.268,4.145-0.532,5.201
			c-0.267,1.059-0.177,2.297-0.177,3.707s-0.09,1.15-1.414,1.852c-1.323,0.709-1.323,2.561-1.323,3.623
			c0,1.057-0.883,2.91-1.059,3.879c-0.177,0.971-0.442,1.326-0.883,2.209c-0.443,0.881,0,2.645-0.619,3.703
			c-0.618,1.063-1.238,2.207-1.238,2.207c0.132,0.865-0.38,2.123-0.646,2.693c-1.059-0.434-1.028-0.752-1.028-0.752v-12.529
			c-0.443-0.18-0.615-1.41-0.615-1.41L550.51,389.979z M528.261,386.185c2.555,2.209,14.477,2.119,14.477,2.119
			c-0.177,1.322,2.472,1.764,2.472,1.764l-0.086,11.742c0,0.527-0.355,1.406-0.355,1.406l-0.353,12.355
			c-0.62,0.529-0.706,1.328-0.706,1.328l-8.328,2.262c0.088-3.178-2.568-10.854-2.884-11.885c-0.354-1.15-0.707-5.912-0.707-6.617
			s-0.614-2.121-1.322-2.826c-0.709-0.707,0-0.789,0.088-1.852c0.086-1.057-0.883-0.705-1.061-1.678
			C529.316,393.331,528.261,386.185,528.261,386.185z M515.811,336.239c0,0,0.443,0.092,1.237-0.348
			c0.794-0.445,2.03-1.945,2.824-3.176c0.797-1.242,4.235-3.799,4.235-3.799c0.355,0.973,0.883,13.855,0.09,16.416
			c-0.796,2.559-0.972,7.676-0.972,7.676s0,1.324-0.439,0.266c-0.44-1.063-2.032-1.502-2.824-2.385
			c-0.796-0.881-0.884-1.326-1.503-2.467c-0.617-1.148-1.058-0.883-1.145-1.68c-0.093-0.793-0.18-2.297-0.709-3.443
			c-0.531-1.146-0.531-0.352-1.233-1.586C514.664,340.478,515.811,336.239,515.811,336.239z"/>
		<path d="M428.203,288.079c0,0-7.478,2.18-3.737,15.572c1.557,6.854,4.05,11.213-3.118,14.328c1.872,1.557,1.872,1.557,1.872,1.557
			s14.645-5.605,14.333-6.541C437.24,312.062,428.203,288.079,428.203,288.079z"/>
	</g>
</g>
</svg>
